<?xml version="1.0" encoding="utf-8"?>
<!-- Generator: Adobe Illustrator 24.1.0, SVG Export Plug-In . SVG Version: 6.00 Build 0)  -->
<svg version="1.1" id="Ebene_1" xmlns="http://www.w3.org/2000/svg" xmlns:xlink="http://www.w3.org/1999/xlink" x="0px" y="0px"
	 viewBox="0 0 1417.3 279.4" style="enable-background:new 0 0 1417.3 279.4;" xml:space="preserve">
<style type="text/css">
	.st0{fill:none;stroke:#E2007A;stroke-width:0.1;stroke-miterlimit:10;}
	.st1{fill-rule:evenodd;clip-rule:evenodd;stroke:#000000;stroke-width:0.1;stroke-miterlimit:10;}
	.st2{display:none;}
	.st3{display:inline;}
	.st4{fill:none;stroke:#E2007A;stroke-width:0.25;stroke-miterlimit:11.3386;}
	.st5{display:inline;fill:none;stroke:#E2007A;stroke-width:0.25;stroke-miterlimit:11.3386;}
</style>
<g id="Ebene_1_1_">
	<path class="st0" d="M1337,208.6c0,0,10-31.9,7.6-47.9c-1.4-9.1-12.2-24.7-12.6-25.2c0.5,1.1,6.9,39.6-5.1,63
		c-1.9,3.7-12.6-20.2-12.6-20.2s4.3,31-5,40.4c-6.8,6.8-17.7-50.4-17.7-50.4s-0.2,58.8-10.1,60.5c-4.8,0.9-15.1-20.2-15.1-20.2
		s-2.3,19.7-8.5,29.5H1225c2.2-1.3,4.1-3.1,5.3-5.2c2.5-4.5,1.8-10.8-0.3-15.6c-1.3-2.8-3.8-5.4-6.8-6.1c-2.6-0.6-7.8,2.4-7.8,2.4
		s7.2-8.9,8.8-14.2c2.6-9.1,2.7-19.2,0.3-28.4c-3.6-13.9-15.1-24.6-21.3-37.5c-5.7-11.8-11.5-23.6-14.1-36.5
		c-1.3-6.4-1.5-17.5-0.8-19.7c0.9-2.7,14.2-7.9,20-13.5c6.3-6.2,11.3-12.7,17.2-21c4-5.6,5.6-12.8,6.8-19.6
		c0.7-4.3-0.4-13.3-0.4-13.3s-15.9,7.4-22.3,13.3c-4.5,4.1-11.4,14.6-11.4,14.6s4.1-14.4,6.7-21.4c2-5.4,2.1-10.1,2.4-15.2
		c0.4-9-2.4-13.8-2.4-13.9c0,0-13,9.3-19.6,26.4c-3.3,8.6-5.4,27.1-5.4,27.1s-6.7-2.8-10.2-4.1c-2-0.7-4.2-0.8-6.3-0.6
		c-3.3,0.3-5.3,1.8-7.8,3.5c-1.5,1-1.7,2.7-3.5,3.6c-3.5,1.8-8.6,0-11.3,3.3c-2.7,3.3,0.9,7.6,0.8,12.8c0,3.4,12.1,16.9,18.9,21.3
		c0.3,0.2,1.9,1.1,1,1.9c-8.5,7.6-12.9,28.1-16.5,43.1c-2.7,11-5.3,27.5-1.5,38.2c1.3,3.6,4,4.9,5.6,3.2c2.5-2.7,5.8-4.9,5.8-4.9
		s6.5,9.1,5.3,9.9c-11,6.9-11.1,14.1-12.8,22.6c-1.4,7.1,0.1,14.5,3.5,21.3c2,3.8,6.6,10.8,6.6,10.8s-1.4,1.8-2.4,1.7
		c-1.7-0.3-3.7,0-5.3,0.1c-5.2,0.5-8.9,3.1-10.1,7.1c-0.2,0.8-0.2,1.6,0,2.4h-38c-3.9-10.5-8.3-27.3-3.4-41.6
		c1.2-3.6-38,25.2-38,25.2s10.1-25,7.7-37.5c-1.4-7.3-9.1-10.2-9.1-10.2c0.3-0.1,3.6,21.1-8.7,39.8c-1.9,2.9-12.5-15.9-12.5-15.9
		s4.2,24.3-5.2,31.6c-6.8,5.3-12.5-16.2-12.5-16.2s-4.5,18.8-12.8,23.1h-58.7c0.7-1.3,1.3-3.4,1.5-6.8c1.7-16.8,8.8-43.3,14.6-56.5
		c1.4-3.2,4.5-10.2,8.2-10.9c4.5-0.9,7.2,33.7,7.7,38.2c0.9,9.3,1.4,12.7,2.4,21.4c0.4,4.6,2.7,6.1,4.7,6.1c2.8,0,2.8-5.7,2.6-10.5
		c-0.9-13.4-2-29.6-4-41.2c-1.1-6.6-4.3-28.7-11.5-28.7c-14.5,0-21.3,33.2-25.3,49.6c0.6-15,1.7-45.5,1.7-51.7c0-1.8-2.1-10-5.1-10
		c-0.8,0-2.1,0.9-3,2.5c-0.8-6.6-6.6-7-9.4-7c-11.9,0-17.6,28.5-20.6,47.6c0.1-8.6-0.4-13.2-0.9-21.4c-0.3-5.7-3.4-6.4-4.3-6.4
		c-2.3,0-3.7,3-3.7,8.2c0,1.8,1.8,15,2,22.8c0.1,8.1,0.4,22.9,0.5,32.6c-0.7-2.3-2.1-4.9-3.5-4.9c-0.9,0-3.5,4.1-5.1,5.5
		c-7.7,7.3-13.9,11.6-21,10.2c-9.4-1.6-13.9-15.3-12.5-29.8c0.9,0,9.1,1.4,10.1,1.4c12.1,0,26.4-8.9,26.5-31.9
		c0-12.7-9.2-16.8-14.2-16.8c-8.2,0-17.3,10.9-23.1,22.3c-4.6,8.7-7.1,17.1-7.7,28.2c0-0.8-0.1-1.7-0.1-2.5
		c-0.6-12.7-0.6-42.8-0.6-54.4c7.9-2.5,11.6-5.5,18.5-6.6c1.3-0.2,2.8-2.3,2.8-5.5c0-1.6-2.4-5-2.4-5c-5.1-1.6-12.5,3.4-18.6,5.2
		c0,0,4-43.9,4-51.5c0-5.5-4.1-6.4-5.5-6.4c-4.1,0-6.3,43.9-6,59.4c-8.2,3.4-11.1,5.5-16.5,8c-0.8,0.4-1.5,0.8-2.1,1.4
		c-0.7-2.6-2.4-6.2-4.2-6.2c-2.8,0-5.5,2-8.9,4.1c-3.5,2.1-10.8,10-16.7,18.7c1.4-10,2.1-20.5,2.1-31.4
		c0-63.7-25.2-115.4-56.2-115.4c-31.1,0-56.2,51.7-56.2,115.4c0,10.1,0.6,19.8,1.8,29.1c-3.1-5.1-8.4-7-11.7-7
		c-8.2,0-17.3,10.9-23.1,22.3c-5,9.6-7.6,18.8-7.8,31.6c-4.3-23.3-11.1-50.9-17.7-50.9c-7.1,0-15.5,13.4-18.2,24.4l-0.4-48.7
		c0-13.9,1.4-27.3,1-36c-0.3-5.2-1.6-8.7-3.7-8.7c-3,0-4.5,4.1-4.5,6.6c0,10,0,32.8,0,57.4c-0.4-3.3-0.8-6.4-1.4-9.5
		c-2.2-13.2-8.7-25.4-12.2-30.2c-7.7-10.5-25.4-16-34.7,1.7c-4.5,8.4-8,18.2-10.5,28.6c-2.2-1.8-5.2-2-6.9-2
		c-11.9,0-17.6,28.5-20.6,47.6c0.1-8.6-0.4-13.2-0.9-21.4c-0.3-5.7-3.4-6.4-4.3-6.4c-0.9,0-1.7,0.5-2.3,1.5c0.3-1,0.4-2.2,0.4-3.3
		c0-3-2.8-2.7-5-2.7c-2.3,0-5.7,1.4-8.1,1.8c-2.4,0.7-6.1,1.6-8.7,2.3c0-17.1,3.1-41.4,10.5-58c1-2,3.1-5,4.3-5
		c7,0,4.7,16.8,8.4,16.8c3.1,0,4.4-6.1,4.4-7.7c0-6.6-5.4-20-12.8-20c-16.9,0-23.1,56.7-22.9,76.9c-3.7,1.4-16.2,0.9-16.2,10.7
		c0,3,0.4,6.8,2.3,6.8c2.8,0,10.1-6.1,14.2-6.6v11.6c0,1,2.2,48.3,6.4,56.9h-42.5c-2.8-1.7-6.1-5.9-8.7-9.4
		c12.4-15.7,11.1-48.2,14.9-63.9c1.2-5-33.5,57.3-33.5,57.3s10-34.9,7.6-52.3c-1.4-10-12.2-26.9-12.6-27.5
		c0.5,1.2,6.9,43.2-5.1,68.8c-1.9,4.1-12.6-22-12.6-22s4.3,33.8-5,44.1c-6.8,7.4-17.7-55.1-17.7-55.1s-0.2,47.1-6.4,61.8h-8.9
		c-4.7-6.4-9.9-17.7-9.9-17.7s-1,8.7-3.2,17.7h-55.9c0.4-1,0.5-2,0.2-3c-1.2-4-4.9-6.6-10.2-7.1c-1.6-0.2-3.6-0.4-5.3-0.1
		c-1,0.2-2.4-1.7-2.4-1.7s4.7-7,6.6-10.8c3.5-6.8,4.9-14.2,3.5-21.3c-1.7-8.5-1.7-15.7-12.8-22.6c-1.2-0.7,5.3-9.9,5.3-9.9
		s3.2,2.3,5.7,4.9c1.6,1.7,4.3,0.4,5.6-3.2c3.8-10.7,1.2-27.2-1.5-38.2c-3.6-15-8-35.5-16.5-43.1c-0.9-0.8,0.7-1.7,1-1.9
		c6.8-4.4,19-17.9,18.9-21.3c-0.1-5.2,3.6-9.5,0.8-12.8c-2.7-3.3-7.8-1.5-11.3-3.3c-1.7-0.9-2-2.5-3.5-3.6c-2.5-1.7-4.5-3.3-7.8-3.5
		c-2.1-0.2-4.3-0.1-6.3,0.6c-3.4,1.3-10.1,4.1-10.1,4.1s-2.1-18.5-5.4-27.1C237-4,224-13.3,224-13.3l0,0c0,0-2.8,4.9-2.4,13.9
		c0.3,5.1,0.4,9.8,2.4,15.2c2.6,7,6.7,21.4,6.7,21.4s-6.9-10.5-11.4-14.6C212.9,16.8,197,9.3,197,9.3s-1.1,8.9-0.4,13.3
		c1.1,6.8,2.7,14,6.8,19.6c5.9,8.3,10.9,14.8,17.3,21c5.8,5.6,19.1,10.8,20,13.5c0.7,2.2,0.5,13.3-0.8,19.7
		c-2.6,12.9-8.4,24.7-14.1,36.5c-6.2,13-17.7,23.6-21.3,37.5c-2.4,9.2-2.3,19.3,0.3,28.4c1.6,5.3,8.8,14.2,8.8,14.2s-5.1-3-7.8-2.4
		c-3,0.7-5.5,3.3-6.8,6.1c-2.2,4.7-2.8,11-0.3,15.6c1.4,2.5,3.8,4.5,6.5,5.8H158c-5.2-10.3-7.1-27.1-7.1-27.1s-10.3,21-15.1,20.2
		c-9.9-1.8-10.1-60.5-10.1-60.5s-10.9,57.2-17.7,50.4c-9.4-9.4-5-40.4-5-40.4s-10.7,23.9-12.6,20.2c-12-23.5-5.5-61.9-5.1-63
		c-0.4,0.5-11.2,16.1-12.6,25.2c-2.5,16,7.6,47.9,7.6,47.9s-49.1-45-47.9-40.4c6.1,23.3,36.7,55.3,49.1,67.5l0.2,0.3v26.3H1334
		v-26.5c0,0,44.5-44.9,51.1-69.9C1386.2,163.7,1337,208.6,1337,208.6z M889,160.4c3-0.5,5.5,1.1,5.5,5.5c0,8.4-5.3,15.3-11.4,17.8
		c-5.5,2-11.8,0.7-14.3-1.6C873.2,171.5,881.3,161.5,889,160.4z M220.2,238.2c0.9-0.5,1.7-0.9,2.5-1.4c1.4-1,1-3.4,1.7-3.7l0,0
		c0.1,0,0.2,0,0.4,0c2.2,0.8,9.8,3.4,17.4,5.1H220.2z M493.7,236.4c2-1.5,3.9-4.1,3.9-7.3c0-1.6-2.7-6.8-3-8.7
		c-1.6-7.1-4.1-27.1-4.1-38.7v-16.6c3.3-0.9,7.2-2,10.6-2.7c1.3-0.2,3.1,0,4.7,0c1.9,0,3.8-1.6,5-4c-0.3,1.2-0.4,2.6-0.4,4.3
		c0,1.8,1.8,15,2,22.8c0.1,10.9,0.6,34.1,0.6,40.5c0,5,0.4,8.4,1.4,10.5L493.7,236.4L493.7,236.4z M520.9,236.4
		c1.8-5.9,0.6-19.4,0.7-22.1c2-25.5,5.8-37.1,8.5-48c2.7-11.2,7.8-22.9,14.5-19.6c-5.1,29.5-2.1,61.5,11,79.4
		c12.6,17.1,31.4,8,41.7-11.5c4-7.7,6.8-19.1,8.2-31.9c0,18.3,0.1,34.5,0.1,43.5c0.1,5.8,1,9,2.1,10.3h-86.8V236.4z M611.8,236.4
		c0.6-0.5,1.1-1.4,1.3-3c0.7-4.6,0.3-28.2,0.9-37.6c0.6-10.2,11.4-31.6,16.2-31.6c6.5,0,13.6,62.6,16,70.1c0.2,0.8,1.3,1.7,2.2,2.1
		H611.8z M681.6,160.4c3-0.5,5.5,1.1,5.5,5.5c0,8.4-5.3,15.3-11.4,17.8c-5.5,2-11.8,0.7-14.3-1.6C665.9,171.5,674,161.5,681.6,160.4
		z M650.7,236.4c1.3-0.4,2.4-1.5,2.4-4.1c0-2.1-0.5-6.6-1.3-12.5c3.1,8.3,8.5,14.4,14.2,16.6H650.7z M696.1,209.6
		c-0.9,0-3.5,4.1-5.1,5.5c-7.7,7.3-13.9,11.6-21,10.2c-9.4-1.6-13.9-15.3-12.5-29.8c0.9,0,9.1,1.4,10.1,1.4
		c11.3,0,24.6-7.8,26.3-27.6c6.3,32.2,19.5,57.1,35.8,67.3h-53.5c10.9-3.1,23.8-13.6,23.8-19.4C700.1,214.8,698.1,209.6,696.1,209.6
		z M791.3,236.4h-20.4c2.3-1,4.6-2.2,6.8-3.7c2-1.2,10.9-7.8,10.9-12.6c0-11.4-4.4-5.7-7.1-3.6c0.4-1,0.8-2,1.1-3
		c4.1-7.3,7.7-15.7,10.7-25.2c2.9,5.2,8.2,6.7,13.9,6.6c8.2,0,17.3-4.1,17.3,1.6c0,7.5-8.9,19.3-15.8,26
		C800.7,230.5,793.5,232.8,791.3,236.4z M807.4,236.4c2.7-2.2,5-4.3,6.5-5.7c5.3-5,18.2-21.2,18.2-35.1c0-15.3-15.8-13.4-22.4-12.5
		c-0.1,0-10.6,1.1-10.6-5c0-5.7,13.2-23.7,20.9-28.5c0.6-0.5,4-2.5,6.5,1.8c0.6,0.9,1.6,0.4,2.5-1.3c0.5,1.6,1.2,3.1,2.3,3.1
		c4,0,9.5-5.2,16.9-9.1c0.1,12.7,0.7,48,1.1,59.4c0.3,6.8,0.7,21.8,1.7,32.8L807.4,236.4L807.4,236.4z M858.6,236.4
		c-0.2-6.8-0.8-15.2-1.3-23.3c2.4,11.6,8.9,20.5,16.1,23.3H858.6z M883.6,236.4c9.8-2.8,21.1-11.5,23.4-17.4c0,1.4,0,2.5,0,3.4
		c0,9.6,1.6,13.2,5.7,13.2c4.8,0,2.8-21.4,3-24.8c2-25.5,5.8-37.1,8.5-48c2.8-11.8,8.4-24.4,15.8-18.9c0.6,0.4,1.2,0.3,1.8-0.2l0,0
		c0,12.1,0.9,23.7,0.9,35.3c0,8.7-0.3,45.1-0.3,50.5c0,3.5,0.4,5.7,1.2,7L883.6,236.4L883.6,236.4z M1189.8,238.2
		c6.7-1.7,12.9-3.8,14.8-4.5c0.2-0.1,0.3-0.1,0.4,0l0,0c0.8,0.3,0.3,2.8,1.7,3.7c0.4,0.3,0.9,0.5,1.3,0.8H1189.8z"/>
	<g>
		<path class="st1" d="M715.7,101.8c3.8,0.4,7.8,3.7,5.7,7.4c-1.2-2.6-3.1-5.9-6.8-5.1c3.3,1.3,5.7,3.5,6.2,7.6
			C726.3,109.3,721.2,99.2,715.7,101.8z"/>
		<path class="st1" d="M756.8,116.8c-0.4-2.1-3.2-1.9-5.7-2c0.9-1.6,2.6-2.5,3.4-4.2c-3.3,1.8-5.4,4.8-8.2,7.1
			C749.6,116.5,753.2,114.8,756.8,116.8z"/>
		<path class="st1" d="M736.7,133.2c1.4-0.4,3.6-0.1,5.1-0.6c2.4-1.8,4.5-9.2,0.3-9.6C738.4,122.7,734.9,128.7,736.7,133.2z
			 M742,128.7c-0.8,0.1-1.7,0-2.4-0.4c-0.4-2.4,1.1-2.8,2.4-3.5C743.7,125.4,742.8,127.6,742,128.7z"/>
		<path class="st1" d="M774,148.8c1.6-1.3,3.4-2.7,5.1-4c6.6-5.3,14.4-7,18.1-13.6c0-11.5-8.1-14.9-15.3-19.2
			c1.8-16.6-10.7-28-24.6-28.6c-15-0.6-23.3,8-31.4,14.1c-0.3,0.8-0.4,1.9-1.1,2.3c-3-3.6-11.4-4.3-13.9,0.3
			c-0.1,7.6,1.9,13,5.7,15.6c1.4,0.9,2.8,0.7,3.1,2c0.4,1.5-1.1,2.4-1.7,4c-1.3,3.4-0.4,5.2,0.8,7.6c-1.6,3.2,0.5,7.9-0.3,11
			c-6.7-0.9-10-5.3-15-7.9c3.7,4.4,9.2,7,15,9.3c-3.4,0.3-5.8-1.9-8.8-1.1c1.2,0.9,3.9,0.2,4.5,1.7c-4.1,0.7-8.6,0.8-11.6,2.6
			c5.6-0.3,10.5-2.6,16.4-1.7c0.2,6.8,10,8.5,12.7,2.8c7,1,9.2,6.8,17,7.1c-0.7-1.2-2.7-1.3-4.5-1.4c-3.2-2.6-7.1-4.4-10.8-6.5
			c6-3.8,9.1,3.9,15.6,3.4c-4-1.7-7.5-3.8-11.3-5.7c4-1.6,7.4-5.2,9.9-7.4c-0.4,1.3-0.3,2.7,0.3,4c1.6-0.3,0.8-3,2.6-3.1
			c0,1.4,0.1,2.6,1.1,2.8c0.8-1.2,0.4-3.6,1.7-4.2c0.5,1.2,0.8,2.6,2,3.1c0.4-2.9,0.4-6.2,1.4-8.5c1.7-0.4,2.6-1.7,4.2-2.3
			c0.9-1.1,1.5-3.5,3.1-2.3c-1.8,3.1-4.8,5-6.2,8.5c1.6,0.3,3.4-3,5.4-2.3c-0.6,1.9-1,4-1.1,6c2.6-1,2.8-5.9,5.1-6.2
			c0,1.7,0,3.4,1.1,4c2.9-3.1,2.4-8.1,4.5-11.3c1.8-2.7,5.9-4.6,7.6-7.1c4.1,1.6,11.6,7.7,11,12.7c-0.5,4.1-8.8,6.8-12.4,9.6
			c-3.7,2.6-7.2,5.5-10.5,8.5c-2.6,2.5-5.5,6.2-5.9,10.1c-0.7,6.5,11.3,10.2,17,7.4c2.8-1.5,4.9-4,5.9-7.1c-3.2,0-5.5,4-9.6,4.5
			s-7.7-1-8.2-4.2C767.1,153.6,771.3,151,774,148.8z M780.3,114.3c-2.3,3.3-6.4,8.6-9.6,10.2c-4.8,2.3-7.4-3.2-9.6-6.2
			c-0.7,1.7,0.6,3.8,1.1,5.1c-1.8,4.1-6.4,6.6-11.9,6.2c0.3-1.4,0.4-2.8,0.3-4.2c4.8-3.6,12.7-6.6,12.4-14.4
			c-0.3-9.9-20.4-7-20.9,1.7c1.5-0.3,1.3-1.7,2.3-2.8c2.6-3,9.7-5.3,13.9-3.4c1.6,0.8,2.2,2.8,4,4c-0.8,8.1-6.7,11-12.4,14.2
			c0.4,10.2-6.8,15-14.2,18.4c-2.1-0.3-5.1-1-7.4-0.3c1.3,0.8,3.9,0.5,5.7,0.8c-0.9,1.7-2.9,0.8-5.1,0.8c-0.1,1,1.2,0.5,1.7,0.8
			c-1.5,5.8-10.1,3.6-10.5-1.7c0.1-0.8,1-0.7,1.1-1.4c-2-2.1-2.2-8.5-1.7-11.3c3-2.4,6-7.5,3.4-11.6c-0.7-0.4-1.5-0.5-2.3-0.3
			c-0.2-1,0.4-1.1,0.3-2c-6.3-2.3-9.5-8.2-9.1-16.4c3.7-4.9,11.3-1.9,14.4,2c1.2,1.5,1.1,4.2,3.1,4.5c-0.3-1.9-1.8-4.9-3.7-6.2
			c1.4-4.3,6-7.1,10.7-10c6.1-3.7,10.8-6.5,19.5-6.5c11.5-0.1,23.3,8.7,24.9,19.2C781.3,106.3,781.7,112.2,780.3,114.3z
			 M719.5,123.8c-0.1-1.3,0.1-2.5,0.8-3.5c0.7-0.4,1.3,1.3,1.6,0c1.4,1.4,1.6,4.8-1.6,4.4C720.5,123.9,720.1,123.8,719.5,123.8z
			 M766.7,158.1c0.8,7,11.2,5.9,16,2.5l0,0c-1.7,1.8-2.7,3.8-6.1,4.3c-4.5,0.6-12.6-2.1-13-6.2c-0.7-6.2,8-12.2,11.6-15.3
			c2.4-2.1,5-4.1,7.6-5.9c3.3-2.2,9.1-4.1,9.6-7.9c0.7-4.8-5-10.5-7.9-12.4c-1.2-0.6-2.4-1.1-3.7-1.4c0.2-0.9,0.5-1.7,0.9-2.5
			c5.7,1.9,20.5,13.1,12.4,21.2c-1.8,1.8-4.7,2.5-7.4,4c-4.9,2.6-8.6,6.2-13,9.6C770.6,150.3,766,152.8,766.7,158.1z"/>
	</g>
</g>
<g id="Ebene_2_1_" class="st2">
	<g class="st3">
		<path class="st4" d="M263.2-150.5c2.2,0.5,6.7,0.6,6.7,0.6l9.3,5.4h36.3c0.2-0.1,0.5-0.2,0.7-0.3c1.4-0.8,1.5-2.2,1.6-3.5
			c0.1-3.4-1.9-6.7-3.8-9.6c-1.6-2.3-3.5-3.2-4.9-5.5c-0.8-1.4-0.4-2.8,0.6-4.1c1.2-1.4,3.1-1.2,4.6-1.9c4-1.7,7.5-4.7,11.8-5.1
			c0.5,0,0.9-0.1,1.4-0.1l0,0c6.3-0.2,6.2,3.4,7.9,6.5c3.2,5.7,2.6,12,5.7,17.2c1.2,2,2,4.6,4.1,5.6c0.5,0.2,1.1,0.5,1.8,0.8h18.5
			c1.4-0.7,2.6-1.5,3.4-2.5c1.5-1.8-0.4-7.2-2.4-8.9c-2.1-1.8-8.4,1.6-8.4,1.6s-4.2-6.6-4.8-10.6c-1.1-6.7-0.1-13.7,3.3-19.6
			c2.6-4.6,8.8-6.3,12-10.5c3.6-4.7,7-12.3,8-16c1.8-6.8-1.9-28.1-2.9-31.9c-0.7-2.8,8.6-8,11.5-13.1c2.8-5,5.9-10.7,5.1-16.3
			c-0.6-4.1-6.2-5.6-6.2-5.6s-4.1-4.3-5.3-6.5c-2.5-4.5-13.1-8-13.1-8c0.7-8.5-5.3-21.6-9.1-31.9c-7.9-21.5-20.9-29.3-24.1-31
			c-0.1-0.1-0.3-0.1-0.4-0.1l0,0c-1.7,0.3-1.5,9.9-1.2,14.4c0.3,6,3.8,17.6,3.8,17.6s-7-10.5-12.1-15.6c-3-3-5.2-7-8.9-8.9
			c-3.1-1.6-10.1-3.3-10.2-1.6c-0.6,7.9,1.4,19.2,5.7,28.7c4.3,9.3,10.8,17.6,17.6,25.2c3.5,3.9,8.8,6.4,13.1,9.3
			c1.2,0.8,3.6,3.1,2.2,3.5c-4.3,1.4-4.7,9.9-4.2,15.2c0.4,4.4,1.4,12.9,1.4,12.9c-1,2.8-3.5,4.1-7,5.4
			c-11.7,4.6-27.8,6.2-41.5,10.8c-3,1-13.7,10.4-19.5,17c-6.7,7.6-7.8,29.1-7.8,29.1s-8.9,1.8-12,4.8c-3.2,3.1-4.9,8.4-5.4,12.1
			C244.7-165.4,250.9-153.3,263.2-150.5z"/>
	</g>
	<g class="st3">
		<path class="st4" d="M971.1-451.8L971.1-451.8L971.1-451.8z"/>
		<path class="st4" d="M922.4-151.4c1.6-0.7,3.2-3.7,5-3.7s3.5,3.1,5,3.7h10.8c10.8-1.7,24.3-6.3,27.5-7.5c0.1,0,0.2-0.1,0.3-0.1
			l0,0c1.2-0.1,0.5,3.2,2.3,4.5c1.6,1.1,3.8,2.3,6.1,3.1h10.9c4.5-1.5,8.8-4.3,11-8.3c3-5.4,2.2-12.9-0.4-18.5
			c-1.5-3.3-4.5-6.5-8-7.2c-3.1-0.7-9.3,2.8-9.3,2.8s8.6-10.5,10.5-16.9c3.1-10.8,3.2-22.9,0.4-33.8c-4.3-16.6-17.9-29.2-25.3-44.7
			c-6.7-14.1-13.7-28.1-16.7-43.4c-1.5-7.6-1.8-20.8-1-23.4c1.1-3.3,16.9-9.4,23.7-16.1c7.5-7.3,13.5-15.1,20.5-24.9
			c4.8-6.7,6.7-15.2,8-23.3c0.9-5.2-0.4-15.8-0.4-15.8s-18.9,8.8-26.5,15.8c-5.4,4.9-13.6,17.4-13.6,17.4s4.9-17.1,8-25.5
			c2.4-6.4,2.5-12,2.8-18.1c0.5-10.6-2.8-16.4-2.8-16.5c0,0-15.5,11.1-23.3,31.4c-3.9,10.2-6.4,32.2-6.4,32.2s-8-3.3-12.1-4.8
			c-2.4-0.9-5-0.9-7.5-0.7c-3.9,0.3-6.3,2.2-9.3,4.2c-1.8,1.2-2.1,3.2-4.1,4.3c-4.2,2.1-10.2,0-13.4,3.9c-3.2,4,1.1,9.1,1,15.3
			c-0.1,4.1,14.4,20.1,22.5,25.3c0.4,0.2,2.2,1.3,1.2,2.3c-10.2,9-15.4,33.5-19.7,51.2c-3.2,13.1-6.3,32.7-1.8,45.5
			c1.5,4.3,4.7,5.8,6.6,3.8c3-3.2,6.8-5.8,6.8-5.8s7.7,10.8,6.3,11.7c-13.1,8.3-13.2,16.8-15.2,26.9c-1.7,8.5,0.1,17.3,4.2,25.3
			c2.3,4.5,7.9,12.9,7.9,12.9s-1.7,2.2-2.8,2c-2-0.3-4.4-0.1-6.3,0.1c-6.2,0.6-10.6,3.6-12.1,8.4c-0.5,1.7,0,3.4,1,4.9L922.4-151.4
			L922.4-151.4z"/>
	</g>
	<path class="st5" d="M1292.1-485.6h-6.7c0.7-1.5,3.1-4.7,11.1-7.4c0.9-0.3-10.2,2.1-10.2,2.1s1.9-6.1,1.4-9.2
		c-0.3-1.8-2.4-4.8-2.4-4.8c0.1,0,1.4,7.5-1,12.1c-0.4,0.7-2.4-3.9-2.4-3.9s0.8,5.9-1,7.7c-1.3,1.3-4.8-9.8-4.8-9.8
		s2.2,12.3-0.5,11.7c-0.9-0.2-2.9-3.9-2.9-3.9s1,3.3-0.6,5.4h-3.3c1.3-1.7,1.6-4.4,0.8-7.1l-0.1-0.2c-1.3-3.8-4.5-6.1-7.2-5.1
		c-0.9,0.3-1.6,0.9-2.1,1.7c-0.7-1.1-1.8-1.8-3-2c-0.2,0-0.4,0-0.5,0c-2,0-4,1.7-5,4.2c-1.4-2.7-4-4.3-6.2-3.6c-2.7,0.8-4,4.6-3,8.5
		c0.4,1.4,1.1,2.7,1.9,3.7h-2c-0.9-2-1.3-5-1.3-5s-2,4-2.9,3.9c-1.9-0.3-1.9-11.6-1.9-11.6s-2.1,10.9-3.4,9.7c-1.8-1.8-1-7.7-1-7.7
		s-2.1,4.6-2.4,3.9c-2.3-4.6-1-12.1-1-12.1s-2.1,3.1-2.4,4.8c-0.5,3.1,1.4,9.2,1.4,9.2s-9.4-8.6-9.2-7.7c1.2,4.4,6.8,10.3,9.2,12.7
		h-25c0.5-0.2,0.9-0.5,1.2-0.8c0.4-0.5-0.1-2-0.7-2.5s-2.4,0.4-2.4,0.4s-1.2-1.9-1.3-3c-0.3-1.9,0-3.8,0.9-5.5
		c0.7-1.3,2.5-1.8,3.4-2.9c1-1.3,2-3.5,2.2-4.5c0.5-1.9-0.5-7.9-0.8-9c-0.2-0.8,2.4-2.3,3.2-3.7c0.8-1.4,1.7-3,1.4-4.6
		c-0.2-1.2-1.8-1.6-1.8-1.6s-1.1-1.2-1.5-1.8c-0.7-1.3-3.7-2.2-3.7-2.2c0.2-2.4-1.5-6.1-2.6-9c-2.2-6-5.9-8.3-6.8-8.7
		c-0.6-0.3-0.5,2.7-0.4,4c0.1,1.7,1.1,4.9,1.1,4.9s-2-2.9-3.4-4.4c-0.8-0.8-1.5-2-2.5-2.5c-0.9-0.4-2.8-0.9-2.9-0.4
		c-0.2,2.2,0.4,5.4,1.6,8.1c1.2,2.6,3,5,4.9,7.1c1,1.1,2.5,1.8,3.7,2.6c0.3,0.2,1,0.9,0.6,1c-1.2,0.4-1.3,2.8-1.2,4.3
		c0.1,1.2,0.4,3.6,0.4,3.6c-0.3,0.8-1,1.1-2,1.5c-3.3,1.3-7.8,1.7-11.7,3c-0.8,0.3-3.9,2.9-5.5,4.8c-1.9,2.1-2.2,8.2-2.2,8.2
		s-2.5,0.5-3.4,1.3c-0.9,0.9-1.4,2.4-1.5,3.4c-0.4,2.8,1.4,6.2,4.9,7c0.6,0.1,1.9,0.2,1.9,0.2l2.9,1.6h-14.3h-0.1h-0.1h-0.1h-0.1
		h-0.1h-0.1h-0.1h-0.1h-0.1h-0.1h-0.1h-0.1h-0.1h-0.1h-0.1h-0.1h-0.1h-0.1h-0.1h-0.1h-0.1h-0.1h-0.1h-0.1h-0.1h-0.1h-0.1h-0.1h-0.1
		h-0.1h-0.1h-0.1h-0.1h-0.1h-0.1h-0.1h-0.1l-0.1,0.1l-0.1,0.1l-0.1,0.1l-0.1,0.1l-0.1,0.1l-0.1,0.1l-0.1,0.1l-0.1,0.1l-0.1,0.1
		l-0.1,0.1l-0.1,0.1l-0.1,0.1l-0.1,0.1l-0.1,0.1l-0.1,0.1l-0.1,0.1l-0.1,0.1l-0.1,0.1l-0.1,0.1l-0.1,0.1l-0.1,0.1l-0.1,0.1l-0.1,0.1
		l-0.1,0.1l-0.1,0.1l-0.1,0.1l-0.1,0.1l-0.1,0.1l-0.1,0.1l-0.1,0.1l-0.1,0.1l-0.1,0.1l-0.1,0.1l-0.1,0.1l-0.1,0.1l-0.1,0.1l-0.1,0.1
		l-0.1,0.1l-0.1,0.1l-0.1,0.1l-0.1,0.1l-0.1,0.1l-0.1,0.1l-0.1,0.1l-0.1,0.1l-0.1,0.1l-0.1,0.1l-0.1,0.1l-0.1,0.1l-0.1,0.1l-0.1,0.1
		l-0.1,0.1l-0.1,0.1l-0.1,0.1l-0.1,0.1l-0.1,0.1l-0.1,0.1l-0.1,0.1l-0.1,0.1l-0.1,0.1l-0.1,0.1l-0.1,0.1l-0.1,0.1l-0.1,0.1l0,0
		h139.2v-6.5H1292.1z M1184.6-485.6c0.3,0,0.6,0,0.9-0.1c0.5,0,1,0,1.5,0.1H1184.6z M1188.5-485.6c0.3,0,0.6-0.1,0.8-0.2
		c0.4-0.2,0.4-0.6,0.4-1c0-1-0.5-1.9-1.1-2.7c-0.4-0.6-1-0.9-1.4-1.6c-0.2-0.4-0.1-0.8,0.2-1.2c0.3-0.4,0.9-0.3,1.3-0.5
		c1.1-0.5,2.1-1.3,3.3-1.4c0.3,0,0.5,0,0.7,0l0,0c1.4,0.1,1.4,1,1.9,1.8c0.9,1.6,0.7,3.4,1.6,4.9c0.3,0.6,0.6,1.3,1.2,1.6
		c0.2,0.1,0.5,0.2,0.8,0.4L1188.5-485.6L1188.5-485.6z M1252.1-485.6c0.1-0.1,0.1-0.2,0.2-0.4c0.1,0.1,0.2,0.3,0.3,0.4H1252.1z
		 M1259.3-485.6c0.5-0.6,1-1.3,1.3-2c0.5,0.8,1,1.5,1.6,2H1259.3z"/>
	<path class="st5" d="M1294-485.6v6.6h90.1l-0.1-0.1l-0.1-0.1l-0.1-0.1l-0.1-0.1l-0.1-0.1l-0.1-0.1l-0.1-0.1l-0.1-0.1l-0.1-0.1
		l-0.1-0.1l-0.1-0.1l-0.1-0.1l-0.1-0.1l-0.1-0.1l-0.1-0.1l-0.1-0.1l-0.1-0.1l-0.1-0.1l-0.1-0.1l-0.1-0.1l-0.1-0.1l-0.1-0.1l-0.1-0.1
		l-0.1-0.1l-0.1-0.1l-0.1-0.1l-0.1-0.1l-0.1-0.1l-0.1-0.1l-0.1-0.1l-0.1-0.1l-0.1-0.1l-0.1-0.1l-0.1-0.1l-0.1-0.1l-0.1-0.1l-0.1-0.1
		l-0.1-0.1l-0.1-0.1l-0.1-0.1l-0.1-0.1l-0.1-0.1l-0.1-0.1l-0.1-0.1l-0.1-0.1l-0.1-0.1l-0.1-0.1l-0.1-0.1l-0.1-0.1l-0.1-0.1l-0.1-0.1
		l-0.1-0.1l-0.1-0.1l-0.1-0.1l-0.1-0.1l-0.1-0.1l-0.1-0.1l-0.1-0.1l-0.1-0.1l-0.1-0.1l-0.1-0.1l-0.1-0.1l-0.1-0.1l-0.1-0.1l-0.1-0.1
		h-0.1h-0.1h-0.1h-0.1h-0.1h-0.1h-0.1h-0.1h-0.1h-0.1h-0.1h-0.1h-0.1h-0.1h-0.1h-0.1h-0.1h-0.1h-0.1h-0.1h-0.1h-0.1h-0.1h-0.1h-0.1
		h-0.1h-0.1h-0.1h-0.1h-0.1h-0.1h-0.1h-0.1h-0.1h-0.1h-0.1l0,0h-24c1-0.4,2-1,2.5-1.9c0.7-1.3,0.5-3-0.1-4.4
		c-0.4-0.8-1.1-1.5-1.9-1.7c-0.7-0.2-2.2,0.7-2.2,0.7s2-2.5,2.5-4c0.7-2.6,0.8-5.4,0.1-8c-1-3.9-4.2-6.9-6-10.6
		c-1.6-3.3-3.2-6.6-4-10.3c-0.4-1.8-0.4-4.9-0.2-5.5c0.3-0.8,4-2.2,5.6-3.8c1.8-1.7,3.2-3.6,4.8-5.9c1.1-1.6,1.6-3.6,1.9-5.5
		c0.2-1.2-0.1-3.7-0.1-3.7s-4.5,2.1-6.3,3.7c-1.3,1.2-3.2,4.1-3.2,4.1s1.2-4,1.9-6c0.6-1.5,0.6-2.8,0.7-4.3c0.1-2.5-0.7-3.9-0.7-3.9
		l0,0c0,0-3.7,2.6-5.5,7.4c-0.9,2.4-1.5,7.6-1.5,7.6s-1.9-0.8-2.9-1.1c-0.6-0.2-1.2-0.2-1.8-0.2c-0.9,0.1-1.5,0.5-2.2,1
		c-0.4,0.3-0.5,0.8-1,1c-1,0.5-2.4,0-3.2,0.9c-0.8,0.9,0.3,2.1,0.2,3.6c0,1,3.4,4.7,5.3,6c0.1,0.1,0.5,0.3,0.3,0.5
		c-2.4,2.1-3.6,7.9-4.6,12.1c-0.8,3.1-1.5,7.7-0.4,10.7c0.4,1,1.1,1.4,1.6,0.9c0.7-0.7,1.6-1.4,1.6-1.4s1.8,2.6,1.5,2.8
		c-3.1,2-3.1,4-3.6,6.4c-0.4,2,0,4.1,1,6c0.5,1.1,1.9,3,1.9,3s-0.4,0.5-0.7,0.5c-0.5-0.1-1,0-1.5,0c-1.5,0.2-2.5,0.9-2.9,2
		c-0.1,0.4,0,0.8,0.2,1.1H1294V-485.6z M1345.2-487.3L1345.2-487.3L1345.2-487.3c0.3,0.1,0.2,0.8,0.6,1s0.8,0.5,1.3,0.7h-8.2
		C1341.5-486.1,1344.5-487.1,1345.2-487.3z M1335-485.7c0.3,0,0.6,0.1,0.9,0.1h-1.9C1334.4-485.7,1334.7-485.7,1335-485.7z"/>
	<path class="st5" d="M1327.6-346.9c-0.3,1.1-1.3,7.1-0.8,9c0.3,1,1.2,3.2,2.2,4.5c0.9,1.2,2.6,1.6,3.4,2.9c0.9,1.7,1.2,3.6,0.9,5.5
		c-0.2,1.1-1.3,3-1.3,3s-1.8-1-2.4-0.5s-1.1,2-0.7,2.5c0.3,0.3,0.6,0.6,1.1,0.8h-16.4v6.1h66.4l-0.1-0.1l-0.1-0.1l-0.1-0.1l-0.1-0.1
		l-0.1-0.1l-0.1-0.1l-0.1-0.1l-0.1-0.1l-0.1-0.1l-0.1-0.1l-0.1-0.1l-0.1-0.1l-0.1-0.1l-0.1-0.1l-0.1-0.1l-0.1-0.1l-0.1-0.1l-0.1-0.1
		l-0.1-0.1l-0.1-0.1l-0.1-0.1l-0.1-0.1l-0.1-0.1l-0.1-0.1l-0.1-0.1l-0.1-0.1l-0.1-0.1l-0.1-0.1l-0.1-0.1l-0.1-0.1l-0.1-0.1l-0.1-0.1
		l-0.1-0.1l-0.1-0.1l-0.1-0.1l-0.1-0.1l-0.1-0.1l-0.1-0.1l-0.1-0.1l-0.1-0.1l-0.1-0.1l-0.1-0.1l-0.1-0.1l-0.1-0.1l-0.1-0.1l-0.1-0.1
		l-0.1-0.1l-0.1-0.1l-0.1-0.1l-0.1-0.1l-0.1-0.1l-0.1-0.1l-0.1-0.1l-0.1-0.1l-0.1-0.1l-0.1-0.1l-0.1-0.1l-0.1-0.1l-0.1-0.1l-0.1-0.1
		h-0.1h-0.1h-0.1h-0.1h-0.1h-0.1h-0.1h-0.1h-0.1h-0.1h-0.1h-0.1h-0.1h-0.1h-0.1h-0.1h-0.1h-0.1h-0.1h-0.1h-0.1h-0.1h-0.1h-0.1h-0.1
		h-0.1h-0.1h-0.1h-0.1h-0.1h-0.1h-0.1h-0.1h-0.1h-0.1h-0.1h-0.1l0,0h-14.2l2.7-1.6c0,0,1.3,0,1.9-0.2c3.5-0.8,5.2-4.2,4.9-7
		c-0.1-1.1-0.6-2.6-1.5-3.4s-3.4-1.3-3.4-1.3s-0.3-6-2.2-8.2c-1.6-1.9-4.6-4.5-5.5-4.8c-3.9-1.3-8.4-1.7-11.7-3
		c-1-0.4-1.7-0.7-2-1.5c0,0,0.3-2.4,0.4-3.6c0.1-1.5,0-3.9-1.2-4.3c-0.4-0.1,0.3-0.8,0.6-1c1.2-0.8,2.7-1.5,3.7-2.6
		c1.9-2.1,3.7-4.5,4.9-7.1c1.2-2.7,1.8-5.9,1.6-8.1c0-0.5-2,0-2.9,0.4c-1.1,0.5-1.7,1.7-2.5,2.5c-1.5,1.5-3.4,4.4-3.4,4.4
		s1-3.3,1.1-4.9c0.1-1.3,0.1-4-0.3-4.1h-0.1c-0.9,0.5-4.6,2.7-6.8,8.7c-1.1,2.9-2.8,6.6-2.6,9c0,0-3,1-3.7,2.2
		c-0.3,0.6-1.5,1.8-1.5,1.8s-1.6,0.4-1.8,1.6c-0.2,1.6,0.7,3.2,1.4,4.6C1325.1-349.2,1327.8-347.7,1327.6-346.9z M1335.6-319.5
		c0.6-0.3,0.8-1,1.2-1.6c0.9-1.5,0.7-3.2,1.6-4.9c0.4-0.8,0.5-1.7,1.9-1.8l0,0c0.2,0,0.4,0,0.7,0c1.2,0.1,2.2,1,3.3,1.4
		c0.4,0.2,1,0.1,1.3,0.5s0.4,0.8,0.2,1.2c-0.4,0.7-0.9,0.9-1.4,1.6c-0.5,0.8-1.1,1.7-1.1,2.7c0,0.4,0,0.7,0.4,1
		c0.1,0.1,0.3,0.1,0.4,0.2h-9.2C1335.2-319.3,1335.4-319.4,1335.6-319.5z"/>
	<path class="st5" d="M1311.1-319.2h-1.7c-1.9-2.9-2.6-9.4-2.6-9.4s-2.9,6.5-4.3,6.2c-2.8-0.5-2.8-18.6-2.8-18.6s-3.1,17.6-5,15.5
		c-2.6-2.9-1.4-12.4-1.4-12.4s-3,7.3-3.5,6.2c-3.4-7.3-1.5-19.4-1.4-19.4c0,0-3.1,4.9-3.5,7.7c-0.7,4.9,2.1,14.7,2.1,14.7
		s-13.8-13.8-13.5-12.4c1.1,4.4,4.7,9.8,8.2,14.2c-1,1.3-2.3,3-3.2,2.9c-2.8-0.4-4.3-6.7-4.3-6.7s-1.6,6-3.5,4.6
		c-2.6-2.1-1.5-8.9-1.5-8.9s-3,5.3-3.5,4.5c-3.4-5.2-2.5-11.2-2.4-11.2c0,0-2.2,0.8-2.5,2.9c-0.7,3.5,2.2,10.5,2.2,10.5
		s-11-8.1-10.7-7.1c1.7,4.9-0.5,10.7-1.6,13.3c-2.1-1.9-1-5.7-1-5.7s-2,3.7-2.9,3.9c-2.6,0.5-0.5-11.7-0.5-11.7s-3.5,11.1-4.8,9.8
		c-1.8-1.8-1-7.7-1-7.7s-2,4.6-2.4,3.9c-2.3-4.6-1-12.1-1-12.1s-2.1,3.1-2.4,4.8c-0.5,3.1,1.4,9.2,1.4,9.2s-11-2.4-10.2-2.1
		c7.8,2.7,7.8,7.9,7.2,10.6h-66.4c0.1-0.2,0.3-0.4,0.4-0.6c0.7-1.2,0.4-2.7,0.9-4c0.3-0.7,0.7-1.9,1.7-2.2c1-0.3,3.5-1.2,5-2
		c2.8-1.5,5.9-4.2,7.9-5.6c0.5-0.4,4.9,1.2,7.4,1.5c2,0.2,4.1,0.3,6.2-0.1c3.6-0.7,7.7-3,10.5-3.7c1.1-0.3,2.6,1.3,4.1,1.3
		c1.8,0,3.3-1.2,5.1-1.6c0.6-0.1,1.2-0.3,1.7-0.1c2.4,0.8,3.6,3.8,6,4.7c0.6,0.2,2.2-1.3,2.4-2.5c0.2-1-0.3-2.1-1-2.8
		c-2.9-3.1-7-4.9-11.1-6.4c-0.5-0.2-0.5-2.6-1.6-3.6c-0.1-0.1,0.1-0.3,0.3-0.4c1-0.6,2.3-0.4,3.4-0.8c1-0.3,2.2-0.4,2.8-1.2
		c0.8-1.2,2-2.1,2-3.5c0-1.5-1.7-2.4-2.3-3.8c-0.3-0.6-0.1-1.4-0.3-2c-0.5-1.1-1.3-2.3-2.5-2.8c-1.9-0.8-5.5-1.9-5.5-1.9
		c0-3-2.8-11-5.9-15.2c-2.2-3-8.6-4.7-8.6-4.7l0,0c0,0,1.4,6.7,4.4,11c0.5,0.7,3.2,6.4,3.2,6.4s-1.2-1.5-1.8-2.2
		c-0.7-0.8-1.3-1.6-2.1-2.3c-2.1-2-4.1-3.9-6.9-5.3c-2.4-1.2-7.8-1.6-7.8-1.6s2.3,6.5,4.5,9.1c1.3,1.6,2.9,2.6,4.7,3.7
		c2.7,1.6,4.4,2.6,6.8,3.7c1.6,0.7,3.3,1,3.3,1s-0.8,1.5-0.9,2.2c-0.1,1.2,0,3.7,0,3.7s-1.1,0.2-1.6,0.3c-1.8,0.4-3.4,1.1-5.2,1.5
		c-2.1,0.4-4.1,0.8-6.2,0.6c-1.8-0.2-4.1-1.1-5.2-1.3c-2-0.3-2.8-0.7-6.2,0.6c-2.3,0.8-5.7,3.2-5.7,3.2s-0.4-2.2-0.9-3.1
		c-0.6-1-1.1-2.4-2.5-2.5c-1.6-0.1-2.9,1.5-3.9,2.7c-2.1,2.5-2.7,7-2.3,9c0.2,1,1.3,1.6,2.1,2c0.7,0.3,1.6,0.1,2.2,0.3
		c0.4,0.1-0.2,2.9-0.1,4.4c0.1,1.3,0.1,2.7-0.3,4.1c-0.4,1.3-1.2,2.5-1.9,3.5c-0.8,1.2-1.9,2-2.6,3s-1.6,2.2-1.5,3.4
		c0,1.1,0.6,2.2,1.4,2.9h-1.7h-0.1h-0.1h-0.1h-0.1h-0.1h-0.1h-0.1h-0.1h-0.1h-0.1h-0.1h-0.1h-0.1h-0.1h-0.1h-0.1h-0.1h-0.1h-0.1
		h-0.1h-0.1h-0.1h-0.1h-0.1h-0.1h-0.1h-0.1h-0.1h-0.1h-0.1h-0.1h-0.1h-0.1h-0.1h-0.1h-0.1h-0.1l-0.1,0.1l-0.1,0.1l-0.1,0.1l-0.1,0.1
		l-0.1,0.1l-0.1,0.1l-0.1,0.1l-0.1,0.1l-0.1,0.1l-0.1,0.1l-0.1,0.1l-0.1,0.1l-0.1,0.1l-0.1,0.1l-0.1,0.1l-0.1,0.1l-0.1,0.1l-0.1,0.1
		l-0.1,0.1l-0.1,0.1l-0.1,0.1l-0.1,0.1l-0.1,0.1l-0.1,0.1l-0.1,0.1l-0.1,0.1l-0.1,0.1l-0.1,0.1l-0.1,0.1l-0.1,0.1l-0.1,0.1l-0.1,0.1
		l-0.1,0.1l-0.1,0.1l-0.1,0.1l-0.1,0.1l-0.1,0.1l-0.1,0.1l-0.1,0.1l-0.1,0.1l-0.1,0.1l-0.1,0.1l-0.1,0.1l-0.1,0.1l-0.1,0.1l-0.1,0.1
		l-0.1,0.1l-0.1,0.1l-0.1,0.1l-0.1,0.1l-0.1,0.1l-0.1,0.1l-0.1,0.1l-0.1,0.1l-0.1,0.1l-0.1,0.1l-0.1,0.1l-0.1,0.1l-0.1,0.1l-0.1,0.1
		H1313v-6H1311.1z"/>
	<path class="st5" d="M1300.6-169.4c2.5-0.5,4.1-3.4,6.6-3.8c0.6-0.1,1.1,0.1,1.7,0.3c1.7,0.6,3,2,4.8,2.3c1.5,0.2,3.2-1.2,4.3-0.8
		c2.7,1.1,6.4,3.9,9.9,5.1c1.9,0.7,4,0.8,6.1,0.9c2.5,0.1,7-0.9,7.5-0.4c1.7,1.6,4.4,4.7,7,6.6c1.5,1,3.8,2.2,4.7,2.7
		c0.9,0.4,1.2,1.7,1.4,2.5c0.3,1.3-0.2,2.8,0.3,4.1c0.1,0.2,0.2,0.4,0.3,0.6h-46.9v5h71.1l-0.1-0.1l-0.1-0.1l-0.1-0.1l-0.1-0.1
		l-0.1-0.1l-0.1-0.1l-0.1-0.1l-0.1-0.1l-0.1-0.1l-0.1-0.1l-0.1-0.1l-0.1-0.1l-0.1-0.1l-0.1-0.1l-0.1-0.1l-0.1-0.1l-0.1-0.1l-0.1-0.1
		l-0.1-0.1l-0.1-0.1l-0.1-0.1l-0.1-0.1l-0.1-0.1l-0.1-0.1l-0.1-0.1l-0.1-0.1l-0.1-0.1l-0.1-0.1l-0.1-0.1l-0.1-0.1l-0.1-0.1l-0.1-0.1
		l-0.1-0.1l-0.1-0.1l-0.1-0.1l-0.1-0.1l-0.1-0.1l-0.1-0.1l-0.1-0.1l-0.1-0.1l-0.1-0.1l-0.1-0.1l-0.1-0.1l-0.1-0.1l-0.1-0.1l-0.1-0.1
		l-0.1-0.1l-0.1-0.1l-0.1-0.1l-0.1-0.1l-0.1-0.1h-0.1h-0.1h-0.1h-0.1h-0.1h-0.1h-0.1h-0.1h-0.1h-0.1h-0.1h-0.1h-0.1h-0.1h-0.1h-0.1
		h-0.1h-0.1h-0.1h-0.1h-0.1h-0.1h-0.1h-0.1h-0.1h-0.1h-0.1h-0.1h-0.1h-0.1h-0.1h-0.1h-0.1h-0.1h-0.1h-0.1l0,0h-8.6
		c0.5-0.6,0.9-1.3,1.1-2.1c0.2-1.2-0.5-2.5-1.1-3.6s-1.6-2.1-2.2-3.4c-0.5-1.1-1.1-2.5-1.4-3.8c-0.2-1.4,0-2.8,0.3-4.1
		c0.3-1.4,0.1-4.3,0.5-4.4c0.6-0.1,1.5,0.3,2.2,0c0.9-0.3,2.1-0.7,2.4-1.7c0.6-1.9,0.6-6.4-1.1-9.2c-0.8-1.4-1.9-3.1-3.5-3.2
		c-1.3-0.1-2.1,1.2-2.8,2.1c-0.6,0.8-1.3,3-1.3,3s-3.1-2.8-5.2-4c-3.2-1.7-4-1.5-6-1.4c-1,0-3.5,0.6-5.3,0.5
		c-2.1-0.1-4.1-0.8-6.1-1.5c-1.7-0.6-3.3-1.5-5-2.2c-0.5-0.2-1.6-0.6-1.6-0.6s0.5-2.4,0.5-3.6c0-0.6-0.6-2.3-0.6-2.3
		s1.7-0.1,3.4-0.6c2.5-0.7,4.3-1.5,7.2-2.7c1.9-0.8,3.6-1.6,5.1-3c2.5-2.3,5.7-8.5,5.7-8.5s-5.4-0.3-7.9,0.6c-3,1-5.2,2.6-7.6,4.3
		c-0.8,0.6-1.6,1.3-2.4,2c-0.7,0.6-2.1,2-2.1,2s3.5-5.3,4.1-5.9c3.6-3.8,5.9-10.3,5.9-10.3s-6.6,0.9-9.2,3.5
		c-3.7,3.8-7.5,11.4-7.9,14.3c0,0-3.8,0.5-5.7,1.1c-1.2,0.4-2.1,1.4-2.8,2.5c-0.4,0.6-0.3,1.3-0.6,1.9c-0.8,1.3-2.6,1.9-2.8,3.4
		c-0.2,1.4,0.9,2.5,1.5,3.8c0.4,0.9,1.7,1.2,2.6,1.6c1,0.5,2.3,0.5,3.3,1.2c0.2,0.1,0.4,0.3,0.2,0.5c-1.2,0.9-1.5,3.2-2,3.3
		c-4.3,1-8.6,2.1-11.9,4.8c-0.8,0.7-1.4,1.6-1.4,2.7C1298.6-171,1299.9-169.3,1300.6-169.4z"/>
	<path class="st5" d="M1304.9-149.5h-4.6c-0.5-2.8-0.1-7.7,7.3-10.2c0.9-0.3-10.2,2.1-10.2,2.1s1.9-6.1,1.4-9.2
		c-0.3-1.8-2.4-4.8-2.4-4.8c0.1,0,1.4,7.5-1,12.1c-0.4,0.7-2.4-3.9-2.4-3.9s0.8,5.9-1,7.7c-1.3,1.3-4.8-9.8-4.8-9.8
		s2.2,12.3-0.5,11.7c-0.9-0.2-2.9-3.9-2.9-3.9s1.2,3.8-1,5.7c-1.1-2.6-3.3-8.4-1.6-13.3c0.3-1-10.7,7.1-10.7,7.1s2.9-7,2.2-10.5
		c-0.4-2-2.5-2.9-2.5-2.9c0.1,0,1,5.9-2.4,11.2c-0.5,0.8-3.5-4.5-3.5-4.5s1.2,6.8-1.5,8.9c-1.9,1.5-3.5-4.6-3.5-4.6
		s-1.5,6.4-4.3,6.7c-0.8,0.1-2.2-1.6-3.2-2.9c3.5-4.4,7.2-9.8,8.2-14.2c0.3-1.4-13.5,12.4-13.5,12.4s2.8-9.8,2.1-14.7
		c-0.4-2.9-3.5-7.7-3.5-7.7c0.1,0,2,12-1.4,19.4c-0.5,1.1-3.5-6.2-3.5-6.2s1.2,9.5-1.4,12.4c-1.9,2.1-5-15.5-5-15.5
		s-0.1,18.1-2.8,18.6c-1.3,0.3-4.3-6.2-4.3-6.2s-0.6,6-2.3,9h-30.6c0.2-0.3,0.3-0.7,0.2-1.1c-0.3-1.1-1.4-1.8-2.9-2
		c-0.5,0-1-0.1-1.5,0c-0.3,0-0.7-0.5-0.7-0.5s1.3-2,1.9-3c1-1.9,1.4-4,1-6c-0.5-2.4-0.5-4.4-3.6-6.4c-0.3-0.2,1.5-2.8,1.5-2.8
		s0.9,0.6,1.6,1.4c0.5,0.5,1.2,0.1,1.6-0.9c1.1-3,0.3-7.6-0.4-10.7c-1-4.2-2.2-10-4.6-12.1c-0.3-0.2,0.2-0.5,0.3-0.5
		c1.9-1.2,5.3-5,5.3-6c0-1.5,1-2.7,0.2-3.6c-0.8-0.9-2.2-0.4-3.2-0.9c-0.5-0.2-0.6-0.7-1-1c-0.7-0.5-1.3-0.9-2.2-1
		c-0.6-0.1-1.2,0-1.8,0.2c-1,0.4-2.9,1.1-2.9,1.1s-0.6-5.2-1.5-7.6c-1.9-4.8-5.5-7.4-5.5-7.4l0,0c0,0-0.8,1.4-0.7,3.9
		c0.1,1.4,0.1,2.8,0.7,4.3c0.7,2,1.9,6,1.9,6s-1.9-3-3.2-4.1c-1.8-1.6-6.3-3.7-6.3-3.7s-0.3,2.5-0.1,3.7c0.3,1.9,0.8,3.9,1.9,5.5
		c1.7,2.3,3.1,4.2,4.9,5.9c1.6,1.6,5.4,3,5.6,3.8c0.2,0.6,0.1,3.7-0.2,5.5c-0.7,3.6-2.4,6.9-4,10.3c-1.8,3.6-5,6.6-6,10.6
		c-0.7,2.6-0.6,5.4,0.1,8c0.4,1.5,2.5,4,2.5,4s-1.4-0.8-2.2-0.7c-0.8,0.2-1.5,0.9-1.9,1.7c-0.6,1.3-0.8,3.1-0.1,4.4
		c0.5,0.9,1.4,1.5,2.3,1.9h-9.7h-0.1h-0.1h-0.1h-0.1h-0.1h-0.1h-0.1h-0.1h-0.1h-0.1h-0.1h-0.1h-0.1h-0.1h-0.1h-0.1h-0.1h-0.1h-0.1
		h-0.1h-0.1h-0.1h-0.1h-0.1h-0.1h-0.1h-0.1h-0.1h-0.1h-0.1h-0.1h-0.1h-0.1h-0.1h-0.1h-0.1h-0.1l-0.1,0.1l-0.1,0.1l-0.1,0.1l-0.1,0.1
		l-0.1,0.1l-0.1,0.1l-0.1,0.1l-0.1,0.1l-0.1,0.1l-0.1,0.1l-0.1,0.1l-0.1,0.1l-0.1,0.1l-0.1,0.1l-0.1,0.1l-0.1,0.1l-0.1,0.1l-0.1,0.1
		l-0.1,0.1l-0.1,0.1l-0.1,0.1l-0.1,0.1l-0.1,0.1l-0.1,0.1l-0.1,0.1l-0.1,0.1l-0.1,0.1l-0.1,0.1l-0.1,0.1l-0.1,0.1l-0.1,0.1l-0.1,0.1
		l-0.1,0.1l-0.1,0.1l-0.1,0.1l-0.1,0.1l-0.1,0.1l-0.1,0.1l-0.1,0.1l-0.1,0.1l-0.1,0.1l-0.1,0.1l-0.1,0.1l-0.1,0.1l-0.1,0.1l-0.1,0.1
		l-0.1,0.1l-0.1,0.1l-0.1,0.1l-0.1,0.1h154.4v-5.2H1304.9z M1174.1-149.5c0.5-0.2,0.9-0.4,1.2-0.6c0.4-0.3,0.3-1,0.5-1l0,0h0.1
		c0.7,0.3,3.5,1.2,6,1.7h-7.8V-149.5z M1185.4-149.5c0.2,0,0.4-0.1,0.7-0.1c0.3,0,0.5,0,0.7,0.1H1185.4z"/>
	<path class="st5" d="M62.3-522v27.8h418.1l-0.2-0.3l-0.2-0.4l-0.3-0.4l-0.3-0.4l-0.3-0.4l-0.3-0.4l-0.3-0.4l-0.3-0.4l-0.3-0.4
		l-0.3-0.4l-0.3-0.4l-0.3-0.4l-0.3-0.4l-0.3-0.4l-0.3-0.4l-0.3-0.4l-0.3-0.4l-0.3-0.4l-0.3-0.4l-0.3-0.4l-0.3-0.4l-0.3-0.4l-0.3-0.4
		l-0.3-0.4l-0.3-0.4l-0.3-0.4l-0.3-0.4l-0.3-0.4l-0.3-0.4l-0.4-0.4l-0.4-0.4l-0.4-0.3l-0.4-0.3l-0.4-0.3l-0.4-0.3l-0.4-0.3l-0.4-0.3
		l-0.4-0.3l-0.4-0.3l-0.4-0.3l-0.4-0.3l-0.4-0.3l-0.4-0.3l-0.4-0.3l-0.4-0.3l-0.4-0.3l-0.4-0.3l-0.4-0.3l-0.4-0.3l-0.4-0.3l-0.4-0.3
		l-0.4-0.3l-0.4-0.3l-0.4-0.3l-0.4-0.3l-0.4-0.3l-0.4-0.3l-0.4-0.2l-0.4-0.2l-0.4-0.2l-0.4-0.2l-0.4-0.2l-0.5-0.2l-0.5-0.2l-0.5-0.2
		l-0.5-0.2l-0.5-0.2l-0.5-0.2l-0.5-0.2l-0.5-0.2l-0.5-0.2l-0.5-0.2l-0.5-0.2l-0.5-0.2l-0.5-0.2l-0.5-0.2l-0.5-0.2l-0.5-0.2l-0.5-0.1
		l-0.5-0.1l-0.5-0.1l-0.2-0.3l-0.5-0.1l-0.5-0.1l-0.5-0.1l-0.5-0.1l-0.5-0.1l-0.5-0.1l-0.5-0.1l-0.5-0.1l-0.5-0.1l-0.5-0.1l-0.5-0.1
		l-0.5-0.1l-0.5-0.1l-0.5-0.1l-0.5-0.1l-0.5-0.1l-0.5-0.1l-0.5-0.1h-0.5H439h-0.5H438h-0.5H437h-0.5H436l0,0h-46.6
		c10.3-9.9,45-44.9,51.5-69.9c1.2-4.6-47.9,40.4-47.9,40.4s10-31.9,7.6-47.9c-1.4-9.3-12.6-25.2-12.6-25.2c0.3-0.1,7.1,39.2-5,63.1
		c-1.9,3.7-12.6-20.2-12.6-20.2s4.3,31-5,40.4c-6.8,6.8-17.7-50.4-17.7-50.4s-0.2,58.8-10.1,60.5c-4.8,0.9-15.1-20.2-15.1-20.2
		s-2.3,19.7-8.5,29.5h-32.9c2.2-1.3,4.1-3.1,5.3-5.2c2.5-4.5,1.8-10.8-0.3-15.6c-1.3-2.8-3.8-5.4-6.8-6.1c-2.6-0.6-7.8,2.4-7.8,2.4
		s7.2-8.9,8.8-14.2c2.6-9.1,2.7-19.2,0.3-28.4c-3.6-13.9-15.1-24.6-21.3-37.5c-5.7-11.8-11.5-23.6-14.1-36.5
		c-1.3-6.4-1.5-17.5-0.8-19.7c0.9-2.7,14.2-7.9,20-13.5c6.3-6.2,11.3-12.7,17.2-21c4-5.6,5.6-12.8,6.8-19.6
		c0.7-4.3-0.4-13.3-0.4-13.3s-15.9,7.4-22.3,13.3c-4.5,4.1-11.4,14.6-11.4,14.6s4.1-14.4,6.7-21.4c2-5.4,2.1-10.1,2.4-15.2
		c0.4-9-2.4-13.8-2.4-13.9c0,0-13,9.3-19.6,26.4c-3.3,8.6-5.4,27.1-5.4,27.1s-6.7-2.8-10.2-4.1c-2-0.7-4.2-0.8-6.3-0.6
		c-3.3,0.3-5.3,1.8-7.8,3.5c-1.5,1-1.7,2.7-3.5,3.6c-3.5,1.8-8.6,0-11.3,3.3c-2.7,3.3,0.9,7.6,0.8,12.8c0,3.4,12.1,16.9,18.9,21.3
		c0.3,0.2,1.9,1.1,1,1.9c-8.5,7.6-12.9,28.1-16.5,43.1c-2.7,11-5.3,27.5-1.5,38.2c1.3,3.6,4,4.9,5.6,3.2c2.5-2.7,5.8-4.9,5.8-4.9
		s6.5,9.1,5.3,9.9c-11,6.9-11.1,14.1-12.8,22.6c-1.4,7.1,0.1,14.5,3.5,21.3c2,3.8,6.6,10.8,6.6,10.8s-1.4,1.8-2.4,1.7
		c-1.7-0.3-3.7,0-5.3,0.1c-5.2,0.5-8.9,3.1-10.1,7.1c-0.2,0.8-0.2,1.6,0,2.4h-38c-3.9-10.5-8.3-27.3-3.4-41.6
		c1.2-3.6-38,25.2-38,25.2s10.1-25,7.7-37.5c-1.4-7.3-9.1-10.2-9.1-10.2c0.3-0.1,3.6,21.1-8.7,39.8c-1.9,2.9-12.5-15.9-12.5-15.9
		s4.2,24.3-5.2,31.6c-6.8,5.3-12.5-16.2-12.5-16.2S71.3-525.1,62.3-522z M260.6-525.3c0.2-0.1,0.3-0.1,0.4,0l0,0
		c0.8,0.3,0.3,2.8,1.7,3.7c0.4,0.3,0.9,0.5,1.3,0.8h-18.3C252.5-522.5,258.7-524.6,260.6-525.3z"/>
	<path class="st5" d="M654.1-538.2l-0.5,0.1l-0.5,0.1l-0.5,0.1l-0.5,0.1l-0.5,0.1l-0.5,0.1l-0.5,0.1l-0.5,0.1l-0.5,0.1l-0.5,0.1
		l-0.5,0.1l-0.5,0.1l-0.5,0.1l-0.5,0.1l-0.5,0.1l-0.5,0.1l-0.5,0.1l-0.5,0.1l-0.5,0.2l-0.5,0.2l-0.5,0.2l-0.5,0.2l-0.5,0.2l-0.5,0.2
		l-0.5,0.2l-0.5,0.2l-0.5,0.2l-0.5,0.2l-0.5,0.2l-0.5,0.2l-0.5,0.2l-0.5,0.2l-0.5,0.2l-0.5,0.2l-0.4,0.2l-0.5,0.2l-0.4,0.2l-0.4,0.2
		l-0.4,0.2l-0.4,0.3l-0.4,0.3l-0.4,0.3l-0.4,0.3l-0.4,0.3l-0.4,0.3l-0.4,0.3l-0.4,0.3l-0.4,0.3l-0.4,0.3l-0.4,0.3l-0.4,0.3l-0.4,0.3
		l-0.4,0.3l-0.4,0.3l-0.4,0.3l-0.4,0.3l-0.4,0.3l-0.4,0.3l-0.4,0.3l-0.4,0.3l-0.4,0.3l-0.4,0.3l-0.4,0.3l-0.4,0.3l-0.4,0.3l-0.4,0.4
		l-0.4,0.4l-0.4,0.4l-0.3,0.4l-0.3,0.4l-0.3,0.4l-0.3,0.4l-0.3,0.4l-0.3,0.4l-0.3,0.4L621-520l-0.3,0.4l-0.3,0.4l-0.3,0.4l-0.3,0.4
		l-0.3,0.4l-0.3,0.4l-0.3,0.4l-0.3,0.4l-0.3,0.4L618-516l-0.3,0.4l-0.3,0.4l-0.3,0.4l-0.3,0.4l0.2,0.3l-0.3,0.4l-0.3,0.4l-0.3,0.4
		l-0.2,0.4l-0.2,0.3h405.7v-27.5c-3-0.6-7.3-5.9-10.4-10.2c12.4-15.7,25.5-35,29.3-50.7c1.2-5-47.9,44.1-47.9,44.1s10-34.9,7.6-52.3
		c-1.4-10.1-12.6-27.5-12.6-27.5c0.3-0.1,7.1,42.8-5,68.9c-1.9,4.1-12.6-22-12.6-22s4.3,33.8-5,44.1c-6.8,7.4-17.7-55.1-17.7-55.1
		s-0.2,47.1-6.4,61.8h-8.9c-4.7-6.4-9.9-17.7-9.9-17.7s-1,8.7-3.2,17.7h-55.9c0.4-1,0.5-2,0.2-3c-1.2-4-4.9-6.6-10.2-7.1
		c-1.6-0.2-3.6-0.4-5.3-0.1c-1,0.2-2.4-1.7-2.4-1.7s4.7-7,6.6-10.8c3.5-6.8,4.9-14.2,3.5-21.3c-1.7-8.5-1.7-15.7-12.8-22.6
		c-1.2-0.7,5.3-9.9,5.3-9.9s3.2,2.3,5.7,4.9c1.6,1.7,4.3,0.4,5.6-3.2c3.8-10.7,1.2-27.2-1.5-38.2c-3.6-15-8-35.5-16.5-43.1
		c-0.9-0.8,0.7-1.7,1-1.9c6.8-4.4,19-17.9,18.9-21.3c-0.1-5.2,3.6-9.5,0.8-12.8c-2.7-3.3-7.8-1.5-11.3-3.3c-1.7-0.9-2-2.5-3.5-3.6
		c-2.5-1.7-4.5-3.3-7.8-3.5c-2.1-0.2-4.3-0.1-6.3,0.6c-3.4,1.3-10.1,4.1-10.1,4.1s-2.1-18.5-5.4-27.1c-6.6-17.1-19.6-26.4-19.6-26.4
		l0,0c0,0-2.8,4.9-2.4,13.9c0.3,5.1,0.4,9.8,2.4,15.2c2.6,7,6.7,21.4,6.7,21.4s-6.9-10.6-11.4-14.7c-6.4-5.8-22.3-13.3-22.3-13.3
		s-1.1,8.9-0.4,13.3c1.1,6.8,2.7,14,6.8,19.6c5.9,8.3,10.9,14.8,17.3,21c5.8,5.6,19.1,10.8,20,13.5c0.7,2.2,0.5,13.3-0.8,19.7
		c-2.6,12.9-8.4,24.7-14.1,36.5c-6.2,13-17.7,23.6-21.3,37.5c-2.4,9.2-2.3,19.3,0.3,28.4c1.6,5.3,8.8,14.2,8.8,14.2s-5.1-3-7.8-2.4
		c-3,0.7-5.5,3.3-6.8,6.1c-2.2,4.7-2.8,11-0.3,15.6c1.4,2.5,3.8,4.5,6.5,5.8h-47.5c-5.2-10.3-7.1-27.1-7.1-27.1s-10.3,21-15.1,20.2
		c-9.9-1.8-10.1-60.5-10.1-60.5s-10.9,57.2-17.7,50.4c-9.4-9.4-5-40.4-5-40.4s-10.7,23.9-12.6,20.2c-12.2-23.9-5.3-63.1-5-63.1
		c0,0-11.2,15.9-12.6,25.2c-2.5,16,7.6,47.9,7.6,47.9s-49.1-45-47.9-40.4c6.2,23.5,37.2,55.7,49.4,67.8H655L654.1-538.2z M795.9-540
		c1.4-1,1-3.4,1.7-3.7l0,0c0.1,0,0.2,0,0.4,0c2.2,0.8,9.8,3.4,17.4,5.1h-22C794.4-539,795.2-539.5,795.9-540z"/>
</g>
</svg>
