<?xml version="1.0" encoding="UTF-8" standalone="no"?><!DOCTYPE svg PUBLIC "-//W3C//DTD SVG 1.1//EN" "http://www.w3.org/Graphics/SVG/1.1/DTD/svg11.dtd"><svg width="1772px" height="1418px" version="1.1" xmlns="http://www.w3.org/2000/svg" xmlns:xlink="http://www.w3.org/1999/xlink" xml:space="preserve" xmlns:serif="http://www.serif.com/" style="fill-rule:evenodd;clip-rule:evenodd;stroke-linecap:round;stroke-linejoin:round;stroke-miterlimit:1.5;"><rect id="ArtBoard1" x="0" y="0" width="1771.65" height="1417.32" style="fill:none;"/><g id="ArtBoard11" serif:id="ArtBoard1"><g transform="matrix(0.47995,0,0,0.47995,583.926,-234.81)"><circle cx="600.094" cy="719.815" r="36.913" style="fill:none;stroke:rgb(19,13,242);stroke-width:7.81px;"/></g><g transform="matrix(0.47995,0,0,0.47995,1363.59,-234.81)"><circle cx="600.094" cy="719.815" r="36.913" style="fill:none;stroke:rgb(19,13,242);stroke-width:7.81px;"/></g><g transform="matrix(0.47995,0,0,0.47995,583.926,190.448)"><circle cx="600.094" cy="719.815" r="36.913" style="fill:none;stroke:rgb(19,13,242);stroke-width:7.81px;"/></g><g transform="matrix(0.47995,0,0,0.47995,1363.59,190.448)"><circle cx="600.094" cy="719.815" r="36.913" style="fill:none;stroke:rgb(19,13,242);stroke-width:7.81px;"/></g><g transform="matrix(0.0790988,0,0,0.0790988,836.736,494.544)"><g><path d="M297.338,522C297.338,522 310.817,539 325.676,539L326.62,539C341.479,539 354.958,522 354.958,522C354.958,522 368.438,539 383.296,539C398.155,539 411.634,522 411.634,522C411.634,522 425.113,539 439.972,539C454.831,539 468.31,522 468.31,522C468.31,522 481.789,539 496.648,539C511.507,539 524.986,522 524.986,522C524.986,522 538.465,539 553.324,539C568.183,539 581.662,522 581.662,522C581.662,522 579.968,379 439.5,379C299.032,379 297.338,522 297.338,522Z"/><path d="M330.509,538.627C329.228,538.868 327.93,539 326.62,539L325.676,539C310.817,539 297.338,522 297.338,522C297.338,522 299.032,379 439.5,379C579.968,379 581.662,522 581.662,522C581.662,522 568.183,539 553.324,539C552.248,539 551.18,538.911 550.125,538.745L559,532C579.574,504.089 541,472 541,472L542,465L552,471L555,468L550,459L559,459L559,449L537,438L535,430C535,430 520.36,443.793 518,459C515.64,474.207 525.5,472.015 526,486C526.5,499.985 515.695,508.081 503,514C490.305,519.919 479,515 479,515C530.273,451.216 480,410 480,410L490,405L488,399L439.5,414L439.5,396L431,396L431,416L354,440L356,446C356,446 380.237,456.524 383,465.5C385.763,474.476 388.41,506.79 355,513C321.59,519.21 334.711,486.917 349,483L332,454C332,454 298.408,474.391 313,509C322.108,530.603 327.638,536.925 330.509,538.627Z" style="fill:white;"/><g transform="matrix(0.857143,0,0,0.857143,62.7857,56.2072)"><path d="M439.5,327.688C322.873,327.688 228.188,422.373 228.188,539C228.188,655.627 322.873,750.313 439.5,750.313C556.127,750.313 650.813,655.627 650.813,539C650.813,422.373 556.127,327.688 439.5,327.688ZM439.5,358.313C539.224,358.313 620.188,439.276 620.188,539C620.188,638.724 539.224,719.688 439.5,719.688C339.776,719.688 258.813,638.724 258.813,539C258.813,439.276 339.776,358.313 439.5,358.313Z"/></g></g></g><g transform="matrix(0.0790988,0,0,0.0790988,907.555,494.544)"><g><path d="M297.338,522C297.338,522 310.817,539 325.676,539L326.62,539C341.479,539 354.958,522 354.958,522C354.958,522 368.438,539 383.296,539C398.155,539 411.634,522 411.634,522C411.634,522 425.113,539 439.972,539C454.831,539 468.31,522 468.31,522C468.31,522 481.789,539 496.648,539C511.507,539 524.986,522 524.986,522C524.986,522 538.465,539 553.324,539C568.183,539 581.662,522 581.662,522C581.662,522 579.968,379 439.5,379C299.032,379 297.338,522 297.338,522Z"/><path d="M330.509,538.627C329.228,538.868 327.93,539 326.62,539L325.676,539C310.817,539 297.338,522 297.338,522C297.338,522 299.032,379 439.5,379C579.968,379 581.662,522 581.662,522C581.662,522 568.183,539 553.324,539C552.248,539 551.18,538.911 550.125,538.745L559,532C579.574,504.089 541,472 541,472L542,465L552,471L555,468L550,459L559,459L559,449L537,438L535,430C535,430 520.36,443.793 518,459C515.64,474.207 525.5,472.015 526,486C526.5,499.985 515.695,508.081 503,514C490.305,519.919 479,515 479,515C530.273,451.216 480,410 480,410L490,405L488,399L439.5,414L439.5,396L431,396L431,416L354,440L356,446C356,446 380.237,456.524 383,465.5C385.763,474.476 388.41,506.79 355,513C321.59,519.21 334.711,486.917 349,483L332,454C332,454 298.408,474.391 313,509C322.108,530.603 327.638,536.925 330.509,538.627Z" style="fill:white;"/><g transform="matrix(0.857143,0,0,0.857143,62.7857,56.2072)"><path d="M439.5,327.688C322.873,327.688 228.188,422.373 228.188,539C228.188,655.627 322.873,750.313 439.5,750.313C556.127,750.313 650.813,655.627 650.813,539C650.813,422.373 556.127,327.688 439.5,327.688ZM439.5,358.313C539.224,358.313 620.188,439.276 620.188,539C620.188,638.724 539.224,719.688 439.5,719.688C339.776,719.688 258.813,638.724 258.813,539C258.813,439.276 339.776,358.313 439.5,358.313Z"/></g></g></g><g transform="matrix(0.0790988,0,0,0.0790988,978.421,494.544)"><g><path d="M297.338,522C297.338,522 310.817,539 325.676,539L326.62,539C341.479,539 354.958,522 354.958,522C354.958,522 368.438,539 383.296,539C398.155,539 411.634,522 411.634,522C411.634,522 425.113,539 439.972,539C454.831,539 468.31,522 468.31,522C468.31,522 481.789,539 496.648,539C511.507,539 524.986,522 524.986,522C524.986,522 538.465,539 553.324,539C568.183,539 581.662,522 581.662,522C581.662,522 579.968,379 439.5,379C299.032,379 297.338,522 297.338,522Z"/><path d="M330.509,538.627C329.228,538.868 327.93,539 326.62,539L325.676,539C310.817,539 297.338,522 297.338,522C297.338,522 299.032,379 439.5,379C579.968,379 581.662,522 581.662,522C581.662,522 568.183,539 553.324,539C552.248,539 551.18,538.911 550.125,538.745L559,532C579.574,504.089 541,472 541,472L542,465L552,471L555,468L550,459L559,459L559,449L537,438L535,430C535,430 520.36,443.793 518,459C515.64,474.207 525.5,472.015 526,486C526.5,499.985 515.695,508.081 503,514C490.305,519.919 479,515 479,515C530.273,451.216 480,410 480,410L490,405L488,399L439.5,414L439.5,396L431,396L431,416L354,440L356,446C356,446 380.237,456.524 383,465.5C385.763,474.476 388.41,506.79 355,513C321.59,519.21 334.711,486.917 349,483L332,454C332,454 298.408,474.391 313,509C322.108,530.603 327.638,536.925 330.509,538.627Z" style="fill:white;"/><g transform="matrix(0.857143,0,0,0.857143,62.7857,56.2072)"><path d="M439.5,327.688C322.873,327.688 228.188,422.373 228.188,539C228.188,655.627 322.873,750.313 439.5,750.313C556.127,750.313 650.813,655.627 650.813,539C650.813,422.373 556.127,327.688 439.5,327.688ZM439.5,358.313C539.224,358.313 620.188,439.276 620.188,539C620.188,638.724 539.224,719.688 439.5,719.688C339.776,719.688 258.813,638.724 258.813,539C258.813,439.276 339.776,358.313 439.5,358.313Z"/></g></g></g><g transform="matrix(0.0790988,0,0,0.0790988,1049.29,494.544)"><g><path d="M297.338,522C297.338,522 310.817,539 325.676,539L326.62,539C341.479,539 354.958,522 354.958,522C354.958,522 368.438,539 383.296,539C398.155,539 411.634,522 411.634,522C411.634,522 425.113,539 439.972,539C454.831,539 468.31,522 468.31,522C468.31,522 481.789,539 496.648,539C511.507,539 524.986,522 524.986,522C524.986,522 538.465,539 553.324,539C568.183,539 581.662,522 581.662,522C581.662,522 579.968,379 439.5,379C299.032,379 297.338,522 297.338,522Z"/><path d="M330.509,538.627C329.228,538.868 327.93,539 326.62,539L325.676,539C310.817,539 297.338,522 297.338,522C297.338,522 299.032,379 439.5,379C579.968,379 581.662,522 581.662,522C581.662,522 568.183,539 553.324,539C552.248,539 551.18,538.911 550.125,538.745L559,532C579.574,504.089 541,472 541,472L542,465L552,471L555,468L550,459L559,459L559,449L537,438L535,430C535,430 520.36,443.793 518,459C515.64,474.207 525.5,472.015 526,486C526.5,499.985 515.695,508.081 503,514C490.305,519.919 479,515 479,515C530.273,451.216 480,410 480,410L490,405L488,399L439.5,414L439.5,396L431,396L431,416L354,440L356,446C356,446 380.237,456.524 383,465.5C385.763,474.476 388.41,506.79 355,513C321.59,519.21 334.711,486.917 349,483L332,454C332,454 298.408,474.391 313,509C322.108,530.603 327.638,536.925 330.509,538.627Z" style="fill:white;"/><g transform="matrix(0.857143,0,0,0.857143,62.7857,56.2072)"><path d="M439.5,327.688C322.873,327.688 228.188,422.373 228.188,539C228.188,655.627 322.873,750.313 439.5,750.313C556.127,750.313 650.813,655.627 650.813,539C650.813,422.373 556.127,327.688 439.5,327.688ZM439.5,358.313C539.224,358.313 620.188,439.276 620.188,539C620.188,638.724 539.224,719.688 439.5,719.688C339.776,719.688 258.813,638.724 258.813,539C258.813,439.276 339.776,358.313 439.5,358.313Z"/></g></g></g><g transform="matrix(0.0790988,0,0,0.0790988,1120.15,494.544)"><g><path d="M297.338,522C297.338,522 310.817,539 325.676,539L326.62,539C341.479,539 354.958,522 354.958,522C354.958,522 368.438,539 383.296,539C398.155,539 411.634,522 411.634,522C411.634,522 425.113,539 439.972,539C454.831,539 468.31,522 468.31,522C468.31,522 481.789,539 496.648,539C511.507,539 524.986,522 524.986,522C524.986,522 538.465,539 553.324,539C568.183,539 581.662,522 581.662,522C581.662,522 579.968,379 439.5,379C299.032,379 297.338,522 297.338,522Z"/><path d="M330.509,538.627C329.228,538.868 327.93,539 326.62,539L325.676,539C310.817,539 297.338,522 297.338,522C297.338,522 299.032,379 439.5,379C579.968,379 581.662,522 581.662,522C581.662,522 568.183,539 553.324,539C552.248,539 551.18,538.911 550.125,538.745L559,532C579.574,504.089 541,472 541,472L542,465L552,471L555,468L550,459L559,459L559,449L537,438L535,430C535,430 520.36,443.793 518,459C515.64,474.207 525.5,472.015 526,486C526.5,499.985 515.695,508.081 503,514C490.305,519.919 479,515 479,515C530.273,451.216 480,410 480,410L490,405L488,399L439.5,414L439.5,396L431,396L431,416L354,440L356,446C356,446 380.237,456.524 383,465.5C385.763,474.476 388.41,506.79 355,513C321.59,519.21 334.711,486.917 349,483L332,454C332,454 298.408,474.391 313,509C322.108,530.603 327.638,536.925 330.509,538.627Z" style="fill:white;"/><g transform="matrix(0.857143,0,0,0.857143,62.7857,56.2072)"><path d="M439.5,327.688C322.873,327.688 228.188,422.373 228.188,539C228.188,655.627 322.873,750.313 439.5,750.313C556.127,750.313 650.813,655.627 650.813,539C650.813,422.373 556.127,327.688 439.5,327.688ZM439.5,358.313C539.224,358.313 620.188,439.276 620.188,539C620.188,638.724 539.224,719.688 439.5,719.688C339.776,719.688 258.813,638.724 258.813,539C258.813,439.276 339.776,358.313 439.5,358.313Z"/></g></g></g><g transform="matrix(0.0790988,0,0,0.0790988,1191.02,494.544)"><g><path d="M297.338,522C297.338,522 310.817,539 325.676,539L326.62,539C341.479,539 354.958,522 354.958,522C354.958,522 368.438,539 383.296,539C398.155,539 411.634,522 411.634,522C411.634,522 425.113,539 439.972,539C454.831,539 468.31,522 468.31,522C468.31,522 481.789,539 496.648,539C511.507,539 524.986,522 524.986,522C524.986,522 538.465,539 553.324,539C568.183,539 581.662,522 581.662,522C581.662,522 579.968,379 439.5,379C299.032,379 297.338,522 297.338,522Z"/><path d="M330.509,538.627C329.228,538.868 327.93,539 326.62,539L325.676,539C310.817,539 297.338,522 297.338,522C297.338,522 299.032,379 439.5,379C579.968,379 581.662,522 581.662,522C581.662,522 568.183,539 553.324,539C552.248,539 551.18,538.911 550.125,538.745L559,532C579.574,504.089 541,472 541,472L542,465L552,471L555,468L550,459L559,459L559,449L537,438L535,430C535,430 520.36,443.793 518,459C515.64,474.207 525.5,472.015 526,486C526.5,499.985 515.695,508.081 503,514C490.305,519.919 479,515 479,515C530.273,451.216 480,410 480,410L490,405L488,399L439.5,414L439.5,396L431,396L431,416L354,440L356,446C356,446 380.237,456.524 383,465.5C385.763,474.476 388.41,506.79 355,513C321.59,519.21 334.711,486.917 349,483L332,454C332,454 298.408,474.391 313,509C322.108,530.603 327.638,536.925 330.509,538.627Z" style="fill:white;"/><g transform="matrix(0.857143,0,0,0.857143,62.7857,56.2072)"><path d="M439.5,327.688C322.873,327.688 228.188,422.373 228.188,539C228.188,655.627 322.873,750.313 439.5,750.313C556.127,750.313 650.813,655.627 650.813,539C650.813,422.373 556.127,327.688 439.5,327.688ZM439.5,358.313C539.224,358.313 620.188,439.276 620.188,539C620.188,638.724 539.224,719.688 439.5,719.688C339.776,719.688 258.813,638.724 258.813,539C258.813,439.276 339.776,358.313 439.5,358.313Z"/></g></g></g><g transform="matrix(0.0790988,0,0,0.0790988,1261.89,494.544)"><g><path d="M297.338,522C297.338,522 310.817,539 325.676,539L326.62,539C341.479,539 354.958,522 354.958,522C354.958,522 368.438,539 383.296,539C398.155,539 411.634,522 411.634,522C411.634,522 425.113,539 439.972,539C454.831,539 468.31,522 468.31,522C468.31,522 481.789,539 496.648,539C511.507,539 524.986,522 524.986,522C524.986,522 538.465,539 553.324,539C568.183,539 581.662,522 581.662,522C581.662,522 579.968,379 439.5,379C299.032,379 297.338,522 297.338,522Z"/><path d="M330.509,538.627C329.228,538.868 327.93,539 326.62,539L325.676,539C310.817,539 297.338,522 297.338,522C297.338,522 299.032,379 439.5,379C579.968,379 581.662,522 581.662,522C581.662,522 568.183,539 553.324,539C552.248,539 551.18,538.911 550.125,538.745L559,532C579.574,504.089 541,472 541,472L542,465L552,471L555,468L550,459L559,459L559,449L537,438L535,430C535,430 520.36,443.793 518,459C515.64,474.207 525.5,472.015 526,486C526.5,499.985 515.695,508.081 503,514C490.305,519.919 479,515 479,515C530.273,451.216 480,410 480,410L490,405L488,399L439.5,414L439.5,396L431,396L431,416L354,440L356,446C356,446 380.237,456.524 383,465.5C385.763,474.476 388.41,506.79 355,513C321.59,519.21 334.711,486.917 349,483L332,454C332,454 298.408,474.391 313,509C322.108,530.603 327.638,536.925 330.509,538.627Z" style="fill:white;"/><g transform="matrix(0.857143,0,0,0.857143,62.7857,56.2072)"><path d="M439.5,327.688C322.873,327.688 228.188,422.373 228.188,539C228.188,655.627 322.873,750.313 439.5,750.313C556.127,750.313 650.813,655.627 650.813,539C650.813,422.373 556.127,327.688 439.5,327.688ZM439.5,358.313C539.224,358.313 620.188,439.276 620.188,539C620.188,638.724 539.224,719.688 439.5,719.688C339.776,719.688 258.813,638.724 258.813,539C258.813,439.276 339.776,358.313 439.5,358.313Z"/></g></g></g><g transform="matrix(0.0790988,0,0,0.0790988,1332.75,494.544)"><g><path d="M297.338,522C297.338,522 310.817,539 325.676,539L326.62,539C341.479,539 354.958,522 354.958,522C354.958,522 368.438,539 383.296,539C398.155,539 411.634,522 411.634,522C411.634,522 425.113,539 439.972,539C454.831,539 468.31,522 468.31,522C468.31,522 481.789,539 496.648,539C511.507,539 524.986,522 524.986,522C524.986,522 538.465,539 553.324,539C568.183,539 581.662,522 581.662,522C581.662,522 579.968,379 439.5,379C299.032,379 297.338,522 297.338,522Z"/><path d="M330.509,538.627C329.228,538.868 327.93,539 326.62,539L325.676,539C310.817,539 297.338,522 297.338,522C297.338,522 299.032,379 439.5,379C579.968,379 581.662,522 581.662,522C581.662,522 568.183,539 553.324,539C552.248,539 551.18,538.911 550.125,538.745L559,532C579.574,504.089 541,472 541,472L542,465L552,471L555,468L550,459L559,459L559,449L537,438L535,430C535,430 520.36,443.793 518,459C515.64,474.207 525.5,472.015 526,486C526.5,499.985 515.695,508.081 503,514C490.305,519.919 479,515 479,515C530.273,451.216 480,410 480,410L490,405L488,399L439.5,414L439.5,396L431,396L431,416L354,440L356,446C356,446 380.237,456.524 383,465.5C385.763,474.476 388.41,506.79 355,513C321.59,519.21 334.711,486.917 349,483L332,454C332,454 298.408,474.391 313,509C322.108,530.603 327.638,536.925 330.509,538.627Z" style="fill:white;"/><g transform="matrix(0.857143,0,0,0.857143,62.7857,56.2072)"><path d="M439.5,327.688C322.873,327.688 228.188,422.373 228.188,539C228.188,655.627 322.873,750.313 439.5,750.313C556.127,750.313 650.813,655.627 650.813,539C650.813,422.373 556.127,327.688 439.5,327.688ZM439.5,358.313C539.224,358.313 620.188,439.276 620.188,539C620.188,638.724 539.224,719.688 439.5,719.688C339.776,719.688 258.813,638.724 258.813,539C258.813,439.276 339.776,358.313 439.5,358.313Z"/></g></g></g><g transform="matrix(0.0790988,0,0,0.0790988,1403.62,494.544)"><g><path d="M297.338,522C297.338,522 310.817,539 325.676,539L326.62,539C341.479,539 354.958,522 354.958,522C354.958,522 368.438,539 383.296,539C398.155,539 411.634,522 411.634,522C411.634,522 425.113,539 439.972,539C454.831,539 468.31,522 468.31,522C468.31,522 481.789,539 496.648,539C511.507,539 524.986,522 524.986,522C524.986,522 538.465,539 553.324,539C568.183,539 581.662,522 581.662,522C581.662,522 579.968,379 439.5,379C299.032,379 297.338,522 297.338,522Z"/><path d="M330.509,538.627C329.228,538.868 327.93,539 326.62,539L325.676,539C310.817,539 297.338,522 297.338,522C297.338,522 299.032,379 439.5,379C579.968,379 581.662,522 581.662,522C581.662,522 568.183,539 553.324,539C552.248,539 551.18,538.911 550.125,538.745L559,532C579.574,504.089 541,472 541,472L542,465L552,471L555,468L550,459L559,459L559,449L537,438L535,430C535,430 520.36,443.793 518,459C515.64,474.207 525.5,472.015 526,486C526.5,499.985 515.695,508.081 503,514C490.305,519.919 479,515 479,515C530.273,451.216 480,410 480,410L490,405L488,399L439.5,414L439.5,396L431,396L431,416L354,440L356,446C356,446 380.237,456.524 383,465.5C385.763,474.476 388.41,506.79 355,513C321.59,519.21 334.711,486.917 349,483L332,454C332,454 298.408,474.391 313,509C322.108,530.603 327.638,536.925 330.509,538.627Z" style="fill:white;"/><g transform="matrix(0.857143,0,0,0.857143,62.7857,56.2072)"><path d="M439.5,327.688C322.873,327.688 228.188,422.373 228.188,539C228.188,655.627 322.873,750.313 439.5,750.313C556.127,750.313 650.813,655.627 650.813,539C650.813,422.373 556.127,327.688 439.5,327.688ZM439.5,358.313C539.224,358.313 620.188,439.276 620.188,539C620.188,638.724 539.224,719.688 439.5,719.688C339.776,719.688 258.813,638.724 258.813,539C258.813,439.276 339.776,358.313 439.5,358.313Z"/></g></g></g><g transform="matrix(0.0790988,0,0,0.0790988,1474.48,494.544)"><g><path d="M297.338,522C297.338,522 310.817,539 325.676,539L326.62,539C341.479,539 354.958,522 354.958,522C354.958,522 368.438,539 383.296,539C398.155,539 411.634,522 411.634,522C411.634,522 425.113,539 439.972,539C454.831,539 468.31,522 468.31,522C468.31,522 481.789,539 496.648,539C511.507,539 524.986,522 524.986,522C524.986,522 538.465,539 553.324,539C568.183,539 581.662,522 581.662,522C581.662,522 579.968,379 439.5,379C299.032,379 297.338,522 297.338,522Z"/><path d="M330.509,538.627C329.228,538.868 327.93,539 326.62,539L325.676,539C310.817,539 297.338,522 297.338,522C297.338,522 299.032,379 439.5,379C579.968,379 581.662,522 581.662,522C581.662,522 568.183,539 553.324,539C552.248,539 551.18,538.911 550.125,538.745L559,532C579.574,504.089 541,472 541,472L542,465L552,471L555,468L550,459L559,459L559,449L537,438L535,430C535,430 520.36,443.793 518,459C515.64,474.207 525.5,472.015 526,486C526.5,499.985 515.695,508.081 503,514C490.305,519.919 479,515 479,515C530.273,451.216 480,410 480,410L490,405L488,399L439.5,414L439.5,396L431,396L431,416L354,440L356,446C356,446 380.237,456.524 383,465.5C385.763,474.476 388.41,506.79 355,513C321.59,519.21 334.711,486.917 349,483L332,454C332,454 298.408,474.391 313,509C322.108,530.603 327.638,536.925 330.509,538.627Z" style="fill:white;"/><g transform="matrix(0.857143,0,0,0.857143,62.7857,56.2072)"><path d="M439.5,327.688C322.873,327.688 228.188,422.373 228.188,539C228.188,655.627 322.873,750.313 439.5,750.313C556.127,750.313 650.813,655.627 650.813,539C650.813,422.373 556.127,327.688 439.5,327.688ZM439.5,358.313C539.224,358.313 620.188,439.276 620.188,539C620.188,638.724 539.224,719.688 439.5,719.688C339.776,719.688 258.813,638.724 258.813,539C258.813,439.276 339.776,358.313 439.5,358.313Z"/></g></g></g><g transform="matrix(0.0790988,0,0,0.0790988,1545.35,494.544)"><g><path d="M297.338,522C297.338,522 310.817,539 325.676,539L326.62,539C341.479,539 354.958,522 354.958,522C354.958,522 368.438,539 383.296,539C398.155,539 411.634,522 411.634,522C411.634,522 425.113,539 439.972,539C454.831,539 468.31,522 468.31,522C468.31,522 481.789,539 496.648,539C511.507,539 524.986,522 524.986,522C524.986,522 538.465,539 553.324,539C568.183,539 581.662,522 581.662,522C581.662,522 579.968,379 439.5,379C299.032,379 297.338,522 297.338,522Z"/><path d="M330.509,538.627C329.228,538.868 327.93,539 326.62,539L325.676,539C310.817,539 297.338,522 297.338,522C297.338,522 299.032,379 439.5,379C579.968,379 581.662,522 581.662,522C581.662,522 568.183,539 553.324,539C552.248,539 551.18,538.911 550.125,538.745L559,532C579.574,504.089 541,472 541,472L542,465L552,471L555,468L550,459L559,459L559,449L537,438L535,430C535,430 520.36,443.793 518,459C515.64,474.207 525.5,472.015 526,486C526.5,499.985 515.695,508.081 503,514C490.305,519.919 479,515 479,515C530.273,451.216 480,410 480,410L490,405L488,399L439.5,414L439.5,396L431,396L431,416L354,440L356,446C356,446 380.237,456.524 383,465.5C385.763,474.476 388.41,506.79 355,513C321.59,519.21 334.711,486.917 349,483L332,454C332,454 298.408,474.391 313,509C322.108,530.603 327.638,536.925 330.509,538.627Z" style="fill:white;"/><g transform="matrix(0.857143,0,0,0.857143,62.7857,56.2072)"><path d="M439.5,327.688C322.873,327.688 228.188,422.373 228.188,539C228.188,655.627 322.873,750.313 439.5,750.313C556.127,750.313 650.813,655.627 650.813,539C650.813,422.373 556.127,327.688 439.5,327.688ZM439.5,358.313C539.224,358.313 620.188,439.276 620.188,539C620.188,638.724 539.224,719.688 439.5,719.688C339.776,719.688 258.813,638.724 258.813,539C258.813,439.276 339.776,358.313 439.5,358.313Z"/></g></g></g><g transform="matrix(0.0790988,0,0,0.0790988,1616.22,494.544)"><g><path d="M297.338,522C297.338,522 310.817,539 325.676,539L326.62,539C341.479,539 354.958,522 354.958,522C354.958,522 368.438,539 383.296,539C398.155,539 411.634,522 411.634,522C411.634,522 425.113,539 439.972,539C454.831,539 468.31,522 468.31,522C468.31,522 481.789,539 496.648,539C511.507,539 524.986,522 524.986,522C524.986,522 538.465,539 553.324,539C568.183,539 581.662,522 581.662,522C581.662,522 579.968,379 439.5,379C299.032,379 297.338,522 297.338,522Z"/><path d="M330.509,538.627C329.228,538.868 327.93,539 326.62,539L325.676,539C310.817,539 297.338,522 297.338,522C297.338,522 299.032,379 439.5,379C579.968,379 581.662,522 581.662,522C581.662,522 568.183,539 553.324,539C552.248,539 551.18,538.911 550.125,538.745L559,532C579.574,504.089 541,472 541,472L542,465L552,471L555,468L550,459L559,459L559,449L537,438L535,430C535,430 520.36,443.793 518,459C515.64,474.207 525.5,472.015 526,486C526.5,499.985 515.695,508.081 503,514C490.305,519.919 479,515 479,515C530.273,451.216 480,410 480,410L490,405L488,399L439.5,414L439.5,396L431,396L431,416L354,440L356,446C356,446 380.237,456.524 383,465.5C385.763,474.476 388.41,506.79 355,513C321.59,519.21 334.711,486.917 349,483L332,454C332,454 298.408,474.391 313,509C322.108,530.603 327.638,536.925 330.509,538.627Z" style="fill:white;"/><g transform="matrix(0.857143,0,0,0.857143,62.7857,56.2072)"><path d="M439.5,327.688C322.873,327.688 228.188,422.373 228.188,539C228.188,655.627 322.873,750.313 439.5,750.313C556.127,750.313 650.813,655.627 650.813,539C650.813,422.373 556.127,327.688 439.5,327.688ZM439.5,358.313C539.224,358.313 620.188,439.276 620.188,539C620.188,638.724 539.224,719.688 439.5,719.688C339.776,719.688 258.813,638.724 258.813,539C258.813,439.276 339.776,358.313 439.5,358.313Z"/></g></g></g></g></svg>