<?xml version="1.0" encoding="UTF-8" standalone="no"?>
<svg
   xmlns:dc="http://purl.org/dc/elements/1.1/"
   xmlns:cc="http://creativecommons.org/ns#"
   xmlns:rdf="http://www.w3.org/1999/02/22-rdf-syntax-ns#"
   xmlns:svg="http://www.w3.org/2000/svg"
   xmlns="http://www.w3.org/2000/svg"
   xmlns:sodipodi="http://sodipodi.sourceforge.net/DTD/sodipodi-0.dtd"
   xmlns:inkscape="http://www.inkscape.org/namespaces/inkscape"
   sodipodi:docname="Glück BEARBEITET.svg"
   inkscape:version="1.0 (4035a4f, 2020-05-01)"
   id="svg8"
   version="1.1"
   viewBox="0 0 300 350.00001"
   height="350mm"
   width="300mm">
  <defs
     id="defs2">
    <rect
       id="rect1057"
       height="11.227772"
       width="95.867897"
       y="70.389496"
       x="44.911087" />
    <rect
       id="rect1022"
       height="13.776735"
       width="132.90498"
       y="46.192581"
       x="18.909245" />
    <rect
       id="rect835"
       height="56.538506"
       width="185.56229"
       y="12.080878"
       x="13.047348" />
    <rect
       x="18.909245"
       y="46.192581"
       width="132.90498"
       height="13.776735"
       id="rect1022-4" />
    <rect
       x="18.909245"
       y="46.192581"
       width="132.90498"
       height="13.776735"
       id="rect1035" />
    <rect
       x="18.909245"
       y="46.192581"
       width="132.90498"
       height="13.776735"
       id="rect1022-9" />
    <rect
       x="18.909245"
       y="46.192581"
       width="132.90498"
       height="13.776735"
       id="rect1070" />
    <rect
       x="18.909245"
       y="46.192581"
       width="132.90498"
       height="13.776735"
       id="rect1022-7" />
    <rect
       x="18.909245"
       y="46.192581"
       width="132.90498"
       height="13.776735"
       id="rect1070-4" />
    <rect
       x="18.909245"
       y="46.192581"
       width="132.90498"
       height="13.776735"
       id="rect1022-40" />
    <rect
       x="18.909245"
       y="46.192581"
       width="132.90498"
       height="13.776735"
       id="rect1115" />
    <rect
       id="rect1022-40-0"
       height="13.776735"
       width="132.90498"
       y="46.192581"
       x="18.909245" />
    <rect
       id="rect1144"
       height="13.776735"
       width="132.90498"
       y="46.192581"
       x="18.909245" />
    <rect
       x="18.909245"
       y="46.192581"
       width="132.90498"
       height="13.776735"
       id="rect1022-40-0-0" />
    <rect
       x="18.909245"
       y="46.192581"
       width="132.90498"
       height="13.776735"
       id="rect1174" />
    <rect
       id="rect1022-40-0-0-7"
       height="13.776735"
       width="132.90498"
       y="46.192581"
       x="18.909245" />
    <rect
       id="rect1204"
       height="13.776735"
       width="132.90498"
       y="46.192581"
       x="18.909245" />
    <rect
       id="rect84"
       height="254.75595"
       width="224.51786"
       y="31.75"
       x="195.79167" />
  </defs>
  <sodipodi:namedview
     inkscape:window-maximized="0"
     inkscape:window-y="23"
     inkscape:window-x="0"
     inkscape:window-height="808"
     inkscape:window-width="1440"
     fit-margin-bottom="0"
     fit-margin-right="0"
     fit-margin-left="0"
     fit-margin-top="0"
     showgrid="false"
     inkscape:document-rotation="0"
     inkscape:current-layer="layer1"
     inkscape:document-units="mm"
     inkscape:cy="785.52789"
     inkscape:cx="905.04054"
     inkscape:zoom="0.31358545"
     inkscape:pageshadow="2"
     inkscape:pageopacity="0.0"
     borderopacity="1.0"
     bordercolor="#666666"
     pagecolor="#ffffff"
     id="base" />
  <metadata
     id="metadata5">
    <rdf:RDF>
      <cc:Work
         rdf:about="">
        <dc:format>image/svg+xml</dc:format>
        <dc:type
           rdf:resource="http://purl.org/dc/dcmitype/StillImage" />
        <dc:title></dc:title>
      </cc:Work>
    </rdf:RDF>
  </metadata>
  <g
     transform="translate(368.3504,441.82898)"
     id="layer1"
     inkscape:groupmode="layer"
     inkscape:label="Ebene 1">
    <g
       style="fill:none;stroke:#ee0c0c;stroke-opacity:1"
       transform="translate(-505.87087,-421.71398)"
       id="layer1-5"
       inkscape:label="Ebene 1">
      <path
         d="m 250.93039,45.129576 h -1.87731 q 0.17382,-1.573855 0.17382,-2.779362 0,-4.520649 -2.43355,-6.5968 -2.39879,-2.076151 -5.94482,-2.076151 -4.90187,0 -9.83851,3.214685 -4.93663,3.181199 -8.10026,8.907355 -3.12885,5.726157 -3.12885,11.954607 0,6.32891 3.0941,9.30919 3.12885,2.980281 6.98777,2.980281 2.29449,0 4.38039,-0.569267 2.12067,-0.602753 4.03274,-1.741288 1.5992,-5.257348 1.5992,-6.998635 0,-0.837158 -0.66054,-1.305966 -0.62576,-0.502295 -2.25972,-0.502295 -0.55625,0 -2.67692,0.167432 l 0.3129,-1.640829 q 1.52965,-0.267889 3.09407,-0.267889 1.25155,0 3.0941,0.06697 1.42536,0.03349 2.12067,0.03349 1.25154,0 3.82415,-0.200918 1.35584,-0.100453 2.32926,-0.133947 l -0.38243,1.707801 q -1.73824,-0.03349 -2.46831,0.736698 -0.73007,0.736699 -1.52965,3.917897 -2.85074,11.418827 -5.63194,16.508744 -2.78121,5.123403 -6.32725,7.333499 -3.54602,2.243582 -7.6483,2.243582 -3.47651,0 -5.63194,-1.54037 -2.12066,-1.506884 -2.12066,-3.181198 0,-0.90413 0.66054,-1.54037 0.69529,-0.63624 1.56442,-0.63624 1.18201,0 2.67691,1.607343 1.70349,1.80826 2.64213,2.34404 0.97344,0.535781 2.05115,0.535781 2.1902,0 3.85891,-1.640828 3.40698,-3.248171 6.70966,-15.035347 -2.29449,1.205507 -4.65851,1.80826 -2.36403,0.636239 -4.83234,0.636239 -6.11866,0 -9.62992,-3.114225 -4.69329,-4.152301 -4.69329,-11.586258 0,-6.764232 3.54604,-12.724793 3.58081,-5.960561 9.90804,-9.811485 6.362,-3.850924 12.06347,-3.850924 3.09408,0 7.26588,0.937616 4.20658,0.904131 6.39678,0.937618 -1.91208,6.362395 -1.91208,11.586257 z"
         style="font-style:normal;font-variant:normal;font-weight:normal;font-stretch:normal;font-size:50.79999999999999716px;line-height:0.55;font-family:'Monotype Corsiva';-inkscape-font-specification:'Monotype Corsiva';text-align:center;text-anchor:middle;stroke-width:0.363943;fill:none;stroke:#ee0c0c;stroke-opacity:1"
         id="path88" />
      <path
         d="m 264.6495,70.373267 0.84336,0.892968 q -1.93477,2.182813 -4.58887,3.993555 -2.6293,1.785938 -4.34082,1.785938 -0.76895,0 -1.26504,-0.595313 -0.49609,-0.570508 -0.49609,-1.5875 0,-1.984375 1.53789,-8.235156 l 2.6789,-10.889258 q 1.46348,-5.903515 2.45567,-7.912695 1.53789,-3.050976 4.34082,-4.737695 2.82773,-1.686719 5.95312,-1.686719 1.0666,0 1.66192,0.520899 0.62011,0.496093 0.62011,1.215429 0,0.79375 -0.59531,1.314649 -0.59531,0.496093 -1.73633,0.496093 -0.74414,0 -2.1084,-0.248046 -1.19062,-0.198438 -2.20761,-0.198438 -1.01699,0 -1.53789,0.42168 -0.71934,0.595312 -1.31465,2.505273 -0.57051,1.909961 -1.88516,7.540625 l -2.45566,10.393164 q -1.83555,7.813476 -1.83555,8.160742 0,0.79375 0.57051,0.79375 0.5457,0 1.5875,-0.644922 2.05879,-1.289844 4.11758,-3.299023 z"
         style="font-style:normal;font-variant:normal;font-weight:normal;font-stretch:normal;font-size:50.79999999999999716px;line-height:0.55;font-family:'Monotype Corsiva';-inkscape-font-specification:'Monotype Corsiva';text-align:center;text-anchor:middle;stroke-width:0.264583;fill:none;stroke:#ee0c0c;stroke-opacity:1"
         id="path90" />
      <path
         d="m 283.30262,56.160181 h 3.52227 l -2.33164,8.656836 q -2.05879,7.540625 -2.05879,8.582422 0,0.471289 0.22324,0.719335 0.22324,0.248047 0.49609,0.248047 0.42168,0 0.99219,-0.37207 0.81856,-0.570508 3.10059,-2.877344 l 0.81855,0.917774 q -4.98574,5.184179 -7.34219,5.184179 -0.79375,0 -1.36425,-0.620117 -0.54571,-0.595312 -0.54571,-1.711523 0,-1.289844 0.54571,-3.447852 -2.20762,2.530078 -5.45704,4.440039 -2.158,1.265039 -3.7455,1.265039 -0.86817,0 -1.36426,-0.570508 -0.49609,-0.570507 -0.49609,-1.810742 0,-0.967382 0.22324,-2.083593 0.32246,-1.562696 1.63711,-6.275586 1.66191,-5.97793 1.66191,-7.168555 0,-0.694531 -0.49609,-0.694531 -0.44649,0 -1.21543,0.471289 -0.76895,0.446484 -2.6293,2.207617 l -1.09141,-0.868164 q 3.32383,-2.976562 5.06016,-3.894336 1.76113,-0.942578 2.82774,-0.942578 0.59531,0 0.96738,0.446484 0.37207,0.42168 0.37207,1.339454 0,1.711523 -1.78594,8.408789 -1.5875,6.027538 -1.5875,6.870898 0,0.520898 0.32246,0.892969 0.34727,0.37207 0.74414,0.37207 1.38906,0 3.94395,-2.282031 2.55488,-2.306836 3.34863,-5.233789 z m -5.33301,-8.259961 q 0.94258,0 1.61231,0.669727 0.69453,0.669726 0.69453,1.637109 0,0.942578 -0.69453,1.637109 -0.66973,0.669727 -1.61231,0.669727 -0.94257,0 -1.63711,-0.669727 -0.66972,-0.694531 -0.66972,-1.637109 0,-0.967383 0.66972,-1.637109 0.69454,-0.669727 1.63711,-0.669727 z m 7.16856,0.02481 q 0.96738,0 1.63711,0.669726 0.66972,0.669727 0.66972,1.612305 0,0.967383 -0.66972,1.637109 -0.66973,0.669727 -1.63711,0.669727 -0.94258,0 -1.61231,-0.669727 -0.66972,-0.669726 -0.66972,-1.637109 0,-0.942578 0.66972,-1.612305 0.66973,-0.669726 1.61231,-0.669726 z"
         style="font-style:normal;font-variant:normal;font-weight:normal;font-stretch:normal;font-size:50.79999999999999716px;line-height:0.55;font-family:'Monotype Corsiva';-inkscape-font-specification:'Monotype Corsiva';text-align:center;text-anchor:middle;stroke-width:0.264583;fill:none;stroke:#ee0c0c;stroke-opacity:1"
         id="path92" />
      <path
         d="m 303.56805,70.968579 0.5209,1.438672 q -5.90352,4.638477 -9.97149,4.638477 -2.158,0 -3.15019,-1.537891 -0.96739,-1.537891 -0.96739,-3.894336 0,-3.919141 2.0836,-8.061523 2.08359,-4.142383 5.06015,-6.35 2.33165,-1.711524 5.2586,-1.711524 1.83555,0 2.77812,0.694532 0.94258,0.694531 0.94258,1.686718 0,0.768946 -0.49609,1.265039 -0.4961,0.471289 -1.38906,0.471289 -0.86817,0 -2.23243,-0.79375 -1.41386,-0.843359 -2.35644,-0.843359 -1.21543,0 -2.43086,1.116211 -1.19063,1.091406 -2.28203,4.266406 -1.09141,3.175 -1.09141,6.374805 0,2.356445 0.91777,3.646289 0.66973,0.992187 1.88516,0.992187 2.90215,0 6.92051,-3.398242 z"
         style="font-style:normal;font-variant:normal;font-weight:normal;font-stretch:normal;font-size:50.79999999999999716px;line-height:0.55;font-family:'Monotype Corsiva';-inkscape-font-specification:'Monotype Corsiva';text-align:center;text-anchor:middle;stroke-width:0.264583;fill:none;stroke:#ee0c0c;stroke-opacity:1"
         id="path94" />
      <path
         d="m 311.05907,76.351196 h -3.6959 l 3.24942,-13.518554 q 2.35644,-10.045898 3.07578,-12.377539 0.74414,-2.331641 1.76113,-3.844727 1.0418,-1.513085 2.57969,-2.70371 1.56269,-1.190625 3.34863,-1.810743 1.81074,-0.644921 3.175,-0.644921 1.28984,0 1.90996,0.496093 0.64492,0.496094 0.64492,1.314649 0,0.694531 -0.5705,1.190625 -0.57051,0.496093 -1.43868,0.496093 -1.0914,0 -3.29902,-0.37207 -0.71934,-0.148828 -1.26504,-0.148828 -0.76894,0 -1.46348,0.545703 -0.66972,0.545703 -1.21543,1.95957 -0.52089,1.389063 -1.48828,5.804297 l -1.76113,7.9375 q 2.38125,-2.703711 4.93613,-4.167187 1.93477,-1.091407 3.6959,-1.091407 1.24024,0 2.0836,0.942578 0.86816,0.917774 0.86816,2.331641 0,2.654102 -2.75332,4.737695 -2.75332,2.083594 -8.40879,2.232422 1.90996,0.843359 3.05098,1.860352 1.14101,0.992187 2.23242,2.778125 1.11621,1.761132 2.85254,5.92832 2.05879,4.960937 3.81992,6.598047 1.73633,1.637109 3.81992,1.637109 1.21543,0 2.00918,-0.545703 0.79375,-0.520899 0.79375,-1.066602 0,-0.347265 -0.24805,-0.942578 -0.27285,-0.644922 -0.27285,-1.091406 0,-0.570508 0.44649,-1.016992 0.44648,-0.446485 1.04179,-0.446485 0.69454,0 1.19063,0.545704 0.49609,0.570507 0.49609,1.488281 0,1.785937 -1.63711,3.175 -1.63711,1.389062 -4.2664,1.389062 -2.70371,0 -4.83692,-1.364258 -2.1332,-1.364257 -3.99355,-4.365625 -1.0666,-1.736328 -3.7207,-7.912695 -1.24024,-2.926953 -2.23243,-4.390429 -0.76894,-1.141016 -2.10839,-2.257227 z m 2.60449,-11.732617 q 3.34864,0.02481 5.40742,-0.644922 2.0836,-0.669726 2.95176,-1.785937 0.89297,-1.116211 0.89297,-2.430859 0,-0.942579 -0.5209,-1.513086 -0.49609,-0.570508 -1.21543,-0.570508 -2.33164,0 -7.14375,5.208984 z"
         style="font-style:normal;font-variant:normal;font-weight:normal;font-stretch:normal;font-size:50.79999999999999716px;line-height:0.55;font-family:'Monotype Corsiva';-inkscape-font-specification:'Monotype Corsiva';text-align:center;text-anchor:middle;stroke-width:0.264583;fill:none;stroke:#ee0c0c;stroke-opacity:1"
         id="path96" />
      <path
         d="m 357.03042,76.351196 h -1.39733 v -7.896143 h 1.39733 z m 0,-9.39269 h -1.39733 v -1.521351 h 1.39733 z"
         style="font-style:normal;font-variant:normal;font-weight:normal;font-stretch:normal;font-size:16.93329999999999913px;line-height:0.55;font-family:Latha;-inkscape-font-specification:Latha;text-align:center;text-anchor:middle;stroke-width:0.264583;fill:none;stroke:#ee0c0c;stroke-opacity:1"
         id="path98" />
      <path
         d="m 361.9252,76.541365 q -3.22461,0 -3.39824,-2.546609 h 1.41386 q 0.008,1.438669 1.96784,1.438669 0.43821,0 0.76894,-0.09095 0.339,-0.09922 0.56224,-0.264582 0.22324,-0.173633 0.339,-0.396875 0.11575,-0.23151 0.11575,-0.504361 0,-0.281119 -0.091,-0.454751 -0.0827,-0.173633 -0.33899,-0.305924 -0.24805,-0.132292 -0.69453,-0.256315 -0.44649,-0.132291 -1.16582,-0.32246 -0.7028,-0.173633 -1.21543,-0.347265 -0.50436,-0.173633 -0.83509,-0.421679 -0.32246,-0.248046 -0.47956,-0.611848 -0.15709,-0.363801 -0.15709,-0.917771 0,-0.487825 0.2067,-0.901236 0.20671,-0.421678 0.58705,-0.727602 0.3886,-0.305924 0.93431,-0.479557 0.5457,-0.173632 1.21542,-0.173632 3.11712,0 3.16673,2.215881 h -1.38906 q -0.0744,-1.107941 -1.67018,-1.107941 -0.35553,0 -0.66146,0.07441 -0.29765,0.06615 -0.5209,0.198437 -0.22324,0.132292 -0.34726,0.330729 -0.12402,0.190169 -0.12402,0.446483 0,0.23151 0.0579,0.380338 0.0579,0.148828 0.27286,0.281119 0.22324,0.124024 0.65318,0.248047 0.42995,0.124023 1.17409,0.305924 0.71933,0.173632 1.2485,0.363801 0.52917,0.181901 0.87643,0.446484 0.35553,0.264582 0.5209,0.64492 0.17363,0.380338 0.17363,0.950845 0,0.537434 -0.22324,0.992185 -0.22324,0.454752 -0.63665,0.793749 -0.40515,0.338996 -0.99219,0.529165 -0.58704,0.190169 -1.31464,0.190169 z"
         style="font-style:normal;font-variant:normal;font-weight:normal;font-stretch:normal;font-size:16.93329999999999913px;line-height:0.55;font-family:Latha;-inkscape-font-specification:Latha;text-align:center;text-anchor:middle;stroke-width:0.264583;fill:none;stroke:#ee0c0c;stroke-opacity:1"
         id="path100" />
      <path
         d="m 369.81307,76.359465 q -0.23151,0.05788 -0.48782,0.08268 -0.24805,0.0248 -0.5209,0.0248 -0.62838,0 -1.00045,-0.148828 -0.3638,-0.157096 -0.56224,-0.463019 -0.19017,-0.305924 -0.24805,-0.760676 -0.0579,-0.454752 -0.0579,-1.058331 v -4.48964 h -0.97565 v -1.091404 h 0.97565 v -1.967835 h 1.40559 v 1.967835 h 1.28984 v 1.091404 h -1.28984 v 4.555785 q 0,0.413411 0.0496,0.661457 0.0579,0.248047 0.1571,0.380338 0.0992,0.132292 0.23977,0.173633 0.14056,0.04134 0.32247,0.04134 0.19016,0 0.3638,-0.01654 0.17363,-0.01654 0.33899,-0.04134 z"
         style="font-style:normal;font-variant:normal;font-weight:normal;font-stretch:normal;font-size:16.93329999999999913px;line-height:0.55;font-family:Latha;-inkscape-font-specification:Latha;text-align:center;text-anchor:middle;stroke-width:0.264583;fill:none;stroke:#ee0c0c;stroke-opacity:1"
         id="path102" />
      <path
         d="m 372.81443,76.351196 q 0,0.975649 -0.3886,1.562693 -0.38034,0.587043 -1.13275,0.587043 v -0.711067 q 0.75241,0 0.75241,-1.438669 h -0.75241 v -1.521351 h 1.52135 z"
         style="font-style:normal;font-variant:normal;font-weight:normal;font-stretch:normal;font-size:16.93329999999999913px;line-height:0.55;font-family:Latha;-inkscape-font-specification:Latha;text-align:center;text-anchor:middle;stroke-width:0.264583;fill:none;stroke:#ee0c0c;stroke-opacity:1"
         id="path104" />
      <path
         d="m 237.19907,104.2912 h -8.63201 v -1.35599 l 6.77167,-8.259945 h -6.15155 v -1.29811 h 7.81346 v 1.364256 l -6.77167,8.251679 h 6.9701 z"
         style="font-style:normal;font-variant:normal;font-weight:normal;font-stretch:normal;font-size:16.93329999999999913px;line-height:0.55;font-family:Latha;-inkscape-font-specification:Latha;text-align:center;text-anchor:middle;stroke-width:0.264583;fill:none;stroke:#ee0c0c;stroke-opacity:1"
         id="path106" />
      <path
         d="m 242.00291,104.48137 q -0.8599,0 -1.57096,-0.27286 -0.71107,-0.28111 -1.2237,-0.81028 -0.50436,-0.53743 -0.78548,-1.30638 -0.28112,-0.76894 -0.28112,-1.75286 0,-0.96738 0.27285,-1.728056 0.27285,-0.768944 0.76068,-1.306377 0.48782,-0.537434 1.17408,-0.818554 0.68626,-0.289387 1.50482,-0.289387 0.85162,0 1.53789,0.281119 0.68626,0.28112 1.16581,0.818553 0.48783,0.529166 0.74414,1.29811 0.26459,0.768944 0.26459,1.744592 v 0.339 h -5.95312 q 0.0496,0.68626 0.23978,1.19062 0.19844,0.50436 0.51263,0.84336 0.32246,0.33073 0.73587,0.49609 0.41341,0.16536 0.90124,0.16536 0.34726,0 0.69453,-0.0909 0.34726,-0.0992 0.62011,-0.28111 0.28112,-0.18191 0.45475,-0.44649 0.17364,-0.27285 0.1819,-0.62011 h 1.47175 q -0.0909,0.61184 -0.38861,1.0914 -0.28939,0.47129 -0.74414,0.79375 -0.44648,0.32246 -1.03353,0.48782 -0.58704,0.17364 -1.25676,0.17364 z m 2.07532,-4.911323 q -0.16537,-1.124477 -0.76895,-1.694984 -0.59531,-0.570506 -1.4552,-0.570506 -0.42168,0 -0.79375,0.140559 -0.37207,0.14056 -0.66146,0.421679 -0.28939,0.281119 -0.48782,0.711066 -0.19844,0.421679 -0.28112,0.992186 z"
         style="font-style:normal;font-variant:normal;font-weight:normal;font-stretch:normal;font-size:16.93329999999999913px;line-height:0.55;font-family:Latha;-inkscape-font-specification:Latha;text-align:center;text-anchor:middle;stroke-width:0.264583;fill:none;stroke:#ee0c0c;stroke-opacity:1"
         id="path108" />
      <path
         d="M 248.55133,104.2912 H 247.154 v -7.896147 h 1.39733 z m 0,-9.392693 H 247.154 v -1.521352 h 1.39733 z"
         style="font-style:normal;font-variant:normal;font-weight:normal;font-stretch:normal;font-size:16.93329999999999913px;line-height:0.55;font-family:Latha;-inkscape-font-specification:Latha;text-align:center;text-anchor:middle;stroke-width:0.264583;fill:none;stroke:#ee0c0c;stroke-opacity:1"
         id="path110" />
      <path
         d="m 253.69416,104.29946 q -0.23151,0.0579 -0.48783,0.0827 -0.24804,0.0248 -0.52089,0.0248 -0.62839,0 -1.00046,-0.14883 -0.3638,-0.15709 -0.56224,-0.46302 -0.19016,-0.30592 -0.24804,-0.76067 -0.0579,-0.45475 -0.0579,-1.05833 v -4.489643 h -0.97565 v -1.091404 h 0.97565 v -1.967835 h 1.4056 v 1.967835 h 1.28984 v 1.091404 h -1.28984 v 4.555783 q 0,0.41341 0.0496,0.66146 0.0579,0.24805 0.15709,0.38034 0.0992,0.13229 0.23978,0.17363 0.14056,0.0413 0.32246,0.0413 0.19017,0 0.3638,-0.0165 0.17363,-0.0165 0.339,-0.0413 z"
         style="font-style:normal;font-variant:normal;font-weight:normal;font-stretch:normal;font-size:16.93329999999999913px;line-height:0.55;font-family:Latha;-inkscape-font-specification:Latha;text-align:center;text-anchor:middle;stroke-width:0.264583;fill:none;stroke:#ee0c0c;stroke-opacity:1"
         id="path112" />
      <path
         d="m 275.33207,104.2912 h -1.42213 v -5.101491 q 0,-0.496093 -0.0661,-0.843358 -0.0661,-0.347265 -0.21497,-0.562238 -0.14056,-0.223242 -0.37207,-0.314192 -0.23151,-0.09922 -0.56224,-0.09922 -1.03353,0 -2.02571,1.256769 v 5.66373 h -1.38079 v -5.101492 q 0,-0.496093 -0.0744,-0.843358 -0.0661,-0.347265 -0.21497,-0.562238 -0.14883,-0.223242 -0.38034,-0.314192 -0.23151,-0.09922 -0.56224,-0.09922 -1.01699,0 -2.00917,1.256769 v 5.663731 h -1.39733 v -7.896149 h 1.39733 v 1.000454 q 1.01699,-1.198891 2.22415,-1.198891 1.71979,0 2.20761,1.438669 0.40514,-0.471288 0.7276,-0.752407 0.33073,-0.289388 0.61185,-0.438216 0.28112,-0.157096 0.53743,-0.198437 0.26459,-0.04961 0.53744,-0.04961 2.43912,0 2.43912,2.926947 z"
         style="font-style:normal;font-variant:normal;font-weight:normal;font-stretch:normal;font-size:16.93329999999999913px;line-height:0.55;font-family:Latha;-inkscape-font-specification:Latha;text-align:center;text-anchor:middle;stroke-width:0.264583;fill:none;stroke:#ee0c0c;stroke-opacity:1"
         id="path114" />
      <path
         d="m 278.77991,104.2912 h -1.39732 v -7.896147 h 1.39732 z m 0,-9.392693 h -1.39732 v -1.521352 h 1.39732 z"
         style="font-style:normal;font-variant:normal;font-weight:normal;font-stretch:normal;font-size:16.93329999999999913px;line-height:0.55;font-family:Latha;-inkscape-font-specification:Latha;text-align:center;text-anchor:middle;stroke-width:0.264583;fill:none;stroke:#ee0c0c;stroke-opacity:1"
         id="path116" />
      <path
         d="m 283.92274,104.29946 q -0.23151,0.0579 -0.48782,0.0827 -0.24805,0.0248 -0.5209,0.0248 -0.62838,0 -1.00045,-0.14883 -0.3638,-0.15709 -0.56224,-0.46302 -0.19017,-0.30592 -0.24805,-0.76067 -0.0579,-0.45475 -0.0579,-1.05833 v -4.489643 h -0.97564 v -1.091404 h 0.97564 v -1.967835 h 1.4056 v 1.967835 h 1.28984 v 1.091404 H 282.451 v 4.555783 q 0,0.41341 0.0496,0.66146 0.0579,0.24805 0.1571,0.38034 0.0992,0.13229 0.23977,0.17363 0.14056,0.0413 0.32246,0.0413 0.19017,0 0.36381,-0.0165 0.17363,-0.0165 0.33899,-0.0413 z"
         style="font-style:normal;font-variant:normal;font-weight:normal;font-stretch:normal;font-size:16.93329999999999913px;line-height:0.55;font-family:Latha;-inkscape-font-specification:Latha;text-align:center;text-anchor:middle;stroke-width:0.264583;fill:none;stroke:#ee0c0c;stroke-opacity:1"
         id="path118" />
      <path
         d="m 305.32915,104.2912 h -1.38079 v -9.276938 l -3.11712,9.276938 h -1.29811 l -3.10885,-9.276938 v 9.276938 h -1.37252 V 93.377155 h 2.18281 l 2.94348,9.095035 2.97656,-9.095035 h 2.17454 z"
         style="font-style:normal;font-variant:normal;font-weight:normal;font-stretch:normal;font-size:16.93329999999999913px;line-height:0.55;font-family:Latha;-inkscape-font-specification:Latha;text-align:center;text-anchor:middle;stroke-width:0.264583;fill:none;stroke:#ee0c0c;stroke-opacity:1"
         id="path120" />
      <path
         d="m 310.9598,104.48137 q -0.85989,0 -1.57096,-0.27286 -0.71107,-0.28111 -1.22369,-0.81028 -0.50437,-0.53743 -0.78548,-1.30638 -0.28112,-0.76894 -0.28112,-1.75286 0,-0.96738 0.27285,-1.728056 0.27285,-0.768944 0.76067,-1.306377 0.48783,-0.537434 1.17409,-0.818554 0.68626,-0.289387 1.50481,-0.289387 0.85163,0 1.53789,0.281119 0.68626,0.28112 1.16582,0.818553 0.48782,0.529166 0.74414,1.29811 0.26458,0.768944 0.26458,1.744592 v 0.339 h -5.95311 q 0.0496,0.68626 0.23978,1.19062 0.19843,0.50436 0.51263,0.84336 0.32246,0.33073 0.73587,0.49609 0.41341,0.16536 0.90123,0.16536 0.34727,0 0.69453,-0.0909 0.34727,-0.0992 0.62012,-0.28111 0.28112,-0.18191 0.45475,-0.44649 0.17363,-0.27285 0.1819,-0.62011 h 1.47174 q -0.0909,0.61184 -0.3886,1.0914 -0.28939,0.47129 -0.74414,0.79375 -0.44649,0.32246 -1.03353,0.48782 -0.58704,0.17364 -1.25677,0.17364 z m 2.07532,-4.911323 q -0.16536,-1.124477 -0.76894,-1.694984 -0.59531,-0.570506 -1.45521,-0.570506 -0.42168,0 -0.79374,0.140559 -0.37207,0.14056 -0.66146,0.421679 -0.28939,0.281119 -0.48783,0.711066 -0.19843,0.421679 -0.28112,0.992186 z"
         style="font-style:normal;font-variant:normal;font-weight:normal;font-stretch:normal;font-size:16.93329999999999913px;line-height:0.55;font-family:Latha;-inkscape-font-specification:Latha;text-align:center;text-anchor:middle;stroke-width:0.264583;fill:none;stroke:#ee0c0c;stroke-opacity:1"
         id="path122" />
      <path
         d="m 317.50822,97.395507 q 0.5209,-0.60358 1.11621,-0.901235 0.59531,-0.297656 1.24023,-0.297656 2.6789,0 2.6789,2.926947 v 5.167637 h -1.41386 v -5.101491 q 0,-0.487824 -0.0827,-0.835089 -0.0827,-0.347265 -0.26459,-0.562239 -0.17363,-0.223242 -0.45475,-0.32246 -0.27285,-0.09922 -0.66146,-0.09922 -1.07486,0 -2.158,1.256769 v 5.66373 h -1.39733 v -7.896148 h 1.39733 z"
         style="font-style:normal;font-variant:normal;font-weight:normal;font-stretch:normal;font-size:16.93329999999999913px;line-height:0.55;font-family:Latha;-inkscape-font-specification:Latha;text-align:center;text-anchor:middle;stroke-width:0.264583;fill:none;stroke:#ee0c0c;stroke-opacity:1"
         id="path124" />
      <path
         d="m 327.43008,104.48137 q -3.2246,0 -3.39824,-2.54661 h 1.41387 q 0.008,1.43866 1.96783,1.43866 0.43822,0 0.76895,-0.0909 0.33899,-0.0992 0.56223,-0.26458 0.22325,-0.17363 0.339,-0.39687 0.11576,-0.23151 0.11576,-0.50436 0,-0.28112 -0.091,-0.45476 -0.0827,-0.17363 -0.339,-0.30592 -0.24805,-0.13229 -0.69453,-0.25631 -0.44648,-0.1323 -1.16582,-0.32246 -0.7028,-0.17364 -1.21543,-0.34727 -0.50436,-0.17363 -0.83509,-0.42168 -0.32246,-0.248044 -0.47955,-0.611846 -0.1571,-0.363801 -0.1571,-0.917771 0,-0.487825 0.20671,-0.901235 0.2067,-0.421679 0.58704,-0.727603 0.38861,-0.305924 0.93431,-0.479556 0.5457,-0.173633 1.21543,-0.173633 3.11711,0 3.16672,2.215881 h -1.38906 q -0.0744,-1.10794 -1.67018,-1.10794 -0.35553,0 -0.66145,0.07441 -0.29766,0.06615 -0.5209,0.198438 -0.22324,0.132291 -0.34727,0.330728 -0.12402,0.190169 -0.12402,0.446484 0,0.23151 0.0579,0.380337 0.0579,0.148828 0.27285,0.28112 0.22324,0.124023 0.65319,0.248046 0.42994,0.124023 1.17408,0.305924 0.71934,0.173632 1.2485,0.363801 0.52917,0.181905 0.87643,0.446485 0.35554,0.26458 0.5209,0.64492 0.17363,0.38034 0.17363,0.95085 0,0.53743 -0.22324,0.99218 -0.22324,0.45475 -0.63665,0.79375 -0.40514,0.339 -0.99219,0.52917 -0.58704,0.19017 -1.31464,0.19017 z"
         style="font-style:normal;font-variant:normal;font-weight:normal;font-stretch:normal;font-size:16.93329999999999913px;line-height:0.55;font-family:Latha;-inkscape-font-specification:Latha;text-align:center;text-anchor:middle;stroke-width:0.264583;fill:none;stroke:#ee0c0c;stroke-opacity:1"
         id="path126" />
      <path
         d="m 335.45025,104.48137 q -0.82682,0 -1.51308,-0.27286 -0.678,-0.28111 -1.17409,-0.80201 -0.48783,-0.52917 -0.76068,-1.29811 -0.26458,-0.77721 -0.26458,-1.7694 0,-0.975648 0.26458,-1.744592 0.26459,-0.777212 0.75241,-1.306378 0.48783,-0.529165 1.17409,-0.810285 0.68626,-0.281119 1.52135,-0.281119 0.63665,0 1.18235,0.165364 0.5457,0.165365 0.95912,0.496093 0.42167,0.32246 0.68626,0.802017 0.27285,0.479556 0.35553,1.099672 h -1.44694 q -0.0165,-0.355533 -0.15709,-0.628384 -0.14056,-0.272851 -0.37207,-0.454752 -0.23151,-0.181901 -0.5457,-0.272851 -0.30593,-0.09922 -0.66146,-0.09922 -0.50436,0 -0.91777,0.190168 -0.41341,0.190169 -0.71107,0.570507 -0.29766,0.380338 -0.46302,0.950845 -0.16536,0.570506 -0.16536,1.322915 0,0.75241 0.16536,1.32291 0.16536,0.57051 0.46302,0.95085 0.29766,0.38034 0.71107,0.57051 0.41341,0.19016 0.91777,0.19016 0.33073,0 0.63665,-0.0909 0.31419,-0.091 0.5457,-0.26458 0.23978,-0.1819 0.38861,-0.44648 0.14883,-0.27285 0.16536,-0.63665 h 1.44694 q -0.0827,0.62838 -0.35553,1.10794 -0.27285,0.47128 -0.69453,0.79374 -0.41341,0.32247 -0.95912,0.47956 -0.5457,0.16537 -1.17408,0.16537 z"
         style="font-style:normal;font-variant:normal;font-weight:normal;font-stretch:normal;font-size:16.93329999999999913px;line-height:0.55;font-family:Latha;-inkscape-font-specification:Latha;text-align:center;text-anchor:middle;stroke-width:0.264583;fill:none;stroke:#ee0c0c;stroke-opacity:1"
         id="path128" />
      <path
         d="m 341.2876,97.395507 q 0.5209,-0.60358 1.11621,-0.901235 0.59531,-0.297656 1.24023,-0.297656 2.6789,0 2.6789,2.926947 v 5.167637 h -1.41386 v -5.101491 q 0,-0.487824 -0.0827,-0.835089 -0.0827,-0.347265 -0.26459,-0.562239 -0.17363,-0.223242 -0.45475,-0.32246 -0.27285,-0.09922 -0.66145,-0.09922 -1.07487,0 -2.15801,1.256769 v 5.66373 h -1.39733 V 93.377155 h 1.39733 z"
         style="font-style:normal;font-variant:normal;font-weight:normal;font-stretch:normal;font-size:16.93329999999999913px;line-height:0.55;font-family:Latha;-inkscape-font-specification:Latha;text-align:center;text-anchor:middle;stroke-width:0.264583;fill:none;stroke:#ee0c0c;stroke-opacity:1"
         id="path130" />
      <path
         d="m 351.73863,104.48137 q -0.8599,0 -1.57097,-0.27286 -0.71106,-0.28111 -1.22369,-0.81028 -0.50436,-0.53743 -0.78548,-1.30638 -0.28112,-0.76894 -0.28112,-1.75286 0,-0.96738 0.27285,-1.728056 0.27285,-0.768944 0.76068,-1.306377 0.48782,-0.537434 1.17408,-0.818554 0.68626,-0.289387 1.50482,-0.289387 0.85162,0 1.53788,0.281119 0.68627,0.28112 1.16582,0.818553 0.48783,0.529166 0.74414,1.29811 0.26458,0.768944 0.26458,1.744592 v 0.339 h -5.95311 q 0.0496,0.68626 0.23978,1.19062 0.19844,0.50436 0.51263,0.84336 0.32246,0.33073 0.73587,0.49609 0.41341,0.16536 0.90124,0.16536 0.34726,0 0.69453,-0.0909 0.34726,-0.0992 0.62011,-0.28111 0.28112,-0.18191 0.45475,-0.44649 0.17364,-0.27285 0.1819,-0.62011 h 1.47175 q -0.091,0.61184 -0.38861,1.0914 -0.28939,0.47129 -0.74414,0.79375 -0.44648,0.32246 -1.03353,0.48782 -0.58704,0.17364 -1.25676,0.17364 z m 2.07532,-4.911323 q -0.16537,-1.124477 -0.76895,-1.694984 -0.59531,-0.570506 -1.4552,-0.570506 -0.42168,0 -0.79375,0.140559 -0.37207,0.14056 -0.66146,0.421679 -0.28939,0.281119 -0.48782,0.711066 -0.19844,0.421679 -0.28112,0.992186 z"
         style="font-style:normal;font-variant:normal;font-weight:normal;font-stretch:normal;font-size:16.93329999999999913px;line-height:0.55;font-family:Latha;-inkscape-font-specification:Latha;text-align:center;text-anchor:middle;stroke-width:0.264583;fill:none;stroke:#ee0c0c;stroke-opacity:1"
         id="path132" />
      <path
         d="m 358.28705,97.395507 q 0.5209,-0.60358 1.11621,-0.901235 0.59531,-0.297656 1.24023,-0.297656 2.6789,0 2.6789,2.926947 v 5.167637 h -1.41386 v -5.101491 q 0,-0.487824 -0.0827,-0.835089 -0.0827,-0.347265 -0.26459,-0.562239 -0.17363,-0.223242 -0.45475,-0.32246 -0.27285,-0.09922 -0.66145,-0.09922 -1.07487,0 -2.15801,1.256769 v 5.66373 h -1.39733 v -7.896148 h 1.39733 z"
         style="font-style:normal;font-variant:normal;font-weight:normal;font-stretch:normal;font-size:16.93329999999999913px;line-height:0.55;font-family:Latha;-inkscape-font-specification:Latha;text-align:center;text-anchor:middle;stroke-width:0.264583;fill:none;stroke:#ee0c0c;stroke-opacity:1"
         id="path134" />
      <path
         d="m 257.28256,132.2312 h -6.9949 v -1.19889 l 4.91958,-5.5149 h -4.6302 v -1.18236 h 6.45748 v 1.18236 l -4.91132,5.5149 h 5.15936 z"
         style="font-style:normal;font-variant:normal;font-weight:normal;font-stretch:normal;font-size:16.93329999999999913px;line-height:0.55;font-family:Latha;-inkscape-font-specification:Latha;text-align:center;text-anchor:middle;stroke-width:0.264583;fill:none;stroke:#ee0c0c;stroke-opacity:1"
         id="path136" />
      <path
         d="m 263.67389,131.23074 q -1.05833,1.19063 -2.37298,1.19063 -2.6789,0 -2.6789,-2.91868 v -5.16764 h 1.42214 v 5.09322 q 0,0.4961 0.0827,0.84336 0.0827,0.339 0.25631,0.56224 0.1819,0.21497 0.45475,0.31419 0.28112,0.0992 0.66973,0.0992 1.18235,0 2.16627,-1.26504 v -5.64719 h 1.39733 v 7.89615 h -1.39733 z"
         style="font-style:normal;font-variant:normal;font-weight:normal;font-stretch:normal;font-size:16.93329999999999913px;line-height:0.55;font-family:Latha;-inkscape-font-specification:Latha;text-align:center;text-anchor:middle;stroke-width:0.264583;fill:none;stroke:#ee0c0c;stroke-opacity:1"
         id="path138" />
      <path
         d="m 283.3357,124.33505 -2.97655,7.89615 h -1.26504 l -2.97656,-7.89615 h 1.52135 l 2.08359,6.16809 2.10013,-6.16809 z"
         style="font-style:normal;font-variant:normal;font-weight:normal;font-stretch:normal;font-size:16.93329999999999913px;line-height:0.55;font-family:Latha;-inkscape-font-specification:Latha;text-align:center;text-anchor:middle;stroke-width:0.264583;fill:none;stroke:#ee0c0c;stroke-opacity:1"
         id="path140" />
      <path
         d="m 287.9411,132.42137 q -0.8599,0 -1.57097,-0.27286 -0.71106,-0.28111 -1.22369,-0.81028 -0.50436,-0.53743 -0.78548,-1.30638 -0.28112,-0.76894 -0.28112,-1.75286 0,-0.96738 0.27285,-1.72806 0.27285,-0.76894 0.76068,-1.30637 0.48782,-0.53744 1.17408,-0.81856 0.68626,-0.28938 1.50482,-0.28938 0.85162,0 1.53789,0.28112 0.68626,0.28111 1.16581,0.81855 0.48783,0.52916 0.74414,1.29811 0.26459,0.76894 0.26459,1.74459 v 0.339 h -5.95312 q 0.0496,0.68626 0.23978,1.19062 0.19844,0.50436 0.51263,0.84336 0.32246,0.33073 0.73587,0.49609 0.41341,0.16537 0.90124,0.16537 0.34726,0 0.69453,-0.091 0.34726,-0.0992 0.62011,-0.28111 0.28112,-0.18191 0.45475,-0.44649 0.17364,-0.27285 0.1819,-0.62011 h 1.47175 q -0.091,0.61184 -0.38861,1.0914 -0.28939,0.47129 -0.74414,0.79375 -0.44648,0.32246 -1.03353,0.48782 -0.58704,0.17364 -1.25676,0.17364 z m 2.07532,-4.91132 q -0.16537,-1.12448 -0.76895,-1.69499 -0.59531,-0.5705 -1.4552,-0.5705 -0.42168,0 -0.79375,0.14056 -0.37207,0.14056 -0.66146,0.42168 -0.28939,0.28111 -0.48782,0.71106 -0.19844,0.42168 -0.28112,0.99219 z"
         style="font-style:normal;font-variant:normal;font-weight:normal;font-stretch:normal;font-size:16.93329999999999913px;line-height:0.55;font-family:Latha;-inkscape-font-specification:Latha;text-align:center;text-anchor:middle;stroke-width:0.264583;fill:none;stroke:#ee0c0c;stroke-opacity:1"
         id="path142" />
      <path
         d="m 297.19322,125.61663 q -0.29765,-0.0992 -0.85162,-0.0992 -0.5457,0 -1.00046,0.28112 -0.45475,0.28112 -0.85162,0.84335 v 5.58932 h -1.39733 v -7.89615 h 1.39733 v 1.09141 q 0.89297,-1.28984 2.06705,-1.28984 0.28112,0 0.63665,0.0661 z"
         style="font-style:normal;font-variant:normal;font-weight:normal;font-stretch:normal;font-size:16.93329999999999913px;line-height:0.55;font-family:Latha;-inkscape-font-specification:Latha;text-align:center;text-anchor:middle;stroke-width:0.264583;fill:none;stroke:#ee0c0c;stroke-opacity:1"
         id="path144" />
      <path
         d="m 299.58274,125.26936 q 0.93431,-1.13274 2.25722,-1.13274 0.77721,0 1.38079,0.29765 0.61185,0.28939 1.02526,0.82682 0.42168,0.52917 0.63665,1.28158 0.21498,0.7524 0.21498,1.67018 0,0.95911 -0.25632,1.73632 -0.25631,0.77721 -0.7028,1.33118 -0.44648,0.5457 -1.05833,0.84336 -0.61185,0.29766 -1.33118,0.29766 -0.64492,0 -1.18235,-0.19017 -0.53744,-0.19844 -0.98392,-0.61185 v 0.61185 h -1.39733 v -10.91404 h 1.39733 z m 0,5.08495 q 0.91777,0.95912 2.08359,0.95912 0.90123,0 1.4304,-0.77722 0.53743,-0.78548 0.53743,-2.32336 0,-1.45521 -0.50436,-2.20762 -0.50436,-0.76067 -1.40559,-0.76067 -1.17409,0 -2.14147,1.35598 z"
         style="font-style:normal;font-variant:normal;font-weight:normal;font-stretch:normal;font-size:16.93329999999999913px;line-height:0.55;font-family:Latha;-inkscape-font-specification:Latha;text-align:center;text-anchor:middle;stroke-width:0.264583;fill:none;stroke:#ee0c0c;stroke-opacity:1"
         id="path146" />
      <path
         d="m 310.78617,125.61663 q -0.29766,-0.0992 -0.85163,-0.0992 -0.5457,0 -1.00045,0.28112 -0.45475,0.28112 -0.85163,0.84335 v 5.58932 h -1.39732 v -7.89615 h 1.39732 v 1.09141 q 0.89297,-1.28984 2.06706,-1.28984 0.28112,0 0.63665,0.0661 z"
         style="font-style:normal;font-variant:normal;font-weight:normal;font-stretch:normal;font-size:16.93329999999999913px;line-height:0.55;font-family:Latha;-inkscape-font-specification:Latha;text-align:center;text-anchor:middle;stroke-width:0.264583;fill:none;stroke:#ee0c0c;stroke-opacity:1"
         id="path148" />
      <path
         d="m 313.17568,132.2312 h -1.39732 v -7.89615 h 1.39732 z m 0,-9.39269 h -1.39732 v -1.52135 h 1.39732 z"
         style="font-style:normal;font-variant:normal;font-weight:normal;font-stretch:normal;font-size:16.93329999999999913px;line-height:0.55;font-family:Latha;-inkscape-font-specification:Latha;text-align:center;text-anchor:middle;stroke-width:0.264583;fill:none;stroke:#ee0c0c;stroke-opacity:1"
         id="path150" />
      <path
         d="m 316.64833,125.33551 q 0.5209,-0.60358 1.11621,-0.90124 0.59531,-0.29765 1.24023,-0.29765 2.6789,0 2.6789,2.92694 v 5.16764 h -1.41386 v -5.10149 q 0,-0.48783 -0.0827,-0.83509 -0.0827,-0.34727 -0.26459,-0.56224 -0.17363,-0.22324 -0.45475,-0.32246 -0.27285,-0.0992 -0.66145,-0.0992 -1.07487,0 -2.15801,1.25677 v 5.66373 H 315.251 v -7.89615 h 1.39733 z"
         style="font-style:normal;font-variant:normal;font-weight:normal;font-stretch:normal;font-size:16.93329999999999913px;line-height:0.55;font-family:Latha;-inkscape-font-specification:Latha;text-align:center;text-anchor:middle;stroke-width:0.264583;fill:none;stroke:#ee0c0c;stroke-opacity:1"
         id="path152" />
      <path
         d="m 330.15859,131.61935 q 0,3.81991 -3.43958,3.81991 -0.74414,0 -1.33945,-0.16536 -0.59531,-0.16537 -1.01699,-0.47956 -0.41341,-0.30592 -0.63665,-0.7524 -0.22324,-0.44649 -0.22324,-1.00873 h 1.4552 q 0,1.30638 1.71979,1.30638 0.50436,0 0.89297,-0.12402 0.3886,-0.11576 0.65318,-0.42168 0.26459,-0.30592 0.39688,-0.81855 0.14056,-0.51263 0.14056,-1.29811 v -0.38034 q -0.95911,1.12448 -2.25722,1.12448 -0.79375,0 -1.4056,-0.28939 -0.60358,-0.29766 -1.02526,-0.82682 -0.41341,-0.53744 -0.62838,-1.28984 -0.20671,-0.75241 -0.20671,-1.67018 0,-0.97565 0.25632,-1.75286 0.25631,-0.78548 0.7028,-1.33119 0.45475,-0.5457 1.05833,-0.83509 0.61184,-0.28938 1.32291,-0.28938 0.64492,0 1.18236,0.2067 0.5457,0.19844 1.00045,0.59531 v -0.60358 h 1.39733 z m -1.39733,-1.67018 v -3.7455 q -0.94258,-0.95911 -2.09186,-0.95911 -0.90123,0 -1.43867,0.77721 -0.53743,0.76894 -0.53743,2.32337 0,1.46347 0.50436,2.21588 0.51263,0.75241 1.41386,0.75241 0.58705,0 1.12448,-0.33073 0.53743,-0.339 1.02526,-1.03353 z"
         style="font-style:normal;font-variant:normal;font-weight:normal;font-stretch:normal;font-size:16.93329999999999913px;line-height:0.55;font-family:Latha;-inkscape-font-specification:Latha;text-align:center;text-anchor:middle;stroke-width:0.264583;fill:none;stroke:#ee0c0c;stroke-opacity:1"
         id="path154" />
      <path
         d="m 335.59907,132.42137 q -0.85989,0 -1.57096,-0.27286 -0.71106,-0.28111 -1.22369,-0.81028 -0.50436,-0.53743 -0.78548,-1.30638 -0.28112,-0.76894 -0.28112,-1.75286 0,-0.96738 0.27285,-1.72806 0.27285,-0.76894 0.76067,-1.30637 0.48783,-0.53744 1.17409,-0.81856 0.68626,-0.28938 1.50482,-0.28938 0.85162,0 1.53788,0.28112 0.68626,0.28111 1.16582,0.81855 0.48783,0.52916 0.74414,1.29811 0.26458,0.76894 0.26458,1.74459 v 0.339 h -5.95311 q 0.0496,0.68626 0.23978,1.19062 0.19844,0.50436 0.51263,0.84336 0.32246,0.33073 0.73587,0.49609 0.41341,0.16537 0.90123,0.16537 0.34727,0 0.69453,-0.091 0.34727,-0.0992 0.62012,-0.28111 0.28112,-0.18191 0.45475,-0.44649 0.17363,-0.27285 0.1819,-0.62011 h 1.47174 q -0.091,0.61184 -0.3886,1.0914 -0.28939,0.47129 -0.74414,0.79375 -0.44649,0.32246 -1.03353,0.48782 -0.58704,0.17364 -1.25677,0.17364 z m 2.07532,-4.91132 q -0.16536,-1.12448 -0.76894,-1.69499 -0.59531,-0.5705 -1.4552,-0.5705 -0.42168,0 -0.79375,0.14056 -0.37207,0.14056 -0.66146,0.42168 -0.28939,0.28111 -0.48782,0.71106 -0.19844,0.42168 -0.28112,0.99219 z"
         style="font-style:normal;font-variant:normal;font-weight:normal;font-stretch:normal;font-size:16.93329999999999913px;line-height:0.55;font-family:Latha;-inkscape-font-specification:Latha;text-align:center;text-anchor:middle;stroke-width:0.264583;fill:none;stroke:#ee0c0c;stroke-opacity:1"
         id="path156" />
      <path
         d="m 342.1475,125.33551 q 0.5209,-0.60358 1.11621,-0.90124 0.59531,-0.29765 1.24023,-0.29765 2.6789,0 2.6789,2.92694 v 5.16764 h -1.41386 v -5.10149 q 0,-0.48783 -0.0827,-0.83509 -0.0827,-0.34727 -0.26459,-0.56224 -0.17363,-0.22324 -0.45475,-0.32246 -0.27285,-0.0992 -0.66146,-0.0992 -1.07486,0 -2.158,1.25677 v 5.66373 h -1.39733 v -7.89615 h 1.39733 z"
         style="font-style:normal;font-variant:normal;font-weight:normal;font-stretch:normal;font-size:16.93329999999999913px;line-height:0.55;font-family:Latha;-inkscape-font-specification:Latha;text-align:center;text-anchor:middle;stroke-width:0.264583;fill:none;stroke:#ee0c0c;stroke-opacity:1"
         id="path158" />
      <path
         d="m 351.08543,132.2312 q 0,0.97565 -0.3886,1.56269 -0.38034,0.58704 -1.13275,0.58704 v -0.71106 q 0.75241,0 0.75241,-1.43867 h -0.75241 v -1.52135 h 1.52135 z"
         style="font-style:normal;font-variant:normal;font-weight:normal;font-stretch:normal;font-size:16.93329999999999913px;line-height:0.55;font-family:Latha;-inkscape-font-specification:Latha;text-align:center;text-anchor:middle;stroke-width:0.264583;fill:none;stroke:#ee0c0c;stroke-opacity:1"
         id="path160" />
      <path
         d="m 249.17145,157.88917 v -3.7455 q -0.94258,-0.95911 -2.09186,-0.95911 -0.90124,0 -1.43867,0.77721 -0.53743,0.76894 -0.53743,2.32337 0,1.46347 0.50436,2.21588 0.51263,0.75241 1.41386,0.75241 0.58704,0 1.12448,-0.33073 0.53743,-0.339 1.02526,-1.03353 z m 0,1.34772 q -0.95912,1.12448 -2.25723,1.12448 -0.79374,0 -1.40559,-0.28939 -0.60358,-0.29766 -1.02526,-0.82682 -0.41341,-0.53744 -0.62838,-1.28984 -0.20671,-0.75241 -0.20671,-1.67018 0,-0.97565 0.25631,-1.75286 0.25632,-0.78548 0.7028,-1.33119 0.45475,-0.5457 1.05833,-0.83509 0.61185,-0.28938 1.32292,-0.28938 0.64492,0 1.18235,0.2067 0.5457,0.19844 1.00046,0.59531 v -3.62147 h 1.39732 v 10.91404 h -1.39732 z"
         style="font-style:normal;font-variant:normal;font-weight:normal;font-stretch:normal;font-size:16.93329999999999913px;line-height:0.55;font-family:Latha;-inkscape-font-specification:Latha;text-align:center;text-anchor:middle;stroke-width:0.264583;fill:none;stroke:#ee0c0c;stroke-opacity:1"
         id="path162" />
      <path
         d="m 254.05796,160.1712 h -1.39733 v -7.89615 h 1.39733 z m 0,-9.39269 h -1.39733 v -1.52135 h 1.39733 z"
         style="font-style:normal;font-variant:normal;font-weight:normal;font-stretch:normal;font-size:16.93329999999999913px;line-height:0.55;font-family:Latha;-inkscape-font-specification:Latha;text-align:center;text-anchor:middle;stroke-width:0.264583;fill:none;stroke:#ee0c0c;stroke-opacity:1"
         id="path164" />
      <path
         d="m 259.48191,160.36137 q -0.8599,0 -1.57096,-0.27286 -0.71107,-0.28111 -1.2237,-0.81028 -0.50436,-0.53743 -0.78548,-1.30638 -0.28112,-0.76894 -0.28112,-1.75286 0,-0.96738 0.27285,-1.72806 0.27285,-0.76894 0.76068,-1.30637 0.48782,-0.53744 1.17409,-0.81856 0.68626,-0.28938 1.50481,-0.28938 0.85163,0 1.53789,0.28112 0.68626,0.28111 1.16582,0.81855 0.48782,0.52916 0.74413,1.29811 0.26459,0.76894 0.26459,1.74459 v 0.339 h -5.95312 q 0.0496,0.68626 0.23978,1.19062 0.19844,0.50436 0.51263,0.84336 0.32246,0.33073 0.73587,0.49609 0.41341,0.16537 0.90124,0.16537 0.34726,0 0.69453,-0.091 0.34726,-0.0992 0.62011,-0.28111 0.28112,-0.18191 0.45476,-0.44649 0.17363,-0.27285 0.1819,-0.62011 h 1.47174 q -0.0909,0.61184 -0.38861,1.0914 -0.28939,0.47129 -0.74414,0.79375 -0.44648,0.32246 -1.03352,0.48782 -0.58705,0.17364 -1.25677,0.17364 z m 2.07532,-4.91132 q -0.16537,-1.12448 -0.76894,-1.69499 -0.59532,-0.5705 -1.45521,-0.5705 -0.42168,0 -0.79375,0.14056 -0.37207,0.14056 -0.66146,0.42168 -0.28938,0.28111 -0.48782,0.71106 -0.19844,0.42168 -0.28112,0.99219 z"
         style="font-style:normal;font-variant:normal;font-weight:normal;font-stretch:normal;font-size:16.93329999999999913px;line-height:0.55;font-family:Latha;-inkscape-font-specification:Latha;text-align:center;text-anchor:middle;stroke-width:0.264583;fill:none;stroke:#ee0c0c;stroke-opacity:1"
         id="path166" />
      <path
         d="m 279.4331,158.09588 v -1.75287 h -0.97565 q -3.05923,0 -3.05923,1.66192 0,0.60357 0.45475,0.92603 0.45475,0.32247 1.20716,0.32247 0.34726,0 0.68626,-0.0744 0.34726,-0.0827 0.65319,-0.23151 0.31419,-0.14883 0.57877,-0.3638 0.26459,-0.21497 0.45475,-0.48782 z m 0,1.2733 q -1.10794,0.99219 -2.77812,0.99219 -0.5705,0 -1.05833,-0.16537 -0.48782,-0.16536 -0.85162,-0.46302 -0.3638,-0.29765 -0.57051,-0.71933 -0.2067,-0.42168 -0.2067,-0.93431 0,-2.76985 4.77075,-2.76985 h 0.69453 q 0,-0.51263 -0.0331,-0.90951 -0.0331,-0.39687 -0.21497,-0.66145 -0.17363,-0.27285 -0.56224,-0.41341 -0.38861,-0.14056 -1.0914,-0.14056 -1.86862,0 -1.93477,1.34772 h -1.41386 q 0.14883,-2.45566 3.43131,-2.45566 0.74414,0 1.33945,0.13229 0.59531,0.13229 1.00872,0.47129 0.42168,0.33072 0.64492,0.91777 0.22324,0.57877 0.22324,1.47174 v 5.10149 h -1.39733 z"
         style="font-style:normal;font-variant:normal;font-weight:normal;font-stretch:normal;font-size:16.93329999999999913px;line-height:0.55;font-family:Latha;-inkscape-font-specification:Latha;text-align:center;text-anchor:middle;stroke-width:0.264583;fill:none;stroke:#ee0c0c;stroke-opacity:1"
         id="path168" />
      <path
         d="m 287.93283,159.17074 q -1.05834,1.19063 -2.37298,1.19063 -2.6789,0 -2.6789,-2.91868 v -5.16764 h 1.42213 v 5.09322 q 0,0.4961 0.0827,0.84336 0.0827,0.339 0.25632,0.56224 0.1819,0.21497 0.45475,0.31419 0.28112,0.0992 0.66972,0.0992 1.18236,0 2.16628,-1.26504 v -5.64719 h 1.39732 v 7.89615 h -1.39732 z"
         style="font-style:normal;font-variant:normal;font-weight:normal;font-stretch:normal;font-size:16.93329999999999913px;line-height:0.55;font-family:Latha;-inkscape-font-specification:Latha;text-align:center;text-anchor:middle;stroke-width:0.264583;fill:none;stroke:#ee0c0c;stroke-opacity:1"
         id="path170" />
      <path
         d="m 294.24147,160.36137 q -3.2246,0 -3.39823,-2.54661 h 1.41386 q 0.008,1.43867 1.96784,1.43867 0.43821,0 0.76894,-0.091 0.339,-0.0992 0.56224,-0.26458 0.22324,-0.17363 0.339,-0.39687 0.11575,-0.23151 0.11575,-0.50436 0,-0.28112 -0.091,-0.45475 -0.0827,-0.17364 -0.33899,-0.30593 -0.24805,-0.13229 -0.69453,-0.25631 -0.44649,-0.13229 -1.16582,-0.32246 -0.7028,-0.17364 -1.21543,-0.34727 -0.50436,-0.17363 -0.83509,-0.42168 -0.32246,-0.24804 -0.47956,-0.61185 -0.15709,-0.3638 -0.15709,-0.91777 0,-0.48782 0.2067,-0.90123 0.20671,-0.42168 0.58705,-0.7276 0.3886,-0.30593 0.9343,-0.47956 0.54571,-0.17363 1.21543,-0.17363 3.11712,0 3.16673,2.21588 h -1.38906 q -0.0744,-1.10794 -1.67018,-1.10794 -0.35553,0 -0.66146,0.0744 -0.29765,0.0661 -0.5209,0.19844 -0.22324,0.13229 -0.34726,0.33073 -0.12402,0.19017 -0.12402,0.44648 0,0.23151 0.0579,0.38034 0.0579,0.14883 0.27285,0.28112 0.22325,0.12402 0.65319,0.24804 0.42995,0.12403 1.17409,0.30593 0.71933,0.17363 1.2485,0.3638 0.52917,0.1819 0.87643,0.44648 0.35553,0.26458 0.5209,0.64492 0.17363,0.38034 0.17363,0.95085 0,0.53743 -0.22324,0.99218 -0.22324,0.45475 -0.63665,0.79375 -0.40515,0.339 -0.99219,0.52917 -0.58704,0.19017 -1.31465,0.19017 z"
         style="font-style:normal;font-variant:normal;font-weight:normal;font-stretch:normal;font-size:16.93329999999999913px;line-height:0.55;font-family:Latha;-inkscape-font-specification:Latha;text-align:center;text-anchor:middle;stroke-width:0.264583;fill:none;stroke:#ee0c0c;stroke-opacity:1"
         id="path172" />
      <path
         d="m 312.20003,160.36137 q -0.85989,0 -1.57096,-0.27286 -0.71106,-0.28111 -1.22369,-0.81028 -0.50436,-0.53743 -0.78548,-1.30638 -0.28112,-0.76894 -0.28112,-1.75286 0,-0.96738 0.27285,-1.72806 0.27285,-0.76894 0.76068,-1.30637 0.48782,-0.53744 1.17408,-0.81856 0.68626,-0.28938 1.50482,-0.28938 0.85162,0 1.53788,0.28112 0.68627,0.28111 1.16582,0.81855 0.48783,0.52916 0.74414,1.29811 0.26458,0.76894 0.26458,1.74459 v 0.339 h -5.95311 q 0.0496,0.68626 0.23978,1.19062 0.19844,0.50436 0.51263,0.84336 0.32246,0.33073 0.73587,0.49609 0.41341,0.16537 0.90123,0.16537 0.34727,0 0.69453,-0.091 0.34727,-0.0992 0.62012,-0.28111 0.28112,-0.18191 0.45475,-0.44649 0.17363,-0.27285 0.1819,-0.62011 h 1.47174 q -0.0909,0.61184 -0.3886,1.0914 -0.28939,0.47129 -0.74414,0.79375 -0.44648,0.32246 -1.03353,0.48782 -0.58704,0.17364 -1.25677,0.17364 z m 2.07533,-4.91132 q -0.16537,-1.12448 -0.76895,-1.69499 -0.59531,-0.5705 -1.4552,-0.5705 -0.42168,0 -0.79375,0.14056 -0.37207,0.14056 -0.66146,0.42168 -0.28939,0.28111 -0.48782,0.71106 -0.19844,0.42168 -0.28112,0.99219 z"
         style="font-style:normal;font-variant:normal;font-weight:normal;font-stretch:normal;font-size:16.93329999999999913px;line-height:0.55;font-family:Latha;-inkscape-font-specification:Latha;text-align:center;text-anchor:middle;stroke-width:0.264583;fill:none;stroke:#ee0c0c;stroke-opacity:1"
         id="path174" />
      <path
         d="m 318.74845,160.1712 h -1.39732 v -7.89615 h 1.39732 z m 0,-9.39269 h -1.39732 v -1.52135 h 1.39732 z"
         style="font-style:normal;font-variant:normal;font-weight:normal;font-stretch:normal;font-size:16.93329999999999913px;line-height:0.55;font-family:Latha;-inkscape-font-specification:Latha;text-align:center;text-anchor:middle;stroke-width:0.264583;fill:none;stroke:#ee0c0c;stroke-opacity:1"
         id="path176" />
      <path
         d="m 322.2211,153.27551 q 0.5209,-0.60358 1.11621,-0.90124 0.59531,-0.29765 1.24023,-0.29765 2.6789,0 2.6789,2.92694 v 5.16764 h -1.41386 v -5.10149 q 0,-0.48783 -0.0827,-0.83509 -0.0827,-0.34726 -0.26459,-0.56224 -0.17363,-0.22324 -0.45475,-0.32246 -0.27285,-0.0992 -0.66145,-0.0992 -1.07487,0 -2.15801,1.25677 v 5.66373 h -1.39733 v -7.89615 h 1.39733 z"
         style="font-style:normal;font-variant:normal;font-weight:normal;font-stretch:normal;font-size:16.93329999999999913px;line-height:0.55;font-family:Latha;-inkscape-font-specification:Latha;text-align:center;text-anchor:middle;stroke-width:0.264583;fill:none;stroke:#ee0c0c;stroke-opacity:1"
         id="path178" />
      <path
         d="m 332.67213,160.36137 q -0.8599,0 -1.57096,-0.27286 -0.71107,-0.28111 -1.2237,-0.81028 -0.50436,-0.53743 -0.78548,-1.30638 -0.28112,-0.76894 -0.28112,-1.75286 0,-0.96738 0.27285,-1.72806 0.27285,-0.76894 0.76068,-1.30637 0.48782,-0.53744 1.17408,-0.81856 0.68626,-0.28938 1.50482,-0.28938 0.85162,0 1.53789,0.28112 0.68626,0.28111 1.16581,0.81855 0.48783,0.52916 0.74414,1.29811 0.26459,0.76894 0.26459,1.74459 v 0.339 h -5.95312 q 0.0496,0.68626 0.23978,1.19062 0.19844,0.50436 0.51263,0.84336 0.32246,0.33073 0.73587,0.49609 0.41341,0.16537 0.90124,0.16537 0.34726,0 0.69453,-0.091 0.34726,-0.0992 0.62011,-0.28111 0.28112,-0.18191 0.45475,-0.44649 0.17364,-0.27285 0.1819,-0.62011 h 1.47175 q -0.091,0.61184 -0.38861,1.0914 -0.28939,0.47129 -0.74414,0.79375 -0.44648,0.32246 -1.03353,0.48782 -0.58704,0.17364 -1.25676,0.17364 z m 2.07532,-4.91132 q -0.16537,-1.12448 -0.76895,-1.69499 -0.59531,-0.5705 -1.4552,-0.5705 -0.42168,0 -0.79375,0.14056 -0.37207,0.14056 -0.66146,0.42168 -0.28939,0.28111 -0.48782,0.71106 -0.19844,0.42168 -0.28112,0.99219 z"
         style="font-style:normal;font-variant:normal;font-weight:normal;font-stretch:normal;font-size:16.93329999999999913px;line-height:0.55;font-family:Latha;-inkscape-font-specification:Latha;text-align:center;text-anchor:middle;stroke-width:0.264583;fill:none;stroke:#ee0c0c;stroke-opacity:1"
         id="path180" />
      <path
         d="m 348.50576,160.1712 h -1.42214 v -5.10149 q 0,-0.49609 -0.0661,-0.84336 -0.0661,-0.34726 -0.21498,-0.56224 -0.14056,-0.22324 -0.37207,-0.31419 -0.23151,-0.0992 -0.56223,-0.0992 -1.03353,0 -2.02572,1.25677 v 5.66373 h -1.38079 v -5.10149 q 0,-0.49609 -0.0744,-0.84336 -0.0661,-0.34726 -0.21498,-0.56224 -0.14882,-0.22324 -0.38033,-0.31419 -0.23151,-0.0992 -0.56224,-0.0992 -1.01699,0 -2.00918,1.25677 v 5.66373 h -1.39733 v -7.89615 h 1.39733 v 1.00046 q 1.01699,-1.19889 2.22415,-1.19889 1.71979,0 2.20761,1.43867 0.40515,-0.47129 0.72761,-0.75241 0.33073,-0.28939 0.61185,-0.43822 0.28111,-0.15709 0.53743,-0.19843 0.26458,-0.0496 0.53743,-0.0496 2.43913,0 2.43913,2.92694 z"
         style="font-style:normal;font-variant:normal;font-weight:normal;font-stretch:normal;font-size:16.93329999999999913px;line-height:0.55;font-family:Latha;-inkscape-font-specification:Latha;text-align:center;text-anchor:middle;stroke-width:0.264583;fill:none;stroke:#ee0c0c;stroke-opacity:1"
         id="path182" />
      <path
         d="m 250.40341,187.49935 q 0,3.81991 -3.43958,3.81991 -0.74414,0 -1.33945,-0.16536 -0.59531,-0.16536 -1.01699,-0.47956 -0.41341,-0.30592 -0.63665,-0.7524 -0.22324,-0.44649 -0.22324,-1.00873 h 1.4552 q 0,1.30638 1.71979,1.30638 0.50436,0 0.89297,-0.12402 0.38861,-0.11576 0.65319,-0.42168 0.26458,-0.30592 0.39687,-0.81855 0.14056,-0.51263 0.14056,-1.29811 v -0.38034 q -0.95911,1.12448 -2.25722,1.12448 -0.79375,0 -1.4056,-0.28939 -0.60358,-0.29766 -1.02525,-0.82682 -0.41342,-0.53744 -0.62839,-1.28984 -0.2067,-0.75241 -0.2067,-1.67018 0,-0.97565 0.25631,-1.75286 0.25632,-0.78548 0.7028,-1.33119 0.45475,-0.5457 1.05833,-0.83509 0.61185,-0.28938 1.32291,-0.28938 0.64492,0 1.18236,0.2067 0.5457,0.19844 1.00045,0.59531 v -0.60358 h 1.39733 z m -1.39733,-1.67018 v -3.7455 q -0.94257,-0.95911 -2.09186,-0.95911 -0.90123,0 -1.43866,0.77721 -0.53744,0.76894 -0.53744,2.32337 0,1.46347 0.50436,2.21588 0.51263,0.75241 1.41387,0.75241 0.58704,0 1.12447,-0.33073 0.53744,-0.339 1.02526,-1.03353 z"
         style="font-style:normal;font-variant:normal;font-weight:normal;font-stretch:normal;font-size:16.93329999999999913px;line-height:0.55;font-family:Latha;-inkscape-font-specification:Latha;text-align:center;text-anchor:middle;stroke-width:0.264583;fill:none;stroke:#ee0c0c;stroke-opacity:1"
         id="path184" />
      <path
         d="m 257.5058,186.03588 v -1.75287 h -0.97564 q -3.05924,0 -3.05924,1.66192 0,0.60357 0.45475,0.92604 0.45475,0.32246 1.20716,0.32246 0.34726,0 0.68626,-0.0744 0.34726,-0.0827 0.65319,-0.23151 0.31419,-0.14883 0.57877,-0.3638 0.26459,-0.21497 0.45475,-0.48782 z m 0,1.2733 q -1.10794,0.99219 -2.77811,0.99219 -0.57051,0 -1.05834,-0.16537 -0.48782,-0.16536 -0.85162,-0.46302 -0.3638,-0.29765 -0.57051,-0.71933 -0.2067,-0.42168 -0.2067,-0.93431 0,-2.76985 4.77075,-2.76985 h 0.69453 q 0,-0.51263 -0.0331,-0.90951 -0.0331,-0.39687 -0.21497,-0.66145 -0.17363,-0.27285 -0.56224,-0.41341 -0.38861,-0.14056 -1.0914,-0.14056 -1.86862,0 -1.93477,1.34772 h -1.41386 q 0.14883,-2.45566 3.43131,-2.45566 0.74414,0 1.33945,0.13229 0.59531,0.13229 1.00872,0.47129 0.42168,0.33072 0.64492,0.91777 0.22324,0.57877 0.22324,1.47174 v 5.10149 h -1.39733 z"
         style="font-style:normal;font-variant:normal;font-weight:normal;font-stretch:normal;font-size:16.93329999999999913px;line-height:0.55;font-family:Latha;-inkscape-font-specification:Latha;text-align:center;text-anchor:middle;stroke-width:0.264583;fill:none;stroke:#ee0c0c;stroke-opacity:1"
         id="path186" />
      <path
         d="m 262.39232,181.21551 q 0.5209,-0.60358 1.11621,-0.90124 0.59531,-0.29765 1.24023,-0.29765 2.6789,0 2.6789,2.92694 v 5.16764 h -1.41386 v -5.10149 q 0,-0.48782 -0.0827,-0.83509 -0.0827,-0.34726 -0.26458,-0.56224 -0.17363,-0.22324 -0.45475,-0.32246 -0.27285,-0.0992 -0.66146,-0.0992 -1.07487,0 -2.158,1.25677 v 5.66373 h -1.39733 v -7.89615 h 1.39733 z"
         style="font-style:normal;font-variant:normal;font-weight:normal;font-stretch:normal;font-size:16.93329999999999913px;line-height:0.55;font-family:Latha;-inkscape-font-specification:Latha;text-align:center;text-anchor:middle;stroke-width:0.264583;fill:none;stroke:#ee0c0c;stroke-opacity:1"
         id="path188" />
      <path
         d="m 275.75375,188.1112 h -6.99491 v -1.19889 l 4.91959,-5.5149 h -4.6302 v -1.18236 h 6.45747 v 1.18236 l -4.91131,5.5149 h 5.15936 z"
         style="font-style:normal;font-variant:normal;font-weight:normal;font-stretch:normal;font-size:16.93329999999999913px;line-height:0.55;font-family:Latha;-inkscape-font-specification:Latha;text-align:center;text-anchor:middle;stroke-width:0.264583;fill:none;stroke:#ee0c0c;stroke-opacity:1"
         id="path190" />
      <path
         d="m 288.32143,181.21551 q 0.5209,-0.60358 1.11621,-0.90124 0.59531,-0.29765 1.24023,-0.29765 2.6789,0 2.6789,2.92694 v 5.16764 h -1.41386 v -5.10149 q 0,-0.48782 -0.0827,-0.83509 -0.0827,-0.34726 -0.26459,-0.56224 -0.17363,-0.22324 -0.45475,-0.32246 -0.27285,-0.0992 -0.66145,-0.0992 -1.07487,0 -2.15801,1.25677 v 5.66373 h -1.39733 v -7.89615 h 1.39733 z"
         style="font-style:normal;font-variant:normal;font-weight:normal;font-stretch:normal;font-size:16.93329999999999913px;line-height:0.55;font-family:Latha;-inkscape-font-specification:Latha;text-align:center;text-anchor:middle;stroke-width:0.264583;fill:none;stroke:#ee0c0c;stroke-opacity:1"
         id="path192" />
      <path
         d="m 298.62363,180.01662 q 0.85162,0 1.53788,0.28112 0.68627,0.28112 1.16582,0.81855 0.48783,0.52916 0.74414,1.29811 0.26458,0.76894 0.26458,1.74459 0,0.98392 -0.26458,1.75286 -0.26458,0.76895 -0.75241,1.30638 -0.48782,0.52917 -1.17408,0.81028 -0.678,0.27286 -1.52135,0.27286 -0.82682,0 -1.51309,-0.27286 -0.67799,-0.28111 -1.17408,-0.80201 -0.48783,-0.52917 -0.76068,-1.29811 -0.26458,-0.77721 -0.26458,-1.7694 0,-0.97565 0.26458,-1.74459 0.26459,-0.77721 0.75241,-1.30638 0.48782,-0.52916 1.17409,-0.81028 0.68626,-0.28112 1.52135,-0.28112 z m 0,7.17681 q 0.49609,0 0.9095,-0.19017 0.41341,-0.19017 0.71107,-0.57051 0.29765,-0.38034 0.46302,-0.95084 0.16536,-0.57051 0.16536,-1.32292 0,-0.75241 -0.16536,-1.32291 -0.16537,-0.57051 -0.46302,-0.95085 -0.29766,-0.38034 -0.71107,-0.5705 -0.41341,-0.19017 -0.9095,-0.19017 -0.50436,0 -0.91777,0.19017 -0.41342,0.19016 -0.71107,0.5705 -0.29766,0.38034 -0.46302,0.95085 -0.16536,0.5705 -0.16536,1.32291 0,0.75241 0.16536,1.32292 0.16536,0.5705 0.46302,0.95084 0.29765,0.38034 0.71107,0.57051 0.41341,0.19017 0.91777,0.19017 z"
         style="font-style:normal;font-variant:normal;font-weight:normal;font-stretch:normal;font-size:16.93329999999999913px;line-height:0.55;font-family:Latha;-inkscape-font-specification:Latha;text-align:center;text-anchor:middle;stroke-width:0.264583;fill:none;stroke:#ee0c0c;stroke-opacity:1"
         id="path194" />
      <path
         d="m 308.02458,181.49663 q -0.29765,-0.0992 -0.85162,-0.0992 -0.5457,0 -1.00046,0.28112 -0.45475,0.28112 -0.85162,0.84336 v 5.58931 h -1.39733 v -7.89615 h 1.39733 v 1.09141 q 0.89297,-1.28984 2.06705,-1.28984 0.28112,0 0.63665,0.0661 z"
         style="font-style:normal;font-variant:normal;font-weight:normal;font-stretch:normal;font-size:16.93329999999999913px;line-height:0.55;font-family:Latha;-inkscape-font-specification:Latha;text-align:center;text-anchor:middle;stroke-width:0.264583;fill:none;stroke:#ee0c0c;stroke-opacity:1"
         id="path196" />
      <path
         d="m 319.6993,188.1112 h -1.42213 v -5.10149 q 0,-0.49609 -0.0661,-0.84336 -0.0661,-0.34726 -0.21497,-0.56224 -0.14056,-0.22324 -0.37207,-0.31419 -0.23151,-0.0992 -0.56224,-0.0992 -1.03353,0 -2.02571,1.25677 v 5.66373 h -1.38079 v -5.10149 q 0,-0.49609 -0.0744,-0.84336 -0.0661,-0.34726 -0.21497,-0.56224 -0.14883,-0.22324 -0.38034,-0.31419 -0.23151,-0.0992 -0.56224,-0.0992 -1.01699,0 -2.00917,1.25677 v 5.66373 h -1.39733 v -7.89615 h 1.39733 v 1.00046 q 1.01699,-1.19889 2.22415,-1.19889 1.71979,0 2.20761,1.43867 0.40514,-0.47129 0.7276,-0.75241 0.33073,-0.28939 0.61185,-0.43822 0.28112,-0.15709 0.53743,-0.19843 0.26459,-0.0496 0.53744,-0.0496 2.43912,0 2.43912,2.92694 z"
         style="font-style:normal;font-variant:normal;font-weight:normal;font-stretch:normal;font-size:16.93329999999999913px;line-height:0.55;font-family:Latha;-inkscape-font-specification:Latha;text-align:center;text-anchor:middle;stroke-width:0.264583;fill:none;stroke:#ee0c0c;stroke-opacity:1"
         id="path198" />
      <path
         d="m 326.76035,186.03588 v -1.75287 h -0.97564 q -3.05924,0 -3.05924,1.66192 0,0.60357 0.45475,0.92604 0.45475,0.32246 1.20716,0.32246 0.34726,0 0.68626,-0.0744 0.34726,-0.0827 0.65319,-0.23151 0.31419,-0.14883 0.57877,-0.3638 0.26459,-0.21497 0.45475,-0.48782 z m 0,1.2733 q -1.10794,0.99219 -2.77811,0.99219 -0.57051,0 -1.05834,-0.16537 -0.48782,-0.16536 -0.85162,-0.46302 -0.3638,-0.29765 -0.57051,-0.71933 -0.2067,-0.42168 -0.2067,-0.93431 0,-2.76985 4.77075,-2.76985 h 0.69453 q 0,-0.51263 -0.0331,-0.90951 -0.0331,-0.39687 -0.21497,-0.66145 -0.17363,-0.27285 -0.56224,-0.41341 -0.38861,-0.14056 -1.0914,-0.14056 -1.86862,0 -1.93477,1.34772 h -1.41386 q 0.14883,-2.45566 3.43131,-2.45566 0.74414,0 1.33945,0.13229 0.59531,0.13229 1.00872,0.47129 0.42168,0.33072 0.64492,0.91777 0.22324,0.57877 0.22324,1.47174 v 5.10149 h -1.39733 z"
         style="font-style:normal;font-variant:normal;font-weight:normal;font-stretch:normal;font-size:16.93329999999999913px;line-height:0.55;font-family:Latha;-inkscape-font-specification:Latha;text-align:center;text-anchor:middle;stroke-width:0.264583;fill:none;stroke:#ee0c0c;stroke-opacity:1"
         id="path200" />
      <path
         d="m 331.64687,188.1112 h -1.39733 v -10.91404 h 1.39733 z"
         style="font-style:normal;font-variant:normal;font-weight:normal;font-stretch:normal;font-size:16.93329999999999913px;line-height:0.55;font-family:Latha;-inkscape-font-specification:Latha;text-align:center;text-anchor:middle;stroke-width:0.264583;fill:none;stroke:#ee0c0c;stroke-opacity:1"
         id="path202" />
      <path
         d="m 337.07082,188.30137 q -0.8599,0 -1.57096,-0.27286 -0.71107,-0.28111 -1.2237,-0.81028 -0.50436,-0.53743 -0.78548,-1.30638 -0.28112,-0.76894 -0.28112,-1.75286 0,-0.96738 0.27285,-1.72806 0.27285,-0.76894 0.76068,-1.30637 0.48782,-0.53744 1.17409,-0.81856 0.68626,-0.28938 1.50481,-0.28938 0.85163,0 1.53789,0.28112 0.68626,0.28112 1.16582,0.81855 0.48782,0.52916 0.74413,1.29811 0.26459,0.76894 0.26459,1.74459 v 0.339 h -5.95312 q 0.0496,0.68626 0.23978,1.19062 0.19844,0.50436 0.51263,0.84336 0.32246,0.33073 0.73587,0.49609 0.41341,0.16537 0.90124,0.16537 0.34726,0 0.69453,-0.0909 0.34726,-0.0992 0.62011,-0.28112 0.28112,-0.1819 0.45476,-0.44649 0.17363,-0.27285 0.1819,-0.62011 h 1.47174 q -0.0909,0.61184 -0.38861,1.0914 -0.28939,0.47129 -0.74414,0.79375 -0.44648,0.32246 -1.03352,0.48782 -0.58705,0.17364 -1.25677,0.17364 z m 2.07532,-4.91132 q -0.16537,-1.12448 -0.76894,-1.69499 -0.59532,-0.5705 -1.45521,-0.5705 -0.42168,0 -0.79375,0.14056 -0.37207,0.14056 -0.66146,0.42168 -0.28938,0.28111 -0.48782,0.71106 -0.19844,0.42168 -0.28112,0.99219 z"
         style="font-style:normal;font-variant:normal;font-weight:normal;font-stretch:normal;font-size:16.93329999999999913px;line-height:0.55;font-family:Latha;-inkscape-font-specification:Latha;text-align:center;text-anchor:middle;stroke-width:0.264583;fill:none;stroke:#ee0c0c;stroke-opacity:1"
         id="path204" />
      <path
         d="m 343.61924,181.21551 q 0.52089,-0.60358 1.11621,-0.90124 0.59531,-0.29765 1.24023,-0.29765 2.6789,0 2.6789,2.92694 v 5.16764 h -1.41387 v -5.10149 q 0,-0.48782 -0.0827,-0.83509 -0.0827,-0.34726 -0.26458,-0.56224 -0.17363,-0.22324 -0.45475,-0.32246 -0.27285,-0.0992 -0.66146,-0.0992 -1.07487,0 -2.158,1.25677 v 5.66373 h -1.39733 v -7.89615 h 1.39733 z"
         style="font-style:normal;font-variant:normal;font-weight:normal;font-stretch:normal;font-size:16.93329999999999913px;line-height:0.55;font-family:Latha;-inkscape-font-specification:Latha;text-align:center;text-anchor:middle;stroke-width:0.264583;fill:none;stroke:#ee0c0c;stroke-opacity:1"
         id="path206" />
      <path
         d="m 267.30364,206.43527 h -3.61321 v 9.61593 h -1.44694 v -9.61593 h -3.5884 v -1.29811 h 8.64855 z"
         style="font-style:normal;font-variant:normal;font-weight:normal;font-stretch:normal;font-size:16.93329999999999913px;line-height:0.55;font-family:Latha;-inkscape-font-specification:Latha;text-align:center;text-anchor:middle;stroke-width:0.264583;fill:none;stroke:#ee0c0c;stroke-opacity:1"
         id="path208" />
      <path
         d="m 273.69497,213.97588 v -1.75287 h -0.97565 q -3.05924,0 -3.05924,1.66192 0,0.60357 0.45475,0.92604 0.45475,0.32246 1.20716,0.32246 0.34726,0 0.68626,-0.0744 0.34727,-0.0827 0.65319,-0.23151 0.31419,-0.14883 0.57877,-0.3638 0.26459,-0.21497 0.45476,-0.48782 z m 0,1.2733 q -1.10795,0.99219 -2.77812,0.99219 -0.57051,0 -1.05834,-0.16537 -0.48782,-0.16536 -0.85162,-0.46302 -0.3638,-0.29765 -0.57051,-0.71933 -0.2067,-0.42168 -0.2067,-0.93431 0,-2.76985 4.77076,-2.76985 h 0.69453 q 0,-0.51263 -0.0331,-0.90951 -0.0331,-0.39687 -0.21497,-0.66145 -0.17363,-0.27285 -0.56224,-0.41341 -0.38861,-0.14056 -1.0914,-0.14056 -1.86862,0 -1.93477,1.34772 h -1.41386 q 0.14883,-2.45566 3.43131,-2.45566 0.74414,0 1.33945,0.13229 0.59531,0.13229 1.00872,0.47129 0.42168,0.33072 0.64492,0.91777 0.22324,0.57877 0.22324,1.47174 v 5.10149 h -1.39732 z"
         style="font-style:normal;font-variant:normal;font-weight:normal;font-stretch:normal;font-size:16.93329999999999913px;line-height:0.55;font-family:Latha;-inkscape-font-specification:Latha;text-align:center;text-anchor:middle;stroke-width:0.264583;fill:none;stroke:#ee0c0c;stroke-opacity:1"
         id="path210" />
      <path
         d="m 283.59202,215.43935 q 0,3.81991 -3.43958,3.81991 -0.74414,0 -1.33945,-0.16536 -0.59531,-0.16536 -1.01699,-0.47956 -0.41341,-0.30592 -0.63665,-0.7524 -0.22324,-0.44649 -0.22324,-1.00873 h 1.4552 q 0,1.30638 1.71979,1.30638 0.50436,0 0.89297,-0.12402 0.3886,-0.11576 0.65319,-0.42168 0.26458,-0.30592 0.39687,-0.81855 0.14056,-0.51263 0.14056,-1.29811 v -0.38034 q -0.95911,1.12448 -2.25722,1.12448 -0.79375,0 -1.4056,-0.28939 -0.60358,-0.29766 -1.02526,-0.82682 -0.41341,-0.53744 -0.62838,-1.28984 -0.20671,-0.75241 -0.20671,-1.67018 0,-0.97565 0.25632,-1.75286 0.25631,-0.78548 0.7028,-1.33119 0.45475,-0.5457 1.05833,-0.83509 0.61184,-0.28938 1.32291,-0.28938 0.64492,0 1.18236,0.2067 0.5457,0.19844 1.00045,0.59531 v -0.60358 h 1.39733 z m -1.39733,-1.67018 v -3.7455 q -0.94258,-0.95911 -2.09186,-0.95911 -0.90123,0 -1.43867,0.77721 -0.53743,0.76894 -0.53743,2.32337 0,1.46347 0.50436,2.21588 0.51263,0.75241 1.41386,0.75241 0.58705,0 1.12448,-0.33073 0.53743,-0.339 1.02526,-1.03353 z"
         style="font-style:normal;font-variant:normal;font-weight:normal;font-stretch:normal;font-size:16.93329999999999913px;line-height:0.55;font-family:Latha;-inkscape-font-specification:Latha;text-align:center;text-anchor:middle;stroke-width:0.264583;fill:none;stroke:#ee0c0c;stroke-opacity:1"
         id="path212" />
      <path
         d="m 298.82207,216.24137 q -0.8599,0 -1.57096,-0.27285 -0.71107,-0.28112 -1.2237,-0.81029 -0.50436,-0.53743 -0.78548,-1.30638 -0.28112,-0.76894 -0.28112,-1.75286 0,-0.96738 0.27285,-1.72806 0.27285,-0.76894 0.76068,-1.30637 0.48782,-0.53744 1.17408,-0.81856 0.68626,-0.28938 1.50482,-0.28938 0.85162,0 1.53789,0.28112 0.68626,0.28112 1.16581,0.81855 0.48783,0.52916 0.74414,1.29811 0.26459,0.76894 0.26459,1.74459 v 0.339 h -5.95312 q 0.0496,0.68626 0.23978,1.19062 0.19844,0.50436 0.51263,0.84336 0.32246,0.33073 0.73587,0.49609 0.41341,0.16537 0.90124,0.16537 0.34726,0 0.69453,-0.0909 0.34726,-0.0992 0.62011,-0.28112 0.28112,-0.1819 0.45475,-0.44649 0.17364,-0.27285 0.1819,-0.62011 h 1.47175 q -0.091,0.61184 -0.38861,1.0914 -0.28939,0.47129 -0.74414,0.79375 -0.44648,0.32246 -1.03353,0.48782 -0.58704,0.17364 -1.25676,0.17364 z m 2.07532,-4.91132 q -0.16537,-1.12448 -0.76895,-1.69499 -0.59531,-0.5705 -1.4552,-0.5705 -0.42168,0 -0.79375,0.14056 -0.37207,0.14056 -0.66146,0.42168 -0.28939,0.28112 -0.48782,0.71106 -0.19844,0.42168 -0.28112,0.99219 z"
         style="font-style:normal;font-variant:normal;font-weight:normal;font-stretch:normal;font-size:16.93329999999999913px;line-height:0.55;font-family:Latha;-inkscape-font-specification:Latha;text-align:center;text-anchor:middle;stroke-width:0.264583;fill:none;stroke:#ee0c0c;stroke-opacity:1"
         id="path214" />
      <path
         d="m 307.04067,216.05947 q -0.23151,0.0579 -0.48783,0.0827 -0.24804,0.0248 -0.52089,0.0248 -0.62839,0 -1.00046,-0.14883 -0.3638,-0.15709 -0.56224,-0.46302 -0.19017,-0.30592 -0.24804,-0.76067 -0.0579,-0.45475 -0.0579,-1.05833 v -4.48964 h -0.97565 v -1.09141 h 0.97565 v -1.96783 h 1.4056 v 1.96783 h 1.28984 v 1.09141 h -1.28984 v 4.55578 q 0,0.41341 0.0496,0.66146 0.0579,0.24805 0.15709,0.38034 0.0992,0.13229 0.23978,0.17363 0.14056,0.0413 0.32246,0.0413 0.19017,0 0.3638,-0.0165 0.17363,-0.0165 0.339,-0.0414 z"
         style="font-style:normal;font-variant:normal;font-weight:normal;font-stretch:normal;font-size:16.93329999999999913px;line-height:0.55;font-family:Latha;-inkscape-font-specification:Latha;text-align:center;text-anchor:middle;stroke-width:0.264583;fill:none;stroke:#ee0c0c;stroke-opacity:1"
         id="path216" />
      <path
         d="m 318.087,208.15505 -2.36471,7.89615 h -1.34772 l -1.70325,-5.81256 -1.70325,5.81256 h -1.35599 l -2.38124,-7.89615 h 1.57096 l 1.4552,6.01926 1.7694,-6.01926 h 1.28984 l 1.78594,6.01926 1.4552,-6.01926 z"
         style="font-style:normal;font-variant:normal;font-weight:normal;font-stretch:normal;font-size:16.93329999999999913px;line-height:0.55;font-family:Latha;-inkscape-font-specification:Latha;text-align:center;text-anchor:middle;stroke-width:0.264583;fill:none;stroke:#ee0c0c;stroke-opacity:1"
         id="path218" />
      <path
         d="m 324.23028,213.97588 v -1.75287 h -0.97565 q -3.05923,0 -3.05923,1.66192 0,0.60357 0.45475,0.92604 0.45475,0.32246 1.20716,0.32246 0.34726,0 0.68626,-0.0744 0.34726,-0.0827 0.65319,-0.23151 0.31419,-0.14883 0.57877,-0.3638 0.26458,-0.21497 0.45475,-0.48782 z m 0,1.2733 q -1.10794,0.99219 -2.77812,0.99219 -0.5705,0 -1.05833,-0.16537 -0.48782,-0.16536 -0.85162,-0.46302 -0.3638,-0.29765 -0.57051,-0.71933 -0.2067,-0.42168 -0.2067,-0.93431 0,-2.76985 4.77075,-2.76985 h 0.69453 q 0,-0.51263 -0.0331,-0.90951 -0.0331,-0.39687 -0.21497,-0.66145 -0.17363,-0.27285 -0.56224,-0.41341 -0.38861,-0.14056 -1.09141,-0.14056 -1.86861,0 -1.93476,1.34772 h -1.41386 q 0.14883,-2.45566 3.43131,-2.45566 0.74414,0 1.33945,0.13229 0.59531,0.13229 1.00872,0.47129 0.42168,0.33072 0.64492,0.91777 0.22324,0.57877 0.22324,1.47174 v 5.10149 h -1.39733 z"
         style="font-style:normal;font-variant:normal;font-weight:normal;font-stretch:normal;font-size:16.93329999999999913px;line-height:0.55;font-family:Latha;-inkscape-font-specification:Latha;text-align:center;text-anchor:middle;stroke-width:0.264583;fill:none;stroke:#ee0c0c;stroke-opacity:1"
         id="path220" />
      <path
         d="m 330.53893,216.24137 q -3.22461,0 -3.39824,-2.54661 h 1.41386 q 0.008,1.43867 1.96784,1.43867 0.43821,0 0.76894,-0.0909 0.339,-0.0992 0.56224,-0.26459 0.22324,-0.17363 0.339,-0.39687 0.11575,-0.23151 0.11575,-0.50436 0,-0.28112 -0.0909,-0.45475 -0.0827,-0.17364 -0.33899,-0.30593 -0.24805,-0.13229 -0.69453,-0.25631 -0.44649,-0.13229 -1.16582,-0.32246 -0.7028,-0.17364 -1.21543,-0.34727 -0.50436,-0.17363 -0.83509,-0.42168 -0.32246,-0.24804 -0.47956,-0.61184 -0.15709,-0.36381 -0.15709,-0.91778 0,-0.48782 0.2067,-0.90123 0.20671,-0.42168 0.58705,-0.7276 0.3886,-0.30593 0.93431,-0.47956 0.5457,-0.17363 1.21542,-0.17363 3.11712,0 3.16673,2.21588 h -1.38906 q -0.0744,-1.10794 -1.67018,-1.10794 -0.35553,0 -0.66146,0.0744 -0.29765,0.0661 -0.5209,0.19844 -0.22324,0.13229 -0.34726,0.33073 -0.12402,0.19017 -0.12402,0.44648 0,0.23151 0.0579,0.38034 0.0579,0.14883 0.27286,0.28112 0.22324,0.12402 0.65318,0.24804 0.42995,0.12403 1.17409,0.30593 0.71933,0.17363 1.2485,0.3638 0.52917,0.1819 0.87643,0.44648 0.35553,0.26459 0.5209,0.64492 0.17363,0.38034 0.17363,0.95085 0,0.53743 -0.22324,0.99218 -0.22324,0.45475 -0.63665,0.79375 -0.40515,0.339 -0.99219,0.52917 -0.58704,0.19017 -1.31464,0.19017 z"
         style="font-style:normal;font-variant:normal;font-weight:normal;font-stretch:normal;font-size:16.93329999999999913px;line-height:0.55;font-family:Latha;-inkscape-font-specification:Latha;text-align:center;text-anchor:middle;stroke-width:0.264583;fill:none;stroke:#ee0c0c;stroke-opacity:1"
         id="path222" />
      <path
         d="m 248.19712,251.30167 q 0,4.73125 -1.72812,7.23603 -1.72813,2.47948 -5.08761,2.47948 h -6.85721 V 227.6201 h 6.49776 q 1.42398,0 2.58528,0.60723 1.1613,0.58191 1.97698,1.69516 0.81567,1.08793 1.25808,2.68189 0.4424,1.56864 0.4424,3.54209 0,2.45419 -0.64978,4.19994 -0.64978,1.74575 -1.97698,2.90959 0.8848,0.37952 1.54841,1.18914 0.6636,0.78434 1.10599,1.84696 0.44241,1.06263 0.66361,2.35298 0.22119,1.26504 0.22119,2.65659 z m -11.25356,-9.69021 h 4.06456 q 2.00463,0 2.94473,-1.16385 0.95392,-1.16384 0.95392,-3.92162 0,-1.23975 -0.2212,-2.15057 -0.20738,-0.93613 -0.70508,-1.54334 -0.48387,-0.63252 -1.2719,-0.93614 -0.78803,-0.30361 -1.9355,-0.30361 h -3.82953 z m 0,15.43349 h 4.42401 q 4.3134,0 4.3134,-5.74328 0,-1.49275 -0.2212,-2.58068 -0.2212,-1.08794 -0.76038,-1.79637 -0.53917,-0.70841 -1.43779,-1.03732 -0.89863,-0.35423 -2.23966,-0.35423 h -4.07838 z"
         style="font-style:normal;font-variant:normal;font-weight:normal;font-stretch:normal;font-size:25.39999999999999858px;line-height:0.55;font-family:Latha;-inkscape-font-specification:Latha;text-align:center;text-anchor:middle;stroke-width:0.398987;fill:none;stroke:#ee0c0c;stroke-opacity:1"
         id="path224" />
      <path
         d="m 256.86541,261.59909 q -1.43779,0 -2.62674,-0.83493 -1.18896,-0.86023 -2.04611,-2.47948 -0.84333,-1.64455 -1.31338,-3.99753 -0.47005,-2.35296 -0.47005,-5.36376 0,-2.9602 0.45623,-5.28787 0.45622,-2.35297 1.2719,-3.99752 0.81568,-1.64457 1.96316,-2.50478 1.14747,-0.88554 2.51615,-0.88554 1.42397,0 2.57146,0.86023 1.14747,0.86022 1.94932,2.50477 0.81568,1.61925 1.24426,3.97223 0.44239,2.35298 0.44239,5.33848 v 1.03732 h -9.95401 q 0.0829,2.09998 0.40092,3.64333 0.3318,1.54334 0.85715,2.58068 0.53918,1.01203 1.23043,1.51805 0.69126,0.50602 1.50692,0.50602 0.58066,0 1.16131,-0.27832 0.58065,-0.30361 1.03688,-0.86023 0.47005,-0.55661 0.76038,-1.36623 0.29031,-0.83493 0.30415,-1.89756 h 2.46085 q -0.15207,1.87225 -0.64978,3.3397 -0.48387,1.44214 -1.24425,2.42887 -0.74655,0.98675 -1.72813,1.49275 -0.98158,0.53132 -2.10141,0.53132 z m 3.47009,-15.02868 q -0.27649,-3.44091 -1.28573,-5.18666 -0.99539,-1.74575 -2.4332,-1.74575 -0.70508,0 -1.3272,0.43011 -0.62213,0.43012 -1.10601,1.29034 -0.48387,0.86023 -0.81567,2.17587 -0.33181,1.29034 -0.47006,3.03609 z"
         style="font-style:normal;font-variant:normal;font-weight:normal;font-stretch:normal;font-size:25.39999999999999858px;line-height:0.55;font-family:Latha;-inkscape-font-specification:Latha;text-align:center;text-anchor:middle;stroke-width:0.398987;fill:none;stroke:#ee0c0c;stroke-opacity:1"
         id="path226" />
      <path
         d="m 270.19274,261.59909 q -5.39176,0 -5.68208,-7.79264 h 2.36408 q 0.0138,4.40234 3.29036,4.40234 0.73272,0 1.28571,-0.27832 0.56683,-0.30361 0.94011,-0.80961 0.37328,-0.53132 0.56683,-1.21446 0.19354,-0.70841 0.19354,-1.54334 0,-0.86023 -0.15206,-1.39155 -0.13826,-0.53132 -0.56683,-0.93611 -0.41476,-0.40482 -1.16131,-0.78434 -0.74654,-0.4048 -1.94933,-0.98673 -1.17513,-0.53132 -2.03227,-1.06264 -0.84333,-0.53132 -1.39633,-1.29034 -0.53918,-0.75902 -0.80185,-1.87225 -0.26268,-1.11323 -0.26268,-2.80839 0,-1.49275 0.34563,-2.7578 0.34562,-1.29034 0.98158,-2.22646 0.64977,-0.93614 1.56222,-1.46745 0.91246,-0.53132 2.03229,-0.53132 5.21203,0 5.29497,6.78062 h -2.3226 q -0.12442,-3.3903 -2.79265,-3.3903 -0.59447,0 -1.106,0.2277 -0.49771,0.20237 -0.87098,0.60721 -0.37328,0.40482 -0.58066,1.01204 -0.20737,0.58192 -0.20737,1.36623 0,0.70844 0.0968,1.16385 0.0968,0.45541 0.45623,0.86022 0.37327,0.37953 1.09218,0.75903 0.7189,0.37952 1.96315,0.93613 1.20278,0.53132 2.08758,1.11323 0.8848,0.55662 1.46545,1.36625 0.59448,0.80962 0.87098,1.97346 0.29033,1.16384 0.29033,2.9096 0,1.64454 -0.37327,3.03609 -0.37329,1.39155 -1.06454,2.42889 -0.67742,1.03732 -1.659,1.61925 -0.98157,0.58191 -2.19818,0.58191 z"
         style="font-style:normal;font-variant:normal;font-weight:normal;font-stretch:normal;font-size:25.39999999999999858px;line-height:0.55;font-family:Latha;-inkscape-font-specification:Latha;text-align:center;text-anchor:middle;stroke-width:0.398987;fill:none;stroke:#ee0c0c;stroke-opacity:1"
         id="path228" />
      <path
         d="m 283.60302,236.24768 q 1.42398,0 2.57145,0.86023 1.14749,0.86022 1.94933,2.50477 0.81568,1.61925 1.24425,3.97223 0.44241,2.35298 0.44241,5.33848 0,3.0108 -0.44241,5.36376 -0.44239,2.35298 -1.25807,3.99753 -0.81568,1.61925 -1.96315,2.47948 -1.13366,0.83493 -2.54381,0.83493 -1.38251,0 -2.52998,-0.83493 -1.13366,-0.86023 -1.96316,-2.45416 -0.81567,-1.61926 -1.2719,-3.97224 -0.4424,-2.37827 -0.4424,-5.41437 0,-2.9855 0.4424,-5.33848 0.4424,-2.37827 1.25808,-3.99752 0.81568,-1.61926 1.96315,-2.47948 1.14748,-0.86023 2.54381,-0.86023 z m 0,21.96111 q 0.8295,0 1.52075,-0.58193 0.69125,-0.58191 1.18895,-1.74575 0.49771,-1.16384 0.77421,-2.9096 0.27649,-1.74575 0.27649,-4.04812 0,-2.30238 -0.27649,-4.04814 -0.2765,-1.74575 -0.77421,-2.90959 -0.4977,-1.16384 -1.18895,-1.74575 -0.69125,-0.58191 -1.52075,-0.58191 -0.84333,0 -1.53457,0.58191 -0.69126,0.58191 -1.18897,1.74575 -0.49769,1.16384 -0.7742,2.90959 -0.27649,1.74576 -0.27649,4.04814 0,2.30237 0.27649,4.04812 0.27651,1.74576 0.7742,2.9096 0.49771,1.16384 1.18897,1.74575 0.69124,0.58193 1.53457,0.58193 z"
         style="font-style:normal;font-variant:normal;font-weight:normal;font-stretch:normal;font-size:25.39999999999999858px;line-height:0.55;font-family:Latha;-inkscape-font-specification:Latha;text-align:center;text-anchor:middle;stroke-width:0.398987;fill:none;stroke:#ee0c0c;stroke-opacity:1"
         id="path230" />
      <path
         d="m 294.80129,239.91629 q 0.87098,-1.84695 1.86638,-2.75777 0.9954,-0.91084 2.07375,-0.91084 4.47931,0 4.47931,8.95648 v 15.81302 h -2.36408 v -15.61061 q 0,-1.49275 -0.13826,-2.55539 -0.13824,-1.06261 -0.44239,-1.72043 -0.29033,-0.68314 -0.76038,-0.98675 -0.45623,-0.30359 -1.106,-0.30359 -1.79725,0 -3.60833,3.84571 v 17.33106 h -2.33643 V 236.8549 h 2.33643 z"
         style="font-style:normal;font-variant:normal;font-weight:normal;font-stretch:normal;font-size:25.39999999999999858px;line-height:0.55;font-family:Latha;-inkscape-font-specification:Latha;text-align:center;text-anchor:middle;stroke-width:0.398987;fill:none;stroke:#ee0c0c;stroke-opacity:1"
         id="path232" />
      <path
         d="m 315.05496,254.03415 v -11.46126 q -1.57606,-2.93489 -3.49774,-2.93489 -1.50692,0 -2.40555,2.37827 -0.89863,2.35298 -0.89863,7.10953 0,4.47824 0.84333,6.7806 0.85715,2.30239 2.36408,2.30239 0.98157,0 1.8802,-1.01204 0.89863,-1.03733 1.71431,-3.1626 z m 0,4.12403 q -1.60372,3.44091 -3.77424,3.44091 -1.3272,0 -2.35025,-0.88552 -1.00923,-0.91084 -1.7143,-2.5301 -0.69126,-1.64454 -1.05071,-3.94691 -0.34563,-2.30237 -0.34563,-5.11076 0,-2.9855 0.42858,-5.36377 0.42858,-2.40358 1.17513,-4.07344 0.76037,-1.66984 1.7696,-2.55537 1.02306,-0.88554 2.21201,-0.88554 1.07835,0 1.97697,0.63252 0.91246,0.60723 1.67284,1.82166 V 227.6201 h 2.33642 v 33.39708 h -2.33642 z"
         style="font-style:normal;font-variant:normal;font-weight:normal;font-stretch:normal;font-size:25.39999999999999858px;line-height:0.55;font-family:Latha;-inkscape-font-specification:Latha;text-align:center;text-anchor:middle;stroke-width:0.398987;fill:none;stroke:#ee0c0c;stroke-opacity:1"
         id="path234" />
      <path
         d="m 326.48826,261.59909 q -1.43781,0 -2.62676,-0.83493 -1.18896,-0.86023 -2.04611,-2.47948 -0.84333,-1.64455 -1.31338,-3.99753 -0.47005,-2.35296 -0.47005,-5.36376 0,-2.9602 0.45623,-5.28787 0.45623,-2.35297 1.2719,-3.99752 0.81568,-1.64457 1.96316,-2.50478 1.14747,-0.88554 2.51615,-0.88554 1.42398,0 2.57146,0.86023 1.14747,0.86022 1.94932,2.50477 0.81568,1.61925 1.24426,3.97223 0.4424,2.35298 0.4424,5.33848 v 1.03732 h -9.95402 q 0.0829,2.09998 0.40093,3.64333 0.33179,1.54334 0.85714,2.58068 0.53918,1.01203 1.23043,1.51805 0.69126,0.50602 1.50694,0.50602 0.58064,0 1.16129,-0.27832 0.58065,-0.30361 1.03688,-0.86023 0.47005,-0.55661 0.76038,-1.36623 0.29033,-0.83493 0.30415,-1.89756 h 2.46086 q -0.15208,1.87225 -0.64978,3.3397 -0.48388,1.44214 -1.24425,2.42887 -0.74656,0.98675 -1.72814,1.49275 -0.98157,0.53132 -2.10139,0.53132 z m 3.47007,-15.02868 q -0.27649,-3.44091 -1.28572,-5.18666 -0.9954,-1.74575 -2.43321,-1.74575 -0.70508,0 -1.3272,0.43011 -0.62213,0.43012 -1.10601,1.29034 -0.48387,0.86023 -0.81567,2.17587 -0.3318,1.29034 -0.47006,3.03609 z"
         style="font-style:normal;font-variant:normal;font-weight:normal;font-stretch:normal;font-size:25.39999999999999858px;line-height:0.55;font-family:Latha;-inkscape-font-specification:Latha;text-align:center;text-anchor:middle;stroke-width:0.398987;fill:none;stroke:#ee0c0c;stroke-opacity:1"
         id="path236" />
      <path
         d="m 341.95846,240.77652 q -0.4977,-0.30361 -1.42398,-0.30361 -0.91246,0 -1.67282,0.86023 -0.76038,0.86023 -1.42399,2.58068 v 17.10336 h -2.33642 V 236.8549 h 2.33642 v 3.33971 q 1.49311,-3.94693 3.45626,-3.94693 0.47005,0 1.06453,0.20237 z"
         style="font-style:normal;font-variant:normal;font-weight:normal;font-stretch:normal;font-size:25.39999999999999858px;line-height:0.55;font-family:Latha;-inkscape-font-specification:Latha;text-align:center;text-anchor:middle;stroke-width:0.398987;fill:none;stroke:#ee0c0c;stroke-opacity:1"
         id="path238" />
      <path
         d="m 349.2166,261.59909 q -1.43781,0 -2.62676,-0.83493 -1.18895,-0.86023 -2.04611,-2.47948 -0.84333,-1.64455 -1.31338,-3.99753 -0.47005,-2.35296 -0.47005,-5.36376 0,-2.9602 0.45623,-5.28787 0.45623,-2.35297 1.2719,-3.99752 0.81568,-1.64457 1.96316,-2.50478 1.14747,-0.88554 2.51615,-0.88554 1.42398,0 2.57146,0.86023 1.14747,0.86022 1.94932,2.50477 0.81568,1.61925 1.24426,3.97223 0.4424,2.35298 0.4424,5.33848 v 1.03732 h -9.95402 q 0.0829,2.09998 0.40093,3.64333 0.33179,1.54334 0.85714,2.58068 0.53918,1.01203 1.23043,1.51805 0.69126,0.50602 1.50694,0.50602 0.58064,0 1.16129,-0.27832 0.58065,-0.30361 1.03688,-0.86023 0.47005,-0.55661 0.76038,-1.36623 0.29033,-0.83493 0.30415,-1.89756 h 2.46086 q -0.15208,1.87225 -0.64978,3.3397 -0.48388,1.44214 -1.24425,2.42887 -0.74656,0.98675 -1.72814,1.49275 -0.98157,0.53132 -2.10139,0.53132 z m 3.47007,-15.02868 q -0.27649,-3.44091 -1.28572,-5.18666 -0.9954,-1.74575 -2.43321,-1.74575 -0.70508,0 -1.3272,0.43011 -0.62213,0.43012 -1.10601,1.29034 -0.48387,0.86023 -0.81567,2.17587 -0.3318,1.29034 -0.47005,3.03609 z"
         style="font-style:normal;font-variant:normal;font-weight:normal;font-stretch:normal;font-size:25.39999999999999858px;line-height:0.55;font-family:Latha;-inkscape-font-specification:Latha;text-align:center;text-anchor:middle;stroke-width:0.398987;fill:none;stroke:#ee0c0c;stroke-opacity:1"
         id="path240" />
      <path
         d="m 362.54392,261.59909 q -5.39176,0 -5.68209,-7.79264 h 2.36408 q 0.0138,4.40234 3.29036,4.40234 0.73273,0 1.28573,-0.27832 0.56683,-0.30361 0.9401,-0.80961 0.37327,-0.53132 0.56683,-1.21446 0.19355,-0.70841 0.19355,-1.54334 0,-0.86023 -0.15208,-1.39155 -0.13825,-0.53132 -0.56682,-0.93611 -0.41475,-0.40482 -1.16131,-0.78434 -0.74655,-0.4048 -1.94933,-0.98673 -1.17513,-0.53132 -2.03227,-1.06264 -0.84334,-0.53132 -1.39633,-1.29034 -0.53918,-0.75902 -0.80186,-1.87225 -0.26267,-1.11323 -0.26267,-2.80839 0,-1.49275 0.34563,-2.7578 0.34563,-1.29034 0.98157,-2.22646 0.64977,-0.93614 1.56223,-1.46745 0.91245,-0.53132 2.03228,-0.53132 5.21204,0 5.29498,6.78062 h -2.3226 q -0.12442,-3.3903 -2.79266,-3.3903 -0.59447,0 -1.10599,0.2277 -0.49771,0.20237 -0.87098,0.60721 -0.37329,0.40482 -0.58066,1.01204 -0.20738,0.58192 -0.20738,1.36623 0,0.70844 0.0968,1.16385 0.0968,0.45541 0.45623,0.86022 0.37327,0.37953 1.09217,0.75903 0.7189,0.37952 1.96316,0.93613 1.20278,0.53132 2.08758,1.11323 0.8848,0.55662 1.46545,1.36625 0.59448,0.80962 0.87098,1.97346 0.29032,1.16384 0.29032,2.9096 0,1.64454 -0.37328,3.03609 -0.37327,1.39155 -1.06452,2.42889 -0.67742,1.03732 -1.659,1.61925 -0.98158,0.58191 -2.19818,0.58191 z"
         style="font-style:normal;font-variant:normal;font-weight:normal;font-stretch:normal;font-size:25.39999999999999858px;line-height:0.55;font-family:Latha;-inkscape-font-specification:Latha;text-align:center;text-anchor:middle;stroke-width:0.398987;fill:none;stroke:#ee0c0c;stroke-opacity:1"
         id="path242" />
      <path
         d="m 284.70244,282.62198 h -1.42213 v -5.10149 q 0,-0.49609 -0.0661,-0.84336 -0.0661,-0.34726 -0.21497,-0.56224 -0.14056,-0.22324 -0.37207,-0.31419 -0.23151,-0.0992 -0.56224,-0.0992 -1.03353,0 -2.02571,1.25677 v 5.66373 h -1.3808 v -5.10149 q 0,-0.49609 -0.0744,-0.84336 -0.0661,-0.34726 -0.21497,-0.56224 -0.14883,-0.22324 -0.38034,-0.31419 -0.23151,-0.0992 -0.56224,-0.0992 -1.01699,0 -2.00918,1.25677 v 5.66373 h -1.39732 v -7.89615 h 1.39732 v 1.00046 q 1.01699,-1.19889 2.22415,-1.19889 1.71979,0 2.20762,1.43867 0.40514,-0.47129 0.7276,-0.75241 0.33073,-0.28939 0.61185,-0.43822 0.28112,-0.15709 0.53743,-0.19843 0.26458,-0.0496 0.53743,-0.0496 2.43913,0 2.43913,2.92694 z"
         style="font-style:normal;font-variant:normal;font-weight:normal;font-stretch:normal;font-size:16.93329999999999913px;line-height:0.55;font-family:Latha;-inkscape-font-specification:Latha;text-align:center;text-anchor:middle;stroke-width:0.264583;fill:none;stroke:#ee0c0c;stroke-opacity:1"
         id="path244" />
      <path
         d="m 291.76349,280.54666 v -1.75286 h -0.97565 q -3.05924,0 -3.05924,1.66191 0,0.60358 0.45475,0.92604 0.45476,0.32246 1.20716,0.32246 0.34727,0 0.68627,-0.0744 0.34726,-0.0827 0.65318,-0.23151 0.3142,-0.14883 0.57878,-0.3638 0.26458,-0.21497 0.45475,-0.48782 z m 0,1.2733 q -1.10794,0.99219 -2.77812,0.99219 -0.57051,0 -1.05833,-0.16537 -0.48782,-0.16536 -0.85163,-0.46302 -0.3638,-0.29765 -0.5705,-0.71933 -0.20671,-0.42168 -0.20671,-0.93431 0,-2.76985 4.77076,-2.76985 h 0.69453 q 0,-0.51263 -0.0331,-0.90951 -0.0331,-0.39687 -0.21498,-0.66145 -0.17363,-0.27285 -0.56223,-0.41341 -0.38861,-0.14056 -1.09141,-0.14056 -1.86861,0 -1.93476,1.34772 h -1.41386 q 0.14882,-2.45566 3.4313,-2.45566 0.74414,0 1.33945,0.13229 0.59532,0.13229 1.00873,0.47129 0.42168,0.33073 0.64492,0.91777 0.22324,0.57877 0.22324,1.47174 v 5.10149 h -1.39733 z"
         style="font-style:normal;font-variant:normal;font-weight:normal;font-stretch:normal;font-size:16.93329999999999913px;line-height:0.55;font-family:Latha;-inkscape-font-specification:Latha;text-align:center;text-anchor:middle;stroke-width:0.264583;fill:none;stroke:#ee0c0c;stroke-opacity:1"
         id="path246" />
      <path
         d="m 298.45247,282.81215 q -0.82682,0 -1.51308,-0.27285 -0.67799,-0.28112 -1.17409,-0.80202 -0.48782,-0.52917 -0.76067,-1.29811 -0.26458,-0.77721 -0.26458,-1.7694 0,-0.97565 0.26458,-1.74459 0.26458,-0.77721 0.75241,-1.30638 0.48782,-0.52916 1.17408,-0.81028 0.68626,-0.28112 1.52135,-0.28112 0.63666,0 1.18236,0.16536 0.5457,0.16537 0.95911,0.49609 0.42168,0.32246 0.68626,0.80202 0.27285,0.47956 0.35554,1.09967 h -1.44694 q -0.0165,-0.35553 -0.1571,-0.62838 -0.14056,-0.27285 -0.37207,-0.45475 -0.23151,-0.1819 -0.5457,-0.27285 -0.30592,-0.0992 -0.66146,-0.0992 -0.50436,0 -0.91777,0.19017 -0.41341,0.19017 -0.71106,0.5705 -0.29766,0.38034 -0.46302,0.95085 -0.16537,0.5705 -0.16537,1.32291 0,0.75241 0.16537,1.32292 0.16536,0.5705 0.46302,0.95084 0.29765,0.38034 0.71106,0.57051 0.41341,0.19017 0.91777,0.19017 0.33073,0 0.63666,-0.091 0.31419,-0.091 0.5457,-0.26459 0.23978,-0.1819 0.3886,-0.44648 0.14883,-0.27285 0.16537,-0.63665 h 1.44694 q -0.0827,0.62838 -0.35554,1.10794 -0.27285,0.47129 -0.69453,0.79375 -0.41341,0.32246 -0.95911,0.47955 -0.5457,0.16537 -1.17409,0.16537 z"
         style="font-style:normal;font-variant:normal;font-weight:normal;font-stretch:normal;font-size:16.93329999999999913px;line-height:0.55;font-family:Latha;-inkscape-font-specification:Latha;text-align:center;text-anchor:middle;stroke-width:0.264583;fill:none;stroke:#ee0c0c;stroke-opacity:1"
         id="path248" />
      <path
         d="m 304.28983,275.72629 q 0.5209,-0.60358 1.11621,-0.90124 0.59531,-0.29765 1.24023,-0.29765 2.6789,0 2.6789,2.92694 v 5.16764 h -1.41386 v -5.10149 q 0,-0.48782 -0.0827,-0.83509 -0.0827,-0.34726 -0.26458,-0.56224 -0.17364,-0.22324 -0.45476,-0.32246 -0.27285,-0.0992 -0.66145,-0.0992 -1.07487,0 -2.15801,1.25677 v 5.66373 h -1.39732 v -10.91404 h 1.39732 z"
         style="font-style:normal;font-variant:normal;font-weight:normal;font-stretch:normal;font-size:16.93329999999999913px;line-height:0.55;font-family:Latha;-inkscape-font-specification:Latha;text-align:center;text-anchor:middle;stroke-width:0.264583;fill:none;stroke:#ee0c0c;stroke-opacity:1"
         id="path250" />
      <path
         d="m 314.74085,282.81215 q -0.85989,0 -1.57096,-0.27285 -0.71106,-0.28112 -1.22369,-0.81029 -0.50436,-0.53743 -0.78548,-1.30638 -0.28112,-0.76894 -0.28112,-1.75286 0,-0.96738 0.27285,-1.72805 0.27285,-0.76895 0.76068,-1.30638 0.48782,-0.53744 1.17408,-0.81856 0.68626,-0.28938 1.50482,-0.28938 0.85162,0 1.53788,0.28112 0.68627,0.28112 1.16582,0.81855 0.48783,0.52917 0.74414,1.29811 0.26458,0.76894 0.26458,1.74459 v 0.339 h -5.95311 q 0.0496,0.68626 0.23978,1.19062 0.19844,0.50436 0.51263,0.84336 0.32246,0.33073 0.73587,0.49609 0.41341,0.16537 0.90123,0.16537 0.34727,0 0.69453,-0.091 0.34727,-0.0992 0.62012,-0.28112 0.28112,-0.1819 0.45475,-0.44649 0.17364,-0.27285 0.1819,-0.62011 h 1.47175 q -0.091,0.61184 -0.38861,1.0914 -0.28939,0.47129 -0.74414,0.79375 -0.44648,0.32246 -1.03353,0.48782 -0.58704,0.17364 -1.25677,0.17364 z m 2.07533,-4.91132 q -0.16537,-1.12448 -0.76895,-1.69499 -0.59531,-0.5705 -1.4552,-0.5705 -0.42168,0 -0.79375,0.14056 -0.37207,0.14056 -0.66146,0.42168 -0.28939,0.28112 -0.48782,0.71106 -0.19844,0.42168 -0.28112,0.99219 z"
         style="font-style:normal;font-variant:normal;font-weight:normal;font-stretch:normal;font-size:16.93329999999999913px;line-height:0.55;font-family:Latha;-inkscape-font-specification:Latha;text-align:center;text-anchor:middle;stroke-width:0.264583;fill:none;stroke:#ee0c0c;stroke-opacity:1"
         id="path252" />
      <path
         d="m 321.28928,275.72629 q 0.5209,-0.60358 1.11621,-0.90124 0.59531,-0.29765 1.24023,-0.29765 2.6789,0 2.6789,2.92694 v 5.16764 h -1.41386 v -5.10149 q 0,-0.48782 -0.0827,-0.83509 -0.0827,-0.34726 -0.26458,-0.56224 -0.17363,-0.22324 -0.45475,-0.32246 -0.27285,-0.0992 -0.66146,-0.0992 -1.07487,0 -2.158,1.25677 v 5.66373 h -1.39733 v -7.89615 h 1.39733 z"
         style="font-style:normal;font-variant:normal;font-weight:normal;font-stretch:normal;font-size:16.93329999999999913px;line-height:0.55;font-family:Latha;-inkscape-font-specification:Latha;text-align:center;text-anchor:middle;stroke-width:0.264583;fill:none;stroke:#ee0c0c;stroke-opacity:1"
         id="path254" />
      <path
         d="m 330.22722,282.62198 h -1.52136 v -1.52135 h 1.52136 z"
         style="font-style:normal;font-variant:normal;font-weight:normal;font-stretch:normal;font-size:16.93329999999999913px;line-height:0.55;font-family:Latha;-inkscape-font-specification:Latha;text-align:center;text-anchor:middle;stroke-width:0.264583;fill:none;stroke:#ee0c0c;stroke-opacity:1"
         id="path256" />
      <text
         style="font-size:50.79999999999999716px;line-height:1.25;font-family:fiolex;-inkscape-font-specification:fiolex;white-space:pre;shape-inside:url(#rect84);fill:none;stroke:#ee0c0c;stroke-opacity:1;"
         id="text82"
         xml:space="preserve" />
    </g>
  </g>
</svg>
