<?xml version="1.0" encoding="utf-8"?>
<!-- Generator: Adobe Illustrator 22.1.0, SVG Export Plug-In . SVG Version: 6.00 Build 0)  -->
<svg version="1.1" id="Ebene_1" xmlns="http://www.w3.org/2000/svg" xmlns:xlink="http://www.w3.org/1999/xlink" x="0px" y="0px"
	 viewBox="0 0 283.5 283.5" style="enable-background:new 0 0 283.5 283.5;" xml:space="preserve">
<style type="text/css">
	.st0{fill:none;stroke:#FF0000;stroke-width:0.2646;}
	.st1{fill:none;stroke:#FF0000;stroke-width:0.265;}
	.st2{fill:none;stroke:#0000FF;stroke-width:0.2646;}
</style>
<g id="layer1-5" transform="translate(0,-43)" inkscape:label="Cut Path">
	<path id="path1661" inkscape:connector-curvature="0" sodipodi:nodetypes="cccccccccccccssssssssccccc" class="st0" d="
		M188.7,111.8v6.7 M175.5,111.8v6.6 M175.5,118.5h13.2 M175.5,111.8h13.2 M86.7,118.5h16 M86.7,111.8h16 M82.7,100.2h114.8
		c0.7,0,1.2,0.5,1.2,1.2v28c0,0.7-0.5,1.2-1.2,1.2H82.7c-0.7,0-1.2-0.5-1.2-1.2v-28C81.5,100.7,82,100.2,82.7,100.2L82.7,100.2z
		 M86.7,111.9v6.5 M102.7,111.9v6.6"/>
	<path id="path1805" inkscape:connector-curvature="0" sodipodi:nodetypes="cccccccccccccssssssssccccc" class="st0" d="M188.7,78.3
		V85 M175.5,78.4V85 M175.5,85h13.2 M175.5,78.3h13.2 M86.7,85h16 M86.7,78.3h16 M82.7,66.7h114.8c0.7,0,1.2,0.5,1.2,1.2v28
		c0,0.7-0.5,1.2-1.2,1.2H82.7c-0.7,0-1.2-0.5-1.2-1.2v-28C81.5,67.2,82,66.7,82.7,66.7L82.7,66.7z M86.7,78.4v6.5 M102.7,78.4V85"/>
	<path id="path1402" inkscape:connector-curvature="0" class="st1" d="M116,299.4H42 M26.7,302.9h15.5 M26.7,302.9
		c0.2-6.4-2-26.5-2.4-40.9c-0.3-12.1-0.6-24.1,0.2-36.2c0.5-6.8,1.4-13.6,2.8-20.2c1.5-6.6,3.1-13.3,5.9-19.5
		c3.4-7.5,8.1-14.5,13.2-21C52,157.9,58.1,151,65,145.1c3.5-3,7.5-5.4,11.5-7.8c2.1-1.2,6.6-3.3,6.6-3.3s6.5,2.8,9.4,4.9
		c5,3.6,9.1,8.3,13.2,12.9c4.8,5.5,9.2,11.4,12.9,17.6c3.2,5.4,6,11.1,8.2,16.9c2.5,6.4,4.2,13.1,5.9,19.7
		c1.3,5.3,2.8,10.7,3.3,16.2c0.9,10.9,0,22-0.9,32.9c-0.8,9.1-2.7,18.2-4,27.3c-1,6.8-2.8,20.4-2.8,20.4l-12.7-0.2l0.5-3.3
		 M42,299.4c0.1,1.9,0.2,3.5,0.2,3.5"/>
	<path id="path424" inkscape:connector-curvature="0" class="st1" d="M149.2,302.9h15.5 M164.4,299.4c-0.5-4.5-2.3-19.1-2.7-23.6
		c-0.4-5.5-0.6-11-0.8-16.4c-0.3-6.5-0.8-13.1-0.7-19.6c0.1-5.4,0.3-10.8,1.1-16.2c0.6-3.9,1.6-7.8,2.6-11.6
		c1.6-5.8,3.1-11.7,5.4-17.3c2-4.8,4.6-9.4,7.3-13.9c2.2-3.7,4.5-7.3,7-10.7c2.5-3.3,5.1-6.5,8.1-9.3c3.5-3.1,7-6.8,11.5-8.1
		c1.4-0.4,2.2-0.6,4.2,0.2c2.9,1.2,7.8,6.4,11.3,10.1c2.5,2.7,4.8,5.7,6.8,8.8c2.7,4.2,4.9,8.8,6.8,13.4c2.9,6.9,5.3,13.9,7,21.1
		c2,7.9,2.9,15.9,4,24c0.8,5.8,1.6,11.6,1.6,17.4c0,8.2-1.3,16.3-2.3,24.4l-4.1,26.7 M149.2,302.9c0.2-6.4-2-26.5-2.4-40.9
		c-0.3-12.1-0.6-24.1,0.2-36.2c0.5-6.8,1.4-13.6,2.8-20.2c1.5-6.6,3.1-13.3,5.9-19.5c3.4-7.5,8.1-14.5,13.2-21
		c5.5-7.2,11.6-14.2,18.6-20.1c3.5-3,7.5-5.4,11.5-7.8c2.1-1.2,6.6-3.3,6.6-3.3s6.5,2.8,9.4,4.9c5,3.6,9.1,8.3,13.2,12.9
		c4.8,5.5,9.2,11.4,12.9,17.6c3.2,5.4,6,11.1,8.2,16.9c2.5,6.4,4.2,13.1,5.9,19.7c1.3,5.3,2.8,10.7,3.3,16.2c0.9,10.9,0,22-0.9,32.9
		c-0.8,9.1-2.7,18.2-4,27.3c-1,6.8-2.8,20.4-2.8,20.4l-12.7-0.2l0.6-3.9 M164.4,299.4c0.1,1.9,0.2,3.5,0.2,3.5 M165.9,234.7
		l23.1-0.9l0.4-3.4l-22.5-7.5 M170.9,278.7l21.3-2.3l0.4-4.2l-22.3-3 M166.9,222.9l-1,11.8 M170.2,269.2l0.7,9.5 M225.7,235.3H237
		V261h-11.3V235.3z M218,197.3c0,8.6-7,15.6-15.6,15.6c-8.6,0-15.6-7-15.6-15.6c0-8.6,7-15.6,15.6-15.6S218,188.7,218,197.3
		L218,197.3z M200.9,184.5l-0.2,11.4 M189.5,196.3l11.2-0.4 M203.7,184.4v11.7l11.6,0.2 M189.7,199.4l11-0.4l0.1,11.2 M204.2,210.2
		l-0.1-11.1l11.4,0.4 M215.4,199.4c-1,5.6-5.6,9.9-11.3,10.6 M189.6,199.3c0.9,5.6,5.4,9.9,11.1,10.7 M215.3,196.2
		c-0.5-6.1-5.3-11.1-11.6-11.8 M189.6,196.2c0.5-6,5.2-10.9,11.4-11.8"/>
</g>
<g id="layer3" inkscape:label="Engrave Path">
	<path id="path452" inkscape:connector-curvature="0" class="st2" d="M249.1,259.8c0,0-3.1-11.9-3.9-17.9c-0.6-4.3-0.6-13-0.6-13
		l-0.1-12.5 M254,158.8c0,0-3,15-4,22.8c-1,8.2-1.3,16.5-1.7,24.8c-0.3,6-0.3,12-0.3,17.9c0,5.1-0.9,10.4,0.2,15.4
		c0.8,3.6,3.8,9.8,3.8,9.8 M255.9,166.3c0,0-2.2,13.8-2.9,20.9c-0.9,9.9-1.4,19.8-1.5,29.7c0,6.2,0.1,12.3,0.7,18.4
		c0.2,2.4,0.8,6.8,0.8,6.8 M257.5,173.1l-1.7,19.4l-0.8,16.6l0.2,19.1 M248.3,141c0,0,0.8,8.7,0.7,13.4c-0.1,7-0.5,14-1.6,20.9
		c-0.7,4.6-3.3,13.6-3.3,13.6 M242.9,129.7c0,0,0.8,13.2,0.9,20c0,2.9,0,5.8-0.2,8.7c-0.3,5.3-1.7,15.9-1.7,15.9 M238.1,121.9
		l0.2,15.1l-1.5,16.2 M233.4,115.4l-0.3,10.9l-1,14.5 M230.4,111.5l-0.5,24.7 M227.4,108.1c0,0,0.4,5.5,0.3,8.3
		c-0.1,2-0.5,4-0.6,6.1c-0.2,2.7-0.2,8.2-0.2,8.2 M163.9,252.4c-1.3,0.1-3.1-3.5-4.4-5.5c-2.1-3.4-3.7-7.1-4.9-11
		c-1-3.3-1.5-6.8-1.8-10.3c-0.4-3.5-0.4-7-0.4-10.5c0-2.8,0.1-5.6,0.4-8.4c0.5-5,1.8-9.9,2.3-15c0.5-4.8,0.4-9.6,0.9-14.4
		c0.4-4.3,1.2-8.5,1.8-12.7c0.5-3.6,1.1-7.2,1.4-10.8c0.3-3.7,0-7.4,0.2-11c0.1-2.4,0.7-7.1,0.7-7.1 M154.3,259.9
		c0,0-0.9-1.7-1.7-3.9c-1-2.5-1.5-5.2-2.1-7.9c-0.6-3-1-6-1.4-9c-0.5-3.1-1.6-9.7-1.6-9.7 M160.8,165.4c0,0-1.5,5.7-2,8.6
		c-0.3,2.1-0.4,4.1-0.5,6.2c-0.1,2.6,0.4,5.2-0.1,7.7c-0.3,1.7-1.5,3.1-1.9,4.7c-0.5,2-0.4,4.1-0.8,6.1c-0.3,1.3-1,2.6-1.2,3.9
		c-0.6,3.5-0.6,7.2-0.4,10.8c0.1,2.2,0.5,4.3,0.7,6.5c0.2,1.9,0.1,3.9,0.6,5.8c0.6,2.3,1.6,4.5,2.8,6.6c0.8,1.3,2.7,3.5,2.7,3.5
		l1.6,2 M155.4,144.9c0,0-0.2,13.9-0.5,20.8c-0.2,4.1-0.8,8.1-0.9,12.2c-0.1,3,0.3,6,0.2,9c-0.1,3-0.5,6.1-0.9,9.1
		c-0.6,4.3-1.8,8.4-2.4,12.7c-0.4,2.4-0.7,4.7-0.8,7.1c-0.1,2.6,0.1,5.3,0.2,7.9c0.2,3,0.4,6.1,0.9,9.1c0.6,3.7,1.9,7.2,2.7,10.9
		c0.5,2.3,0.8,4.6,1.4,6.8c0.8,2.7,1.7,5.4,2.9,7.9c0.6,1.3,0.8,1.5,0.8,1.5 M223,124.7l-0.1-6.1l0.2-8.2l-0.2-7.2 M220.1,121.2
		v-9.7l0.2-7.9l-0.3-3.4 M215.8,116.7l-0.1-18.1l0.1-2 M211.3,93.8l-0.1,18.2 M205.9,91l0.2,18.3 M200.2,93.7v11l0.1,6.5
		 M194.6,97.3v7.9l0.2,4.8l-0.4,5.4 M188.7,101.3c0,0-0.2,6-0.1,8.9c0,1.4,0.3,2.8,0.4,4.2c0,2.3-0.5,6.9-0.5,6.9 M165.1,127.3
		c0,0-0.2,7.8-0.5,11.6c-0.2,3.1-0.9,6.2-1.1,9.3c-0.1,2.2,0.2,4.5-0.1,6.7c-0.3,2-1.3,3.8-1.6,5.8c-0.6,2.9-0.9,5.8-0.9,8.7
		c0,2,0.6,3.9,0.5,5.9c-0.1,2.1-1.1,4-1.3,6.1c-0.2,2.5,0.5,7.6,0.5,7.6 M181.3,108.2l-0.1,7.4l0.5,8.7l-0.5,6.5 M172.1,118.3
		l0.2,6.3l0.6,7.6l-0.5,6.3l0.1,6.7 M172.7,186.7c0,0.8-0.6,1.4-1.4,1.4c-0.8,0-1.4-0.6-1.4-1.4c0-0.8,0.6-1.4,1.4-1.4
		C172.1,185.3,172.7,185.9,172.7,186.7z M185,188.2c0,0.8-0.6,1.4-1.4,1.4c-0.8,0-1.4-0.6-1.4-1.4c0-0.8,0.6-1.4,1.4-1.4
		C184.3,186.8,185,187.4,185,188.2z M177.3,230.8c0,0.8-0.6,1.4-1.4,1.4c-0.8,0-1.4-0.6-1.4-1.4c0-0.8,0.6-1.4,1.4-1.4
		C176.7,229.3,177.3,230,177.3,230.8z M188.5,230.8c0,0.8-0.6,1.4-1.4,1.4c-0.8,0-1.4-0.6-1.4-1.4s0.6-1.4,1.4-1.4
		S188.5,230,188.5,230.8z M235.1,201.2c0,1.8-1.5,3.3-3.3,3.3c-1.8,0-3.3-1.5-3.3-3.3c0-1.8,1.5-3.3,3.3-3.3
		C233.6,197.9,235.1,199.4,235.1,201.2z M232.8,214.8c-0.2,0-0.3,0-0.4,0c-0.1,0-0.1-0.1-0.1-0.4c0-0.1,0.1-0.7,0.1-1.2
		c0-0.5,0.1-1.1,0.1-1.4c0-0.3,0-0.5,0-0.6c0,0-0.1-0.2-0.2-0.2c-0.5-0.6-0.5-1.4,0-1.9c0.2-0.2,0.4-0.3,0.7-0.3
		c0.2,0,0.5,0,0.7,0.1c0.6,0.3,0.9,0.9,0.7,1.5c-0.1,0.2-0.2,0.4-0.4,0.6c-0.1,0.1-0.2,0.2-0.2,0.3c0,0,0,0.3,0,0.5
		c0.1,1,0.2,2.8,0.2,2.9c0,0.1,0,0.1,0,0.1c-0.1,0.1-0.1,0.1-0.5,0.1C233.3,214.8,233,214.8,232.8,214.8L232.8,214.8z"/>
</g>
</svg>
